{
.appVersion = "3259";
.formatVersion = 3;
customParameters = (
{
name = vendorID;
value = NONE;
},
{
name = panose;
value = (
0,
0,
0,
0,
0,
0,
0,
0,
0,
0
);
},
{
name = unicodeRanges;
value = (
0,
1
);
},
{
name = fsType;
value = (
3,
8
);
},
{
name = glyphOrder;
value = (
.notdef,
A,
Agrave,
Aacute,
Acircumflex,
Atilde,
Adieresis,
Aring,
Aogonek,
B,
C,
Ccedilla,
Cacute,
Ccaron,
D,
Dcaron,
E,
Egrave,
Eacute,
Ecircumflex,
Edieresis,
Eogonek,
Ecaron,
F,
G,
H,
I,
Igrave,
Iacute,
Icircumflex,
Idieresis,
J,
K,
L,
M,
N,
Ntilde,
Ncaron,
O,
Ograve,
Oacute,
Ocircumflex,
Otilde,
Odieresis,
P,
Q,
R,
Rcaron,
S,
Scaron,
T,
Tcaron,
U,
Ugrave,
Uacute,
Ucircumflex,
Udieresis,
Uring,
V,
W,
X,
Y,
Yacute,
Z,
Zacute,
Zdotaccent,
Zcaron,
AE,
Eth,
Oslash,
Thorn,
Lslash,
a,
agrave,
aacute,
acircumflex,
atilde,
adieresis,
aring,
aogonek,
b,
c,
ccedilla,
cacute,
ccaron,
d,
dcaron,
e,
egrave,
eacute,
ecircumflex,
edieresis,
eogonek,
ecaron,
f,
g,
h,
i,
igrave,
iacute,
icircumflex,
idieresis,
j,
k,
l,
m,
n,
ntilde,
ncaron,
o,
ograve,
oacute,
ocircumflex,
otilde,
odieresis,
p,
q,
r,
rcaron,
s,
scaron,
t,
tcaron,
u,
ugrave,
uacute,
ucircumflex,
udieresis,
uring,
v,
w,
x,
y,
yacute,
ydieresis,
z,
zacute,
zdotaccent,
zcaron,
germandbls,
ae,
eth,
oslash,
thorn,
dotlessi,
lslash,
mu,
circumflex,
caron,
ordfeminine,
ordmasculine,
uni032C,
zero,
one,
two,
three,
four,
five,
six,
seven,
eight,
nine,
onequarter,
onehalf,
threequarters,
onethird,
twothirds,
oneeighth,
threeeighths,
fiveeighths,
seveneighths,
underscore,
hyphen,
endash,
emdash,
parenleft,
bracketleft,
braceleft,
uni201E,
parenright,
bracketright,
braceright,
guillemotleft,
quoteleft,
quotedblleft,
uni2039,
guillemotright,
quoteright,
quotedblright,
uni203A,
exclam,
quotedbl,
numbersign,
percent,
ampersand,
quotesingle,
asterisk,
comma,
period,
slash,
colon,
semicolon,
question,
at,
backslash,
exclamdown,
section,
paragraph,
periodcentered,
questiondown,
dagger,
daggerdbl,
bullet,
ellipsis,
plus,
less,
equal,
greater,
bar,
asciitilde,

glyphs = (
{
glyphname = .notdef;
layers = (
{
hints = (
{
horizontal = 1;
place = (718,50);
type = Stem;
},
{
horizontal = 1;
place = (-232,50);
type = Stem;
},
{
place = (400,50);
type = Stem;
},
{
place = (50,50);
type = Stem;
}
);
layerId = m01;
shapes = (
{
closed = 1;
nodes = (
(450,-232,l),
(450,768,l),
(50,768,l),
(50,-232,l)
);
},
{
closed = 1;
nodes = (
(100,718,l),
(400,718,l),
(400,-182,l),
(100,-182,l)
);
}
);
width = 500;
}
);
note = .notdef;
},
{
glyphname = A;
kernLeft = A;
kernRight = A;
lastChange = "2024-04-24 11:54:14 +0000";
layers = (
{
hints = (
{
horizontal = 1;
place = (231,84);
type = Stem;
},
{
place = (18,660);
type = Stem;
}
);
layerId = m01;
shapes = (
{
closed = 1;
nodes = (
(18,0,l),
(308,753,l),
(390,753,l),
(678,0,l),
(587,0,l),
(489,256,l),
(543,231,l),
(150,231,l),
(205,256,l),
(107,0,l)
);
},
{
closed = 1;
nodes = (
(511,315,l),
(477,287,l),
(347,635,l),
(217,287,l),
(183,315,l)
);
}
);
width = 696;
}
);
note = A;
unicode = 65;
},
{
glyphname = Agrave;
kernLeft = A;
kernRight = A;
layers = (
{
hints = (
{
horizontal = 1;
place = (786,120);
type = Stem;
},
{
horizontal = 1;
place = (231,84);
type = Stem;
},
{
place = (18,660);
type = Stem;
}
);
layerId = m01;
shapes = (
{
closed = 1;
nodes = (
(404,786,l),
(358,906,l),
(254,906,l),
(341,786,l)
);
},
{
closed = 1;
nodes = (
(195,231,l),
(498,231,l),
(587,0,l),
(678,0,l),
(390,753,l),
(308,753,l),
(18,0,l),
(106,0,l)
);
},
{
closed = 1;
nodes = (
(227,315,l),
(347,635,l),
(466,315,l)
);
}
);
width = 696;
}
);
note = Agrave;
unicode = 192;
},
{
glyphname = Aacute;
kernLeft = A;
kernRight = A;
layers = (
{
hints = (
{
horizontal = 1;
place = (786,120);
type = Stem;
},
{
horizontal = 1;
place = (231,84);
type = Stem;
},
{
place = (18,660);
type = Stem;
}
);
layerId = m01;
shapes = (
{
closed = 1;
nodes = (
(284,786,l),
(347,786,l),
(434,906,l),
(330,906,l)
);
},
{
closed = 1;
nodes = (
(195,231,l),
(498,231,l),
(587,0,l),
(678,0,l),
(390,753,l),
(308,753,l),
(18,0,l),
(106,0,l)
);
},
{
closed = 1;
nodes = (
(227,315,l),
(347,635,l),
(466,315,l)
);
}
);
width = 696;
}
);
note = Aacute;
unicode = 193;
},
{
glyphname = Acircumflex;
kernLeft = A;
kernRight = A;
layers = (
{
hints = (
{
horizontal = 1;
place = (870,48);
type = Stem;
},
{
horizontal = 1;
place = (786,132);
type = Stem;
},
{
horizontal = 1;
place = (231,84);
type = Stem;
},
{
place = (18,660);
type = Stem;
}
);
layerId = m01;
shapes = (
{
closed = 1;
nodes = (
(388,918,l),
(309,918,l),
(206,786,l),
(286,786,l),
(349,870,l),
(412,786,l),
(491,786,l)
);
},
{
closed = 1;
nodes = (
(195,231,l),
(498,231,l),
(587,0,l),
(678,0,l),
(390,753,l),
(308,753,l),
(18,0,l),
(106,0,l)
);
},
{
closed = 1;
nodes = (
(229,315,l),
(349,635,l),
(468,315,l)
);
}
);
width = 696;
}
);
note = Acircumflex;
unicode = 194;
},
{
glyphname = Atilde;
kernLeft = A;
kernRight = A;
layers = (
{
hints = (
{
horizontal = 1;
place = (786,89);
type = Stem;
},
{
horizontal = 1;
place = (231,84);
type = Stem;
},
{
place = (18,660);
type = Stem;
}
);
layerId = m01;
shapes = (
{
closed = 1;
nodes = (
(423,875,l),
(423,754,o),
(249,1016,o),
(214,786,c),
(274,786,l),
(274,906,o),
(450,646,o),
(483,875,c)
);
},
{
closed = 1;
nodes = (
(195,231,l),
(498,231,l),
(587,0,l),
(678,0,l),
(390,753,l),
(308,753,l),
(18,0,l),
(106,0,l)
);
},
{
closed = 1;
nodes = (
(229,315,l),
(349,635,l),
(468,315,l)
);
}
);
width = 696;
}
);
note = Atilde;
unicode = 195;
},
{
glyphname = Adieresis;
kernLeft = A;
kernRight = A;
layers = (
{
hints = (
{
horizontal = 1;
place = (795,117);
type = Stem;
},
{
horizontal = 1;
place = (231,84);
type = Stem;
},
{
place = (399,99);
type = Stem;
},
{
place = (201,99);
type = Stem;
}
);
layerId = m01;
shapes = (
{
closed = 1;
nodes = (
(201,795,l),
(300,795,l),
(300,912,l),
(201,912,l)
);
},
{
closed = 1;
nodes = (
(399,795,l),
(498,795,l),
(498,912,l),
(399,912,l)
);
},
{
closed = 1;
nodes = (
(195,231,l),
(498,231,l),
(587,0,l),
(678,0,l),
(390,753,l),
(308,753,l),
(18,0,l),
(106,0,l)
);
},
{
closed = 1;
nodes = (
(227,315,l),
(347,635,l),
(466,315,l)
);
}
);
width = 696;
}
);
note = Adieresis;
unicode = 196;
},
{
glyphname = Aring;
kernLeft = A;
kernRight = A;
layers = (
{
hints = (
{
horizontal = 1;
place = (926,33);
type = Stem;
},
{
horizontal = 1;
place = (774,33);
type = Stem;
},
{
horizontal = 1;
place = (231,84);
type = Stem;
},
{
place = (404,33);
type = Stem;
},
{
place = (255,33);
type = Stem;
}
);
layerId = m01;
shapes = (
{
closed = 1;
nodes = (
(289,959,o),
(255,913,o),
(255,866,cs),
(255,819,o),
(289,774,o),
(347,774,cs),
(405,774,o),
(437,820,o),
(437,866,cs),
(437,913,o),
(405,959,o),
(347,959,cs)
);
},
{
closed = 1;
nodes = (
(385,926,o),
(404,895,o),
(404,866,cs),
(404,838,o),
(385,807,o),
(347,807,cs),
(307,807,o),
(288,837,o),
(288,866,cs),
(288,895,o),
(307,926,o),
(347,926,cs)
);
},
{
closed = 1;
nodes = (
(195,231,l),
(498,231,l),
(587,0,l),
(678,0,l),
(390,753,l),
(308,753,l),
(18,0,l),
(106,0,l)
);
},
{
closed = 1;
nodes = (
(227,315,l),
(347,635,l),
(466,315,l)
);
}
);
width = 696;
}
);
note = Aring;
unicode = 197;
},
{
glyphname = Aogonek;
kernRight = A;
layers = (
{
hints = (
{
horizontal = 1;
place = (231,84);
type = Stem;
},
{
horizontal = 1;
place = (-243,75);
type = Stem;
},
{
place = (495,82);
type = Stem;
}
);
layerId = m01;
shapes = (
{
closed = 1;
nodes = (
(195,231,l),
(498,231,l),
(587,0,l),
(599,0,l),
(583,-12,ls),
(407,-145,o),
(524,-283,o),
(677,-232,c),
(677,-158,l),
(595,-194,o),
(507,-125,o),
(661,-12,cs),
(678,0,l),
(390,753,l),
(308,753,l),
(18,0,l),
(106,0,l)
);
},
{
closed = 1;
nodes = (
(227,315,l),
(347,635,l),
(466,315,l)
);
}
);
width = 696;
}
);
note = Aogonek;
unicode = 260;
},
{
glyphname = B;
lastChange = "2024-04-24 11:54:33 +0000";
layers = (
{
hints = (
{
horizontal = 1;
place = (669,84);
type = Stem;
},
{
horizontal = 1;
place = (342,84);
type = Stem;
},
{
horizontal = 1;
place = (0,84);
type = Stem;
},
{
place = (624,102);
type = Stem;
},
{
place = (600,93);
type = Stem;
},
{
place = (111,90);
type = Stem;
}
);
layerId = m01;
shapes = (
{
closed = 1;
nodes = (
(474,0,ls),
(648,0,o),
(726,72,o),
(726,205,cs),
(726,327,o),
(669,369,o),
(578,390,c),
(657,417,o),
(693,475,o),
(693,553,cs),
(693,681,o),
(612,753,o),
(474,753,cs),
(111,753,l),
(111,0,l)
);
},
{
closed = 1;
nodes = (
(156,426,l),
(201,403,l),
(201,714,l),
(156,669,l),
(461,669,ls),
(567,669,o),
(600,627,o),
(600,553,cs),
(600,472,o),
(549,426,o),
(451,426,cs)
);
},
{
closed = 1;
nodes = (
(201,358,l),
(156,342,l),
(481,342,ls),
(585,342,o),
(624,286,o),
(624,205,cs),
(624,135,o),
(588,84,o),
(490,84,cs),
(156,84,l),
(201,39,l)
);
}
);
width = 783;
}
);
note = B;
unicode = 66;
},
{
glyphname = C;
kernLeft = C;
layers = (
{
hints = (
{
horizontal = 1;
place = (687,78);
type = Stem;
},
{
horizontal = 1;
place = (-12,78);
type = Stem;
},
{
place = (57,102);
type = Stem;
}
);
layerId = m01;
shapes = (
{
closed = 1;
nodes = (
(612,273,l),
(606,143,o),
(552,66,o),
(402,66,cs),
(231,66,o),
(159,194,o),
(159,378,cs),
(159,562,o),
(231,687,o),
(402,687,cs),
(495,687,o),
(585,657,o),
(604,531,c),
(706,531,l),
(673,686,o),
(590,765,o),
(402,765,cs),
(110,765,o),
(57,546,o),
(57,378,cs),
(57,210,o),
(118,-12,o),
(402,-12,cs),
(655,-12,o),
(698,132,o),
(716,273,c)
);
}
);
width = 773;
}
);
note = C;
unicode = 67;
},
{
glyphname = Ccedilla;
kernLeft = C;
layers = (
{
hints = (
{
horizontal = 1;
place = (687,78);
type = Stem;
},
{
horizontal = 1;
place = (-11,77);
type = Stem;
},
{
horizontal = 1;
place = (-109,36);
type = Stem;
},
{
horizontal = 1;
place = (-244,46);
type = Stem;
},
{
place = (441,58);
type = Stem;
},
{
place = (57,102);
type = Stem;
}
);
layerId = m01;
shapes = (
{
closed = 1;
nodes = (
(475,-244,o),
(499,-196,o),
(499,-149,cs),
(499,-102,o),
(466,-53,o),
(364,-80,c),
(410,-12,l),
(656,-9,o),
(698,133,o),
(716,273,c),
(612,273,l),
(606,143,o),
(552,66,o),
(402,66,cs),
(231,66,o),
(159,194,o),
(159,378,cs),
(159,562,o),
(231,687,o),
(402,687,cs),
(495,687,o),
(585,657,o),
(604,531,c),
(706,531,l),
(673,686,o),
(590,765,o),
(402,765,cs),
(110,765,o),
(57,546,o),
(57,378,cs),
(57,217,o),
(113,6,o),
(368,-11,c),
(313,-93,l),
(334,-114,l),
(376,-107,o),
(441,-99,o),
(441,-150,cs),
(441,-189,o),
(400,-198,o),
(378,-198,cs),
(344,-198,o),
(316,-190,o),
(297,-180,c),
(279,-212,l),
(279,-212,o),
(309,-244,o),
(393,-244,cs)
);
}
);
width = 773;
}
);
note = Ccedilla;
unicode = 199;
},
{
glyphname = Cacute;
kernLeft = C;
layers = (
{
hints = (
{
horizontal = 1;
place = (786,120);
type = Stem;
},
{
horizontal = 1;
place = (687,78);
type = Stem;
},
{
horizontal = 1;
place = (-12,78);
type = Stem;
},
{
place = (57,102);
type = Stem;
}
);
layerId = m01;
shapes = (
{
closed = 1;
nodes = (
(339,786,l),
(402,786,l),
(489,906,l),
(385,906,l)
);
},
{
closed = 1;
nodes = (
(612,273,l),
(606,143,o),
(552,66,o),
(402,66,cs),
(231,66,o),
(159,194,o),
(159,378,cs),
(159,562,o),
(231,687,o),
(402,687,cs),
(495,687,o),
(585,657,o),
(604,531,c),
(706,531,l),
(673,686,o),
(590,765,o),
(402,765,cs),
(110,765,o),
(57,546,o),
(57,378,cs),
(57,210,o),
(118,-12,o),
(402,-12,cs),
(655,-12,o),
(698,132,o),
(716,273,c)
);
}
);
width = 773;
}
);
note = Cacute;
unicode = 262;
},
{
glyphname = Ccaron;
kernLeft = C;
layers = (
{
hints = (
{
horizontal = 1;
place = (786,132);
type = Stem;
},
{
horizontal = 1;
place = (687,78);
type = Stem;
},
{
horizontal = 1;
place = (-12,78);
type = Stem;
},
{
place = (57,102);
type = Stem;
}
);
layerId = m01;
shapes = (
{
closed = 1;
nodes = (
(441,786,l),
(544,918,l),
(465,918,l),
(402,834,l),
(339,918,l),
(259,918,l),
(362,786,l)
);
},
{
closed = 1;
nodes = (
(612,273,l),
(606,143,o),
(552,66,o),
(402,66,cs),
(231,66,o),
(159,194,o),
(159,378,cs),
(159,562,o),
(231,687,o),
(402,687,cs),
(495,687,o),
(585,657,o),
(604,531,c),
(706,531,l),
(673,686,o),
(590,765,o),
(402,765,cs),
(110,765,o),
(57,546,o),
(57,378,cs),
(57,210,o),
(118,-12,o),
(402,-12,cs),
(655,-12,o),
(698,132,o),
(716,273,c)
);
}
);
width = 773;
}
);
note = Ccaron;
unicode = 268;
},
{
glyphname = D;
lastChange = "2024-04-24 11:54:41 +0000";
layers = (
{
hints = (
{
horizontal = 1;
place = (669,84);
type = Stem;
},
{
horizontal = 1;
place = (0,84);
type = Stem;
},
{
place = (596,96);
type = Stem;
},
{
place = (90,90);
type = Stem;
}
);
layerId = m01;
shapes = (
{
closed = 1;
nodes = (
(366,0,ls),
(629,0,o),
(692,204,o),
(692,377,cs),
(692,550,o),
(629,753,o),
(366,753,cs),
(90,753,l),
(90,0,l)
);
},
{
closed = 1;
nodes = (
(135,84,l),
(180,39,l),
(180,714,l),
(135,669,l),
(366,669,ls),
(540,669,o),
(596,553,o),
(596,377,cs),
(596,201,o),
(540,84,o),
(366,84,cs)
);
}
);
width = 746;
}
);
note = D;
unicode = 68;
},
{
glyphname = Dcaron;
layers = (
{
hints = (
{
horizontal = 1;
place = (786,132);
type = Stem;
},
{
horizontal = 1;
place = (669,84);
type = Stem;
},
{
horizontal = 1;
place = (0,84);
type = Stem;
},
{
place = (596,96);
type = Stem;
},
{
place = (90,90);
type = Stem;
}
);
layerId = m01;
shapes = (
{
closed = 1;
nodes = (
(411,786,l),
(514,918,l),
(435,918,l),
(372,834,l),
(309,918,l),
(229,918,l),
(332,786,l)
);
},
{
closed = 1;
nodes = (
(366,0,ls),
(629,0,o),
(692,204,o),
(692,377,cs),
(692,550,o),
(629,753,o),
(366,753,cs),
(90,753,l),
(90,0,l)
);
},
{
closed = 1;
nodes = (
(180,84,l),
(180,669,l),
(366,669,ls),
(540,669,o),
(596,553,o),
(596,377,cs),
(596,201,o),
(540,84,o),
(366,84,cs)
);
}
);
width = 746;
}
);
note = Dcaron;
unicode = 270;
},
{
glyphname = E;
lastChange = "2024-04-24 11:54:51 +0000";
layers = (
{
hints = (
{
horizontal = 1;
place = (669,84);
type = Stem;
},
{
horizontal = 1;
place = (345,84);
type = Stem;
},
{
horizontal = 1;
place = (0,84);
type = Stem;
},
{
place = (111,540);
type = Stem;
},
{
place = (111,451);
type = Stem;
},
{
place = (111,90);
type = Stem;
}
);
layerId = m01;
shapes = (
{
closed = 1;
nodes = (
(651,0,l),
(651,84,l),
(156,84,l),
(201,39,l),
(201,372,l),
(156,345,l),
(562,345,l),
(562,429,l),
(156,429,l),
(201,414,l),
(201,714,l),
(156,669,l),
(651,669,l),
(651,753,l),
(111,753,l),
(111,0,l)
);
}
);
width = 696;
}
);
note = E;
unicode = 69;
},
{
glyphname = Egrave;
layers = (
{
hints = (
{
horizontal = 1;
place = (786,120);
type = Stem;
},
{
horizontal = 1;
place = (669,237);
type = Stem;
},
{
horizontal = 1;
place = (669,84);
type = Stem;
},
{
horizontal = 1;
place = (345,84);
type = Stem;
},
{
horizontal = 1;
place = (0,84);
type = Stem;
},
{
place = (111,540);
type = Stem;
},
{
place = (111,451);
type = Stem;
},
{
place = (111,90);
type = Stem;
}
);
layerId = m01;
shapes = (
{
closed = 1;
nodes = (
(438,786,l),
(392,906,l),
(288,906,l),
(375,786,l)
);
},
{
closed = 1;
nodes = (
(651,0,l),
(651,84,l),
(201,84,l),
(201,345,l),
(562,345,l),
(562,429,l),
(201,429,l),
(201,669,l),
(651,669,l),
(651,753,l),
(111,753,l),
(111,0,l)
);
}
);
width = 696;
}
);
note = Egrave;
unicode = 200;
},
{
glyphname = Eacute;
layers = (
{
hints = (
{
horizontal = 1;
place = (786,120);
type = Stem;
},
{
horizontal = 1;
place = (669,237);
type = Stem;
},
{
horizontal = 1;
place = (669,84);
type = Stem;
},
{
horizontal = 1;
place = (345,84);
type = Stem;
},
{
horizontal = 1;
place = (0,84);
type = Stem;
},
{
place = (111,540);
type = Stem;
},
{
place = (111,451);
type = Stem;
},
{
place = (111,90);
type = Stem;
}
);
layerId = m01;
shapes = (
{
closed = 1;
nodes = (
(306,786,l),
(369,786,l),
(456,906,l),
(352,906,l)
);
},
{
closed = 1;
nodes = (
(651,0,l),
(651,84,l),
(201,84,l),
(201,345,l),
(562,345,l),
(562,429,l),
(201,429,l),
(201,669,l),
(651,669,l),
(651,753,l),
(111,753,l),
(111,0,l)
);
}
);
width = 696;
}
);
note = Eacute;
unicode = 201;
},
{
glyphname = Ecircumflex;
layers = (
{
hints = (
{
horizontal = 1;
place = (870,48);
type = Stem;
},
{
horizontal = 1;
place = (786,132);
type = Stem;
},
{
horizontal = 1;
place = (669,84);
type = Stem;
},
{
horizontal = 1;
place = (345,84);
type = Stem;
},
{
horizontal = 1;
place = (0,84);
type = Stem;
},
{
place = (111,540);
type = Stem;
},
{
place = (111,451);
type = Stem;
},
{
place = (111,90);
type = Stem;
}
);
layerId = m01;
shapes = (
{
closed = 1;
nodes = (
(421,918,l),
(342,918,l),
(239,786,l),
(319,786,l),
(382,870,l),
(445,786,l),
(524,786,l)
);
},
{
closed = 1;
nodes = (
(651,0,l),
(651,84,l),
(201,84,l),
(201,345,l),
(562,345,l),
(562,429,l),
(201,429,l),
(201,669,l),
(651,669,l),
(651,753,l),
(111,753,l),
(111,0,l)
);
}
);
width = 696;
}
);
note = Ecircumflex;
unicode = 202;
},
{
glyphname = Edieresis;
layers = (
{
hints = (
{
horizontal = 1;
place = (795,117);
type = Stem;
},
{
horizontal = 1;
place = (669,84);
type = Stem;
},
{
horizontal = 1;
place = (345,84);
type = Stem;
},
{
horizontal = 1;
place = (0,84);
type = Stem;
},
{
place = (439,99);
type = Stem;
},
{
place = (241,99);
type = Stem;
},
{
place = (111,540);
type = Stem;
},
{
place = (111,451);
type = Stem;
},
{
place = (111,90);
type = Stem;
}
);
layerId = m01;
shapes = (
{
closed = 1;
nodes = (
(241,795,l),
(340,795,l),
(340,912,l),
(241,912,l)
);
},
{
closed = 1;
nodes = (
(439,795,l),
(538,795,l),
(538,912,l),
(439,912,l)
);
},
{
closed = 1;
nodes = (
(651,0,l),
(651,84,l),
(201,84,l),
(201,345,l),
(562,345,l),
(562,429,l),
(201,429,l),
(201,669,l),
(651,669,l),
(651,753,l),
(111,753,l),
(111,0,l)
);
}
);
width = 696;
}
);
note = Edieresis;
unicode = 203;
},
{
glyphname = Eogonek;
layers = (
{
hints = (
{
horizontal = 1;
place = (669,84);
type = Stem;
},
{
horizontal = 1;
place = (345,84);
type = Stem;
},
{
horizontal = 1;
place = (0,84);
type = Stem;
},
{
horizontal = 1;
place = (-243,75);
type = Stem;
},
{
place = (357,82);
type = Stem;
},
{
place = (111,540);
type = Stem;
},
{
place = (111,451);
type = Stem;
},
{
place = (111,90);
type = Stem;
}
);
layerId = m01;
shapes = (
{
closed = 1;
nodes = (
(445,-12,ls),
(269,-145,o),
(386,-283,o),
(539,-232,c),
(539,-158,l),
(457,-194,o),
(369,-125,o),
(523,-12,cs),
(540,0,l),
(651,0,l),
(651,84,l),
(201,84,l),
(201,345,l),
(562,345,l),
(562,429,l),
(201,429,l),
(201,669,l),
(651,669,l),
(651,753,l),
(111,753,l),
(111,0,l),
(462,0,l)
);
}
);
width = 696;
}
);
note = Eogonek;
unicode = 280;
},
{
glyphname = Ecaron;
layers = (
{
hints = (
{
horizontal = 1;
place = (786,132);
type = Stem;
},
{
horizontal = 1;
place = (669,249);
type = Stem;
},
{
horizontal = 1;
place = (669,84);
type = Stem;
},
{
horizontal = 1;
place = (345,84);
type = Stem;
},
{
horizontal = 1;
place = (0,84);
type = Stem;
},
{
place = (111,540);
type = Stem;
},
{
place = (111,451);
type = Stem;
},
{
place = (111,90);
type = Stem;
}
);
layerId = m01;
shapes = (
{
closed = 1;
nodes = (
(421,786,l),
(524,918,l),
(445,918,l),
(382,834,l),
(319,918,l),
(239,918,l),
(342,786,l)
);
},
{
closed = 1;
nodes = (
(651,0,l),
(651,84,l),
(201,84,l),
(201,345,l),
(562,345,l),
(562,429,l),
(201,429,l),
(201,669,l),
(651,669,l),
(651,753,l),
(111,753,l),
(111,0,l)
);
}
);
width = 696;
}
);
note = Ecaron;
unicode = 282;
},
{
glyphname = F;
lastChange = "2024-04-24 11:54:59 +0000";
layers = (
{
hints = (
{
horizontal = 1;
place = (669,84);
type = Stem;
},
{
horizontal = 1;
place = (322,84);
type = Stem;
},
{
place = (111,442);
type = Stem;
},
{
place = (111,90);
type = Stem;
}
);
layerId = m01;
shapes = (
{
closed = 1;
nodes = (
(201,0,l),
(201,355,l),
(156,322,l),
(553,322,l),
(553,406,l),
(156,406,l),
(201,377,l),
(201,714,l),
(156,669,l),
(642,669,l),
(642,753,l),
(111,753,l),
(111,0,l)
);
}
);
width = 666;
}
);
note = F;
unicode = 70;
},
{
glyphname = G;
lastChange = "2024-04-24 11:55:15 +0000";
layers = (
{
hints = (
{
horizontal = 1;
place = (687,78);
type = Stem;
},
{
horizontal = 1;
place = (299,82);
type = Stem;
},
{
horizontal = 1;
place = (-12,78);
type = Stem;
},
{
place = (684,87);
type = Stem;
},
{
place = (678,93);
type = Stem;
},
{
place = (57,105);
type = Stem;
}
);
layerId = m01;
shapes = (
{
closed = 1;
nodes = (
(771,381,l),
(450,381,l),
(450,299,l),
(723,299,l),
(678,333,l),
(685,172,o),
(574,66,o),
(417,66,cs),
(246,66,o),
(162,194,o),
(162,378,cs),
(162,562,o),
(246,687,o),
(429,687,cs),
(558,687,o),
(642,627,o),
(652,492,c),
(757,492,l),
(732,650,o),
(630,765,o),
(429,765,cs),
(125,765,o),
(57,546,o),
(57,378,cs),
(57,210,o),
(133,-12,o),
(417,-12,cs),
(591,-12,o),
(671,84,o),
(690,170,c),
(684,194,l),
(684,0,l),
(771,0,l)
);
}
);
width = 864;
}
);
note = G;
unicode = 71;
},
{
glyphname = H;
lastChange = "2024-04-24 11:55:28 +0000";
layers = (
{
hints = (
{
horizontal = 1;
place = (334,84);
type = Stem;
},
{
place = (630,90);
type = Stem;
},
{
place = (111,90);
type = Stem;
}
);
layerId = m01;
shapes = (
{
closed = 1;
nodes = (
(111,0,l),
(201,0,l),
(201,366,l),
(156,334,l),
(675,334,l),
(630,366,l),
(630,0,l),
(720,0,l),
(720,753,l),
(630,753,l),
(630,389,l),
(675,418,l),
(156,418,l),
(201,389,l),
(201,753,l),
(111,753,l)
);
}
);
width = 831;
}
);
note = H;
unicode = 72;
},
{
glyphname = I;
layers = (
{
hints = (
{
horizontal = 1;
place = (0,753);
type = Stem;
},
{
place = (111,90);
type = Stem;
}
);
layerId = m01;
shapes = (
{
closed = 1;
nodes = (
(111,0,l),
(201,0,l),
(201,753,l),
(111,753,l)
);
}
);
width = 312;
}
);
note = I;
unicode = 73;
},
{
glyphname = Igrave;
layers = (
{
hints = (
{
horizontal = 1;
place = (786,120);
type = Stem;
},
{
place = (111,90);
type = Stem;
}
);
layerId = m01;
shapes = (
{
closed = 1;
nodes = (
(212,786,l),
(166,906,l),
(62,906,l),
(149,786,l)
);
},
{
closed = 1;
nodes = (
(111,0,l),
(201,0,l),
(201,753,l),
(111,753,l)
);
}
);
width = 312;
}
);
note = Igrave;
unicode = 204;
},
{
glyphname = Iacute;
layers = (
{
hints = (
{
horizontal = 1;
place = (786,120);
type = Stem;
},
{
place = (111,90);
type = Stem;
}
);
layerId = m01;
shapes = (
{
closed = 1;
nodes = (
(95,786,l),
(158,786,l),
(245,906,l),
(141,906,l)
);
},
{
closed = 1;
nodes = (
(111,0,l),
(201,0,l),
(201,753,l),
(111,753,l)
);
}
);
width = 312;
}
);
note = Iacute;
unicode = 205;
},
{
glyphname = Icircumflex;
layers = (
{
hints = (
{
horizontal = 1;
place = (888,30);
type = Stem;
},
{
horizontal = 1;
place = (786,132);
type = Stem;
},
{
place = (111,90);
type = Stem;
}
);
layerId = m01;
shapes = (
{
closed = 1;
nodes = (
(213,918,l),
(98,918,l),
(13,786,l),
(93,786,l),
(156,888,l),
(219,786,l),
(298,786,l)
);
},
{
closed = 1;
nodes = (
(111,0,l),
(201,0,l),
(201,753,l),
(111,753,l)
);
}
);
width = 302;
}
);
note = Icircumflex;
unicode = 206;
},
{
glyphname = Idieresis;
layers = (
{
hints = (
{
horizontal = 1;
place = (795,117);
type = Stem;
},
{
place = (206,99);
type = Stem;
},
{
place = (111,90);
type = Stem;
},
{
place = (8,99);
type = Stem;
}
);
layerId = m01;
shapes = (
{
closed = 1;
nodes = (
(8,795,l),
(107,795,l),
(107,912,l),
(8,912,l)
);
},
{
closed = 1;
nodes = (
(206,795,l),
(305,795,l),
(305,912,l),
(206,912,l)
);
},
{
closed = 1;
nodes = (
(111,0,l),
(201,0,l),
(201,753,l),
(111,753,l)
);
}
);
width = 312;
}
);
note = Idieresis;
unicode = 207;
},
{
glyphname = J;
layers = (
{
hints = (
{
horizontal = 1;
place = (-12,76);
type = Stem;
},
{
place = (379,90);
type = Stem;
},
{
place = (57,97);
type = Stem;
}
);
layerId = m01;
shapes = (
{
closed = 1;
nodes = (
(379,279,ls),
(379,130,o),
(351,64,o),
(265,64,cs),
(200,64,o),
(160,119,o),
(154,252,c),
(57,252,l),
(61,139,o),
(89,-12,o),
(265,-12,cs),
(478,-12,o),
(469,157,o),
(469,307,cs),
(469,753,l),
(379,753,l)
);
}
);
width = 580;
}
);
note = J;
unicode = 74;
},
{
glyphname = K;
lastChange = "2024-04-24 11:55:49 +0000";
layers = (
{
hints = (
{
horizontal = 1;
place = (0,753);
type = Stem;
},
{
place = (111,90);
type = Stem;
}
);
layerId = m01;
shapes = (
{
closed = 1;
nodes = (
(623,0,l),
(752,0,l),
(364,469,l),
(379,420,l),
(688,753,l),
(565,753,l),
(171,311,l),
(201,300,l),
(201,753,l),
(111,753,l),
(111,0,l),
(201,0,l),
(201,267,l),
(171,189,l),
(346,381,l),
(307,404,l)
);
}
);
width = 773;
}
);
note = K;
unicode = 75;
},
{
glyphname = L;
lastChange = "2024-04-24 11:55:56 +0000";
layers = (
{
hints = (
{
horizontal = 1;
place = (0,84);
type = Stem;
},
{
place = (111,90);
type = Stem;
}
);
layerId = m01;
shapes = (
{
closed = 1;
nodes = (
(111,0,l),
(567,0,l),
(567,84,l),
(156,84,l),
(201,39,l),
(201,753,l),
(111,753,l)
);
}
);
width = 630;
}
);
note = L;
unicode = 76;
},
{
glyphname = M;
lastChange = "2024-04-24 11:56:05 +0000";
layers = (
{
hints = (
{
horizontal = 1;
place = (0,753);
type = Stem;
},
{
place = (699,87);
type = Stem;
},
{
place = (111,84);
type = Stem;
}
);
layerId = m01;
shapes = (
{
closed = 1;
nodes = (
(479,0,l),
(714,686,l),
(699,688,l),
(699,0,l),
(786,0,l),
(786,753,l),
(654,753,l),
(436,110,l),
(464,110,l),
(246,753,l),
(111,753,l),
(111,0,l),
(195,0,l),
(195,688,l),
(180,686,l),
(415,0,l)
);
}
);
width = 897;
}
);
note = M;
unicode = 77;
},
{
glyphname = N;
lastChange = "2024-04-24 11:56:13 +0000";
layers = (
{
hints = (
{
horizontal = 1;
place = (0,753);
type = Stem;
},
{
place = (620,90);
type = Stem;
},
{
place = (111,90);
type = Stem;
}
);
layerId = m01;
shapes = (
{
closed = 1;
nodes = (
(710,0,l),
(710,753,l),
(620,753,l),
(620,102,l),
(645,110,l),
(210,753,l),
(111,753,l),
(111,0,l),
(201,0,l),
(201,652,l),
(176,644,l),
(612,0,l)
);
}
);
width = 821;
}
);
note = N;
unicode = 78;
},
{
glyphname = Ntilde;
layers = (
{
hints = (
{
horizontal = 1;
place = (786,89);
type = Stem;
},
{
horizontal = 1;
place = (0,753);
type = Stem;
},
{
place = (620,90);
type = Stem;
},
{
place = (111,225);
type = Stem;
},
{
place = (111,90);
type = Stem;
}
);
layerId = m01;
shapes = (
{
closed = 1;
nodes = (
(485,875,l),
(485,754,o),
(311,1016,o),
(276,786,c),
(336,786,l),
(336,906,o),
(512,646,o),
(545,875,c)
);
},
{
closed = 1;
nodes = (
(710,0,l),
(710,753,l),
(620,753,l),
(620,147,l),
(210,753,l),
(111,753,l),
(111,0,l),
(201,0,l),
(201,607,l),
(612,0,l)
);
}
);
width = 821;
}
);
note = Ntilde;
unicode = 209;
},
{
glyphname = Ncaron;
layers = (
{
hints = (
{
horizontal = 1;
place = (786,132);
type = Stem;
},
{
horizontal = 1;
place = (0,753);
type = Stem;
},
{
place = (620,90);
type = Stem;
},
{
place = (111,90);
type = Stem;
}
);
layerId = m01;
shapes = (
{
closed = 1;
nodes = (
(460,786,l),
(563,918,l),
(484,918,l),
(421,834,l),
(358,918,l),
(278,918,l),
(381,786,l)
);
},
{
closed = 1;
nodes = (
(710,0,l),
(710,753,l),
(620,753,l),
(620,147,l),
(210,753,l),
(111,753,l),
(111,0,l),
(201,0,l),
(201,607,l),
(612,0,l)
);
}
);
width = 821;
}
);
note = Ncaron;
unicode = 327;
},
{
glyphname = O;
kernLeft = O;
kernRight = O;
layers = (
{
hints = (
{
horizontal = 1;
place = (687,78);
type = Stem;
},
{
horizontal = 1;
place = (-12,78);
type = Stem;
},
{
place = (669,102);
type = Stem;
},
{
place = (57,102);
type = Stem;
}
);
layerId = m01;
shapes = (
{
closed = 1;
nodes = (
(57,219,o),
(130,-12,o),
(414,-12,cs),
(696,-12,o),
(771,219,o),
(771,378,cs),
(771,537,o),
(696,765,o),
(414,765,cs),
(132,765,o),
(57,537,o),
(57,378,cs)
);
},
{
closed = 1;
nodes = (
(585,687,o),
(669,562,o),
(669,378,cs),
(669,194,o),
(585,66,o),
(414,66,cs),
(243,66,o),
(159,194,o),
(159,378,cs),
(159,562,o),
(243,687,o),
(414,687,cs)
);
}
);
width = 828;
}
);
note = O;
unicode = 79;
},
{
glyphname = Ograve;
kernLeft = O;
kernRight = O;
layers = (
{
hints = (
{
horizontal = 1;
place = (786,120);
type = Stem;
},
{
horizontal = 1;
place = (687,78);
type = Stem;
},
{
horizontal = 1;
place = (-12,78);
type = Stem;
},
{
place = (669,102);
type = Stem;
},
{
place = (57,102);
type = Stem;
}
);
layerId = m01;
shapes = (
{
closed = 1;
nodes = (
(472,786,l),
(426,906,l),
(322,906,l),
(409,786,l)
);
},
{
closed = 1;
nodes = (
(57,219,o),
(130,-12,o),
(414,-12,cs),
(696,-12,o),
(771,219,o),
(771,378,cs),
(771,537,o),
(696,765,o),
(414,765,cs),
(132,765,o),
(57,537,o),
(57,378,cs)
);
},
{
closed = 1;
nodes = (
(585,687,o),
(669,562,o),
(669,378,cs),
(669,194,o),
(585,66,o),
(414,66,cs),
(243,66,o),
(159,194,o),
(159,378,cs),
(159,562,o),
(243,687,o),
(414,687,cs)
);
}
);
width = 828;
}
);
note = Ograve;
unicode = 210;
},
{
glyphname = Oacute;
kernLeft = O;
kernRight = O;
layers = (
{
hints = (
{
horizontal = 1;
place = (786,120);
type = Stem;
},
{
horizontal = 1;
place = (687,78);
type = Stem;
},
{
horizontal = 1;
place = (-12,78);
type = Stem;
},
{
place = (669,102);
type = Stem;
},
{
place = (57,102);
type = Stem;
}
);
layerId = m01;
shapes = (
{
closed = 1;
nodes = (
(357,786,l),
(420,786,l),
(507,906,l),
(403,906,l)
);
},
{
closed = 1;
nodes = (
(57,219,o),
(130,-12,o),
(414,-12,cs),
(696,-12,o),
(771,219,o),
(771,378,cs),
(771,537,o),
(696,765,o),
(414,765,cs),
(132,765,o),
(57,537,o),
(57,378,cs)
);
},
{
closed = 1;
nodes = (
(585,687,o),
(669,562,o),
(669,378,cs),
(669,194,o),
(585,66,o),
(414,66,cs),
(243,66,o),
(159,194,o),
(159,378,cs),
(159,562,o),
(243,687,o),
(414,687,cs)
);
}
);
width = 828;
}
);
note = Oacute;
unicode = 211;
},
{
glyphname = Ocircumflex;
kernLeft = O;
kernRight = O;
layers = (
{
hints = (
{
horizontal = 1;
place = (870,48);
type = Stem;
},
{
horizontal = 1;
place = (786,132);
type = Stem;
},
{
horizontal = 1;
place = (687,78);
type = Stem;
},
{
horizontal = 1;
place = (-12,78);
type = Stem;
},
{
place = (669,102);
type = Stem;
},
{
place = (57,102);
type = Stem;
}
);
layerId = m01;
shapes = (
{
closed = 1;
nodes = (
(454,918,l),
(375,918,l),
(272,786,l),
(352,786,l),
(415,870,l),
(478,786,l),
(557,786,l)
);
},
{
closed = 1;
nodes = (
(57,219,o),
(130,-12,o),
(414,-12,cs),
(696,-12,o),
(771,219,o),
(771,378,cs),
(771,537,o),
(696,765,o),
(414,765,cs),
(132,765,o),
(57,537,o),
(57,378,cs)
);
},
{
closed = 1;
nodes = (
(585,687,o),
(669,562,o),
(669,378,cs),
(669,194,o),
(585,66,o),
(414,66,cs),
(243,66,o),
(159,194,o),
(159,378,cs),
(159,562,o),
(243,687,o),
(414,687,cs)
);
}
);
width = 828;
}
);
note = Ocircumflex;
unicode = 212;
},
{
glyphname = Otilde;
kernLeft = O;
kernRight = O;
layers = (
{
hints = (
{
horizontal = 1;
place = (786,89);
type = Stem;
},
{
horizontal = 1;
place = (687,78);
type = Stem;
},
{
horizontal = 1;
place = (-12,78);
type = Stem;
},
{
place = (669,102);
type = Stem;
},
{
place = (57,102);
type = Stem;
}
);
layerId = m01;
shapes = (
{
closed = 1;
nodes = (
(489,875,l),
(489,754,o),
(315,1016,o),
(280,786,c),
(340,786,l),
(340,906,o),
(516,646,o),
(549,875,c)
);
},
{
closed = 1;
nodes = (
(57,219,o),
(130,-12,o),
(414,-12,cs),
(696,-12,o),
(771,219,o),
(771,378,cs),
(771,537,o),
(696,765,o),
(414,765,cs),
(132,765,o),
(57,537,o),
(57,378,cs)
);
},
{
closed = 1;
nodes = (
(585,687,o),
(669,562,o),
(669,378,cs),
(669,194,o),
(585,66,o),
(414,66,cs),
(243,66,o),
(159,194,o),
(159,378,cs),
(159,562,o),
(243,687,o),
(414,687,cs)
);
}
);
width = 828;
}
);
note = Otilde;
unicode = 213;
},
{
glyphname = Odieresis;
kernLeft = O;
kernRight = O;
layers = (
{
hints = (
{
horizontal = 1;
place = (795,117);
type = Stem;
},
{
horizontal = 1;
place = (687,78);
type = Stem;
},
{
horizontal = 1;
place = (-12,78);
type = Stem;
},
{
place = (669,102);
type = Stem;
},
{
place = (462,99);
type = Stem;
},
{
place = (264,99);
type = Stem;
},
{
place = (57,102);
type = Stem;
}
);
layerId = m01;
shapes = (
{
closed = 1;
nodes = (
(264,795,l),
(363,795,l),
(363,912,l),
(264,912,l)
);
},
{
closed = 1;
nodes = (
(462,795,l),
(561,795,l),
(561,912,l),
(462,912,l)
);
},
{
closed = 1;
nodes = (
(57,219,o),
(130,-12,o),
(414,-12,cs),
(696,-12,o),
(771,219,o),
(771,378,cs),
(771,537,o),
(696,765,o),
(414,765,cs),
(132,765,o),
(57,537,o),
(57,378,cs)
);
},
{
closed = 1;
nodes = (
(585,687,o),
(669,562,o),
(669,378,cs),
(669,194,o),
(585,66,o),
(414,66,cs),
(243,66,o),
(159,194,o),
(159,378,cs),
(159,562,o),
(243,687,o),
(414,687,cs)
);
}
);
width = 828;
}
);
note = Odieresis;
unicode = 214;
},
{
glyphname = P;
lastChange = "2024-04-24 11:56:22 +0000";
layers = (
{
hints = (
{
horizontal = 1;
place = (669,84);
type = Stem;
},
{
horizontal = 1;
place = (312,84);
type = Stem;
},
{
place = (557,96);
type = Stem;
},
{
place = (111,90);
type = Stem;
}
);
layerId = m01;
shapes = (
{
closed = 1;
nodes = (
(201,343,l),
(156,312,l),
(416,312,ls),
(572,312,o),
(653,405,o),
(653,537,cs),
(653,669,o),
(572,753,o),
(416,753,cs),
(111,753,l),
(111,-1,l),
(201,-1,l)
);
},
{
closed = 1;
nodes = (
(156,396,l),
(201,360,l),
(201,714,l),
(156,669,l),
(414,669,ls),
(512,669,o),
(557,627,o),
(557,537,cs),
(557,446,o),
(512,396,o),
(414,396,cs)
);
}
);
width = 698;
}
);
note = P;
unicode = 80;
},
{
glyphname = Q;
lastChange = "2024-04-24 11:56:29 +0000";
layers = (
{
hints = (
{
horizontal = 1;
place = (687,78);
type = Stem;
},
{
horizontal = 1;
place = (-12,78);
type = Stem;
},
{
place = (669,102);
type = Stem;
},
{
place = (57,102);
type = Stem;
}
);
layerId = m01;
shapes = (
{
closed = 1;
nodes = (
(785,-12,l),
(839,53,l),
(682,182,l),
(700,126,l),
(753,203,o),
(771,299,o),
(771,378,cs),
(771,537,o),
(696,765,o),
(414,765,cs),
(132,765,o),
(57,537,o),
(57,378,cs),
(57,219,o),
(130,-12,o),
(414,-12,cs),
(577,-12,o),
(641,64,o),
(679,99,c),
(633,117,l)
);
},
{
closed = 1;
nodes = (
(669,194,o),
(585,66,o),
(414,66,cs),
(243,66,o),
(159,194,o),
(159,378,cs),
(159,562,o),
(243,687,o),
(414,687,cs),
(585,687,o),
(669,562,o),
(669,378,cs)
);
}
);
width = 854;
}
);
note = Q;
unicode = 81;
},
{
glyphname = R;
lastChange = "2024-04-24 11:56:40 +0000";
layers = (
{
hints = (
{
horizontal = 1;
place = (669,84);
type = Stem;
},
{
horizontal = 1;
place = (336,84);
type = Stem;
},
{
place = (574,93);
type = Stem;
},
{
place = (111,90);
type = Stem;
}
);
layerId = m01;
shapes = (
{
closed = 1;
nodes = (
(656,0,l),
(435,375,l),
(421,338,l),
(576,323,o),
(667,401,o),
(667,545,cs),
(667,677,o),
(581,753,o),
(431,753,cs),
(111,753,l),
(111,0,l),
(201,0,l),
(201,381,l),
(156,336,l),
(409,336,l),
(342,376,l),
(547,0,l)
);
},
{
closed = 1;
nodes = (
(156,420,l),
(201,375,l),
(201,714,l),
(156,669,l),
(428,669,ls),
(526,669,o),
(574,635,o),
(574,545,cs),
(574,454,o),
(535,420,o),
(428,420,cs)
);
}
);
width = 724;
}
);
note = R;
unicode = 82;
},
{
glyphname = Rcaron;
layers = (
{
hints = (
{
horizontal = 1;
place = (786,132);
type = Stem;
},
{
horizontal = 1;
place = (669,249);
type = Stem;
},
{
horizontal = 1;
place = (669,84);
type = Stem;
},
{
horizontal = 1;
place = (336,84);
type = Stem;
},
{
place = (574,93);
type = Stem;
},
{
place = (111,90);
type = Stem;
}
);
layerId = m01;
shapes = (
{
closed = 1;
nodes = (
(400,786,l),
(503,918,l),
(424,918,l),
(361,834,l),
(298,918,l),
(218,918,l),
(321,786,l)
);
},
{
closed = 1;
nodes = (
(656,0,l),
(458,336,l),
(590,336,o),
(667,413,o),
(667,545,cs),
(667,677,o),
(581,753,o),
(431,753,cs),
(111,753,l),
(111,0,l),
(201,0,l),
(201,336,l),
(364,336,l),
(547,0,l)
);
},
{
closed = 1;
nodes = (
(201,420,l),
(201,669,l),
(428,669,ls),
(526,669,o),
(574,635,o),
(574,545,cs),
(574,454,o),
(535,420,o),
(428,420,cs)
);
}
);
width = 724;
}
);
note = Rcaron;
unicode = 344;
},
{
glyphname = S;
kernLeft = S;
layers = (
{
hints = (
{
horizontal = 1;
place = (687,78);
type = Stem;
},
{
horizontal = 1;
place = (-12,81);
type = Stem;
},
{
place = (546,93);
type = Stem;
},
{
place = (87,96);
type = Stem;
}
);
layerId = m01;
shapes = (
{
closed = 1;
nodes = (
(57,273,l),
(63,171,o),
(96,-12,o),
(364,-12,cs),
(511,-12,o),
(639,52,o),
(639,210,cs),
(639,496,o),
(183,403,o),
(183,574,cs),
(183,667,o),
(258,687,o),
(343,687,cs),
(510,687,o),
(519,594,o),
(522,533,c),
(618,533,l),
(612,593,o),
(584,765,o),
(349,765,cs),
(149,765,o),
(87,660,o),
(87,562,cs),
(87,294,o),
(546,414,o),
(546,195,cs),
(546,110,o),
(457,69,o),
(364,69,cs),
(211,69,o),
(153,147,o),
(147,273,c)
);
}
);
width = 696;
}
);
note = S;
unicode = 83;
},
{
glyphname = Scaron;
kernLeft = S;
layers = (
{
hints = (
{
horizontal = 1;
place = (786,132);
type = Stem;
},
{
horizontal = 1;
place = (687,78);
type = Stem;
},
{
horizontal = 1;
place = (-12,81);
type = Stem;
},
{
place = (546,93);
type = Stem;
},
{
place = (87,96);
type = Stem;
}
);
layerId = m01;
shapes = (
{
closed = 1;
nodes = (
(388,786,l),
(491,918,l),
(412,918,l),
(349,834,l),
(286,918,l),
(206,918,l),
(309,786,l)
);
},
{
closed = 1;
nodes = (
(57,273,l),
(63,171,o),
(96,-12,o),
(364,-12,cs),
(511,-12,o),
(639,52,o),
(639,210,cs),
(639,496,o),
(183,403,o),
(183,574,cs),
(183,667,o),
(258,687,o),
(343,687,cs),
(510,687,o),
(519,594,o),
(522,533,c),
(618,533,l),
(612,593,o),
(584,765,o),
(349,765,cs),
(149,765,o),
(87,660,o),
(87,562,cs),
(87,294,o),
(546,414,o),
(546,195,cs),
(546,110,o),
(457,69,o),
(364,69,cs),
(211,69,o),
(153,147,o),
(147,273,c)
);
}
);
width = 696;
}
);
note = Scaron;
unicode = 352;
},
{
glyphname = T;
lastChange = "2024-04-24 11:56:50 +0000";
layers = (
{
hints = (
{
horizontal = 1;
place = (669,84);
type = Stem;
},
{
place = (288,90);
type = Stem;
}
);
layerId = m01;
shapes = (
{
closed = 1;
nodes = (
(378,0,l),
(378,714,l),
(346,669,l),
(642,669,l),
(642,753,l),
(24,753,l),
(24,669,l),
(322,669,l),
(288,714,l),
(288,0,l)
);
}
);
width = 660;
}
);
note = T;
unicode = 84;
},
{
glyphname = Tcaron;
layers = (
{
hints = (
{
horizontal = 1;
place = (786,132);
type = Stem;
},
{
horizontal = 1;
place = (669,249);
type = Stem;
},
{
horizontal = 1;
place = (669,84);
type = Stem;
},
{
place = (288,90);
type = Stem;
}
);
layerId = m01;
shapes = (
{
closed = 1;
nodes = (
(370,786,l),
(473,918,l),
(394,918,l),
(331,834,l),
(268,918,l),
(188,918,l),
(291,786,l)
);
},
{
closed = 1;
nodes = (
(378,0,l),
(378,669,l),
(642,669,l),
(642,753,l),
(24,753,l),
(24,669,l),
(288,669,l),
(288,0,l)
);
}
);
width = 660;
}
);
note = Tcaron;
unicode = 356;
},
{
glyphname = U;
layers = (
{
hints = (
{
horizontal = 1;
place = (-12,82);
type = Stem;
},
{
place = (588,99);
type = Stem;
},
{
place = (99,102);
type = Stem;
}
);
layerId = m01;
shapes = (
{
closed = 1;
nodes = (
(588,261,ls),
(588,94,o),
(473,70,o),
(393,70,cs),
(313,70,o),
(201,94,o),
(201,270,cs),
(201,753,l),
(99,753,l),
(99,288,ls),
(99,132,o),
(135,-12,o),
(393,-12,cs),
(651,-12,o),
(687,129,o),
(687,279,cs),
(687,753,l),
(588,753,l)
);
}
);
width = 786;
}
);
note = U;
unicode = 85;
},
{
glyphname = Ugrave;
layers = (
{
hints = (
{
horizontal = 1;
place = (786,120);
type = Stem;
},
{
horizontal = 1;
place = (-12,82);
type = Stem;
},
{
place = (588,99);
type = Stem;
},
{
place = (99,102);
type = Stem;
}
);
layerId = m01;
shapes = (
{
closed = 1;
nodes = (
(459,786,l),
(413,906,l),
(309,906,l),
(396,786,l)
);
},
{
closed = 1;
nodes = (
(588,261,ls),
(588,94,o),
(473,70,o),
(393,70,cs),
(313,70,o),
(201,94,o),
(201,270,cs),
(201,753,l),
(99,753,l),
(99,288,ls),
(99,132,o),
(135,-12,o),
(393,-12,cs),
(651,-12,o),
(687,129,o),
(687,279,cs),
(687,753,l),
(588,753,l)
);
}
);
width = 786;
}
);
note = Ugrave;
unicode = 217;
},
{
glyphname = Uacute;
layers = (
{
hints = (
{
horizontal = 1;
place = (786,120);
type = Stem;
},
{
horizontal = 1;
place = (-12,82);
type = Stem;
},
{
place = (588,99);
type = Stem;
},
{
place = (99,102);
type = Stem;
}
);
layerId = m01;
shapes = (
{
closed = 1;
nodes = (
(327,786,l),
(390,786,l),
(477,906,l),
(373,906,l)
);
},
{
closed = 1;
nodes = (
(588,261,ls),
(588,94,o),
(473,70,o),
(393,70,cs),
(313,70,o),
(201,94,o),
(201,270,cs),
(201,753,l),
(99,753,l),
(99,288,ls),
(99,132,o),
(135,-12,o),
(393,-12,cs),
(651,-12,o),
(687,129,o),
(687,279,cs),
(687,753,l),
(588,753,l)
);
}
);
width = 786;
}
);
note = Uacute;
unicode = 218;
},
{
glyphname = Ucircumflex;
layers = (
{
hints = (
{
horizontal = 1;
place = (870,48);
type = Stem;
},
{
horizontal = 1;
place = (786,132);
type = Stem;
},
{
horizontal = 1;
place = (-12,82);
type = Stem;
},
{
place = (588,99);
type = Stem;
},
{
place = (99,102);
type = Stem;
}
);
layerId = m01;
shapes = (
{
closed = 1;
nodes = (
(433,918,l),
(354,918,l),
(251,786,l),
(331,786,l),
(394,870,l),
(457,786,l),
(536,786,l)
);
},
{
closed = 1;
nodes = (
(588,261,ls),
(588,94,o),
(473,70,o),
(393,70,cs),
(313,70,o),
(201,94,o),
(201,270,cs),
(201,753,l),
(99,753,l),
(99,288,ls),
(99,132,o),
(135,-12,o),
(393,-12,cs),
(651,-12,o),
(687,129,o),
(687,279,cs),
(687,753,l),
(588,753,l)
);
}
);
width = 786;
}
);
note = Ucircumflex;
unicode = 219;
},
{
glyphname = Udieresis;
layers = (
{
hints = (
{
horizontal = 1;
place = (795,117);
type = Stem;
},
{
horizontal = 1;
place = (-12,82);
type = Stem;
},
{
place = (588,99);
type = Stem;
},
{
place = (446,99);
type = Stem;
},
{
place = (248,99);
type = Stem;
},
{
place = (99,102);
type = Stem;
}
);
layerId = m01;
shapes = (
{
closed = 1;
nodes = (
(248,795,l),
(347,795,l),
(347,912,l),
(248,912,l)
);
},
{
closed = 1;
nodes = (
(446,795,l),
(545,795,l),
(545,912,l),
(446,912,l)
);
},
{
closed = 1;
nodes = (
(588,261,ls),
(588,94,o),
(473,70,o),
(393,70,cs),
(313,70,o),
(201,94,o),
(201,270,cs),
(201,753,l),
(99,753,l),
(99,288,ls),
(99,132,o),
(135,-12,o),
(393,-12,cs),
(651,-12,o),
(687,129,o),
(687,279,cs),
(687,753,l),
(588,753,l)
);
}
);
width = 786;
}
);
note = Udieresis;
unicode = 220;
},
{
glyphname = Uring;
layers = (
{
hints = (
{
horizontal = 1;
place = (926,33);
type = Stem;
},
{
horizontal = 1;
place = (774,33);
type = Stem;
},
{
horizontal = 1;
place = (-12,82);
type = Stem;
},
{
place = (588,99);
type = Stem;
},
{
place = (450,33);
type = Stem;
},
{
place = (301,33);
type = Stem;
},
{
place = (99,102);
type = Stem;
}
);
layerId = m01;
shapes = (
{
closed = 1;
nodes = (
(335,959,o),
(301,913,o),
(301,866,cs),
(301,819,o),
(335,774,o),
(393,774,cs),
(451,774,o),
(483,820,o),
(483,866,cs),
(483,913,o),
(451,959,o),
(393,959,cs)
);
},
{
closed = 1;
nodes = (
(431,926,o),
(450,895,o),
(450,866,cs),
(450,838,o),
(431,807,o),
(393,807,cs),
(353,807,o),
(334,837,o),
(334,866,cs),
(334,895,o),
(353,926,o),
(393,926,cs)
);
},
{
closed = 1;
nodes = (
(588,261,ls),
(588,94,o),
(473,70,o),
(393,70,cs),
(313,70,o),
(201,94,o),
(201,270,cs),
(201,753,l),
(99,753,l),
(99,288,ls),
(99,132,o),
(135,-12,o),
(393,-12,cs),
(651,-12,o),
(687,129,o),
(687,279,cs),
(687,753,l),
(588,753,l)
);
}
);
width = 786;
}
);
note = Uring;
unicode = 366;
},
{
glyphname = V;
lastChange = "2024-04-24 11:56:55 +0000";
layers = (
{
hints = (
{
horizontal = 1;
place = (0,753);
type = Stem;
},
{
place = (18,663);
type = Stem;
}
);
layerId = m01;
shapes = (
{
closed = 1;
nodes = (
(318,0,l),
(393,0,l),
(681,753,l),
(584,753,l),
(343,101,l),
(376,101,l),
(118,753,l),
(18,753,l)
);
}
);
width = 711;
}
);
note = V;
unicode = 86;
},
{
glyphname = W;
lastChange = "2024-04-24 11:57:01 +0000";
layers = (
{
hints = (
{
horizontal = 1;
place = (0,753);
type = Stem;
},
{
place = (18,1014);
type = Stem;
}
);
layerId = m01;
shapes = (
{
closed = 1;
nodes = (
(719,0,l),
(792,0,l),
(1032,753,l),
(935,753,l),
(745,103,l),
(772,103,l),
(556,753,l),
(500,753,l),
(302,103,l),
(329,103,l),
(119,753,l),
(18,753,l),
(278,0,l),
(352,0,l),
(543,615,l),
(516,615,l)
);
}
);
width = 1050;
}
);
note = W;
unicode = 87;
},
{
glyphname = X;
lastChange = "2024-04-24 11:57:48 +0000";
layers = (
{
hints = (
{
horizontal = 1;
place = (0,753);
type = Stem;
},
{
place = (18,703);
type = Stem;
}
);
layerId = m01;
shapes = (
{
closed = 1;
nodes = (
(608,0,l),
(721,0,l),
(399,427,l),
(399,377,l),
(678,753,l),
(563,753,l),
(352,439,l),
(389,439,l),
(166,753,l),
(53,753,l),
(334,381,l),
(334,428,l),
(18,0,l),
(133,0,l),
(380,365,l),
(347,365,l)
);
}
);
width = 745;
}
);
note = X;
unicode = 88;
},
{
glyphname = Y;
kernLeft = Y;
kernRight = Y;
lastChange = "2024-04-24 11:58:10 +0000";
layers = (
{
hints = (
{
horizontal = 1;
place = (0,753);
type = Stem;
},
{
place = (320,90);
type = Stem;
}
);
layerId = m01;
shapes = (
{
closed = 1;
nodes = (
(410,0,l),
(410,334,l),
(384,282,l),
(712,753,l),
(599,753,l),
(340,359,l),
(390,359,l),
(131,753,l),
(18,753,l),
(346,282,l),
(320,334,l),
(320,0,l)
);
}
);
width = 730;
}
);
note = Y;
unicode = 89;
},
{
glyphname = Yacute;
kernLeft = Y;
kernRight = Y;
layers = (
{
hints = (
{
horizontal = 1;
place = (786,120);
type = Stem;
},
{
place = (320,90);
type = Stem;
}
);
layerId = m01;
shapes = (
{
closed = 1;
nodes = (
(311,786,l),
(374,786,l),
(461,906,l),
(357,906,l)
);
},
{
closed = 1;
nodes = (
(410,0,l),
(410,319,l),
(712,753,l),
(599,753,l),
(365,397,l),
(131,753,l),
(18,753,l),
(320,319,l),
(320,0,l)
);
}
);
width = 730;
}
);
note = Yacute;
unicode = 221;
},
{
glyphname = Z;
lastChange = "2024-04-24 11:58:20 +0000";
layers = (
{
hints = (
{
horizontal = 1;
place = (669,84);
type = Stem;
},
{
horizontal = 1;
place = (0,84);
type = Stem;
},
{
place = (93,518);
type = Stem;
},
{
place = (75,542);
type = Stem;
}
);
layerId = m01;
shapes = (
{
closed = 1;
nodes = (
(617,0,l),
(617,84,l),
(137,84,l),
(155,48,l),
(611,666,l),
(611,753,l),
(93,753,l),
(93,669,l),
(552,669,l),
(534,705,l),
(75,87,l),
(75,0,l)
);
}
);
width = 683;
}
);
note = Z;
unicode = 90;
},
{
glyphname = Zacute;
layers = (
{
hints = (
{
horizontal = 1;
place = (786,120);
type = Stem;
},
{
horizontal = 1;
place = (669,237);
type = Stem;
},
{
horizontal = 1;
place = (669,84);
type = Stem;
},
{
horizontal = 1;
place = (0,84);
type = Stem;
},
{
place = (93,518);
type = Stem;
},
{
place = (75,542);
type = Stem;
}
);
layerId = m01;
shapes = (
{
closed = 1;
nodes = (
(312,786,l),
(375,786,l),
(462,906,l),
(358,906,l)
);
},
{
closed = 1;
nodes = (
(617,0,l),
(617,84,l),
(182,84,l),
(611,666,l),
(611,753,l),
(93,753,l),
(93,669,l),
(507,669,l),
(75,87,l),
(75,0,l)
);
}
);
width = 683;
}
);
note = Zacute;
unicode = 377;
},
{
glyphname = Zdotaccent;
layers = (
{
hints = (
{
horizontal = 1;
place = (786,126);
type = Stem;
},
{
horizontal = 1;
place = (669,84);
type = Stem;
},
{
horizontal = 1;
place = (0,84);
type = Stem;
},
{
place = (308,105);
type = Stem;
}
);
layerId = m01;
shapes = (
{
closed = 1;
nodes = (
(308,786,l),
(413,786,l),
(413,912,l),
(308,912,l)
);
},
{
closed = 1;
nodes = (
(617,0,l),
(617,84,l),
(182,84,l),
(611,666,l),
(611,753,l),
(93,753,l),
(93,669,l),
(507,669,l),
(75,87,l),
(75,0,l)
);
}
);
width = 683;
}
);
note = Zdotaccent;
unicode = 379;
},
{
glyphname = Zcaron;
layers = (
{
hints = (
{
horizontal = 1;
place = (786,132);
type = Stem;
},
{
horizontal = 1;
place = (669,249);
type = Stem;
},
{
horizontal = 1;
place = (669,84);
type = Stem;
},
{
horizontal = 1;
place = (0,84);
type = Stem;
},
{
place = (93,518);
type = Stem;
},
{
place = (75,542);
type = Stem;
}
);
layerId = m01;
shapes = (
{
closed = 1;
nodes = (
(393,786,l),
(496,918,l),
(417,918,l),
(354,834,l),
(291,918,l),
(211,918,l),
(314,786,l)
);
},
{
closed = 1;
nodes = (
(617,0,l),
(617,84,l),
(182,84,l),
(611,666,l),
(611,753,l),
(93,753,l),
(93,669,l),
(507,669,l),
(75,87,l),
(75,0,l)
);
}
);
width = 683;
}
);
note = Zcaron;
unicode = 381;
},
{
glyphname = AE;
layers = (
{
hints = (
{
horizontal = 1;
place = (669,84);
type = Stem;
},
{
horizontal = 1;
place = (345,84);
type = Stem;
},
{
horizontal = 1;
place = (231,84);
type = Stem;
},
{
horizontal = 1;
place = (0,315);
type = Stem;
},
{
horizontal = 1;
place = (0,84);
type = Stem;
},
{
place = (416,90);
type = Stem;
}
);
layerId = m01;
shapes = (
{
closed = 1;
nodes = (
(416,231,l),
(416,0,l),
(878,0,l),
(878,84,l),
(506,84,l),
(506,345,l),
(807,345,l),
(807,429,l),
(506,429,l),
(506,669,l),
(878,669,l),
(878,753,l),
(308,753,l),
(18,0,l),
(106,0,l),
(195,231,l)
);
},
{
closed = 1;
nodes = (
(416,315,l),
(227,315,l),
(360,669,l),
(416,669,l)
);
}
);
width = 923;
}
);
note = AE;
unicode = 198;
},
{
glyphname = Eth;
layers = (
{
hints = (
{
horizontal = 1;
place = (669,84);
type = Stem;
},
{
horizontal = 1;
place = (334,84);
type = Stem;
},
{
horizontal = 1;
place = (0,84);
type = Stem;
},
{
place = (611,105);
type = Stem;
},
{
place = (111,280);
type = Stem;
},
{
place = (111,90);
type = Stem;
}
);
layerId = m01;
shapes = (
{
closed = 1;
nodes = (
(111,0,l),
(387,0,ls),
(650,0,o),
(716,204,o),
(716,377,cs),
(716,550,o),
(650,753,o),
(387,753,cs),
(111,753,l),
(111,418,l),
(45,418,l),
(45,334,l),
(111,334,l)
);
},
{
closed = 1;
nodes = (
(201,84,l),
(201,334,l),
(391,334,l),
(391,418,l),
(201,418,l),
(201,669,l),
(387,669,ls),
(561,669,o),
(611,553,o),
(611,377,cs),
(611,201,o),
(561,84,o),
(387,84,cs)
);
}
);
width = 775;
}
);
note = Eth;
unicode = 208;
},
{
glyphname = Oslash;
kernLeft = O;
kernRight = O;
layers = (
{
hints = (
{
horizontal = 1;
place = (687,78);
type = Stem;
},
{
horizontal = 1;
place = (-12,78);
type = Stem;
},
{
place = (669,102);
type = Stem;
},
{
place = (57,102);
type = Stem;
}
);
layerId = m01;
shapes = (
{
closed = 1;
nodes = (
(696,-12,o),
(771,219,o),
(771,378,cs),
(771,477,o),
(742,603,o),
(652,683,c),
(706,764,l),
(661,795,l),
(608,716,l),
(558,746,o),
(495,765,o),
(414,765,cs),
(132,765,o),
(57,537,o),
(57,378,cs),
(57,278,o),
(86,150,o),
(177,69,c),
(120,-17,l),
(163,-48,l),
(220,37,l),
(270,7,o),
(333,-12,o),
(414,-12,cs)
);
},
{
closed = 1;
nodes = (
(159,562,o),
(243,687,o),
(414,687,cs),
(473,687,o),
(522,672,o),
(561,645,c),
(228,146,l),
(182,201,o),
(159,282,o),
(159,378,cs)
);
},
{
closed = 1;
nodes = (
(355,66,o),
(306,81,o),
(268,109,c),
(601,607,l),
(647,553,o),
(669,473,o),
(669,378,cs),
(669,194,o),
(585,66,o),
(414,66,cs)
);
}
);
width = 828;
}
);
note = Oslash;
unicode = 216;
},
{
glyphname = Thorn;
layers = (
{
hints = (
{
horizontal = 1;
place = (540,81);
type = Stem;
},
{
horizontal = 1;
place = (186,81);
type = Stem;
},
{
place = (557,96);
type = Stem;
},
{
place = (111,90);
type = Stem;
}
);
layerId = m01;
shapes = (
{
closed = 1;
nodes = (
(201,186,l),
(416,186,ls),
(572,186,o),
(653,276,o),
(653,408,cs),
(653,540,o),
(572,621,o),
(416,621,cs),
(201,621,l),
(201,753,l),
(111,753,l),
(111,0,l),
(201,0,l)
);
},
{
closed = 1;
nodes = (
(201,267,l),
(201,540,l),
(414,540,ls),
(512,540,o),
(557,498,o),
(557,408,cs),
(557,317,o),
(512,267,o),
(414,267,cs)
);
}
);
width = 698;
}
);
note = Thorn;
unicode = 222;
},
{
glyphname = Lslash;
layers = (
{
hints = (
{
horizontal = 1;
place = (0,84);
type = Stem;
},
{
place = (111,279);
type = Stem;
},
{
place = (111,90);
type = Stem;
}
);
layerId = m01;
shapes = (
{
closed = 1;
nodes = (
(111,0,l),
(567,0,l),
(567,84,l),
(201,84,l),
(201,382,l),
(390,458,l),
(390,533,l),
(201,457,l),
(201,753,l),
(111,753,l),
(111,421,l),
(15,383,l),
(15,308,l),
(111,346,l)
);
}
);
width = 630;
}
);
note = Lslash;
unicode = 321;
},
{
glyphname = a;
kernLeft = a;
lastChange = "2024-04-24 12:16:00 +0000";
layers = (
{
hints = (
{
horizontal = 1;
place = (465,69);
type = Stem;
},
{
horizontal = 1;
place = (257,54);
type = Stem;
},
{
horizontal = 1;
place = (-12,86);
type = Stem;
},
{
horizontal = 1;
place = (-12,72);
type = Stem;
},
{
place = (378,84);
type = Stem;
},
{
place = (372,90);
type = Stem;
},
{
place = (51,99);
type = Stem;
},
{
place = (45,90);
type = Stem;
}
);
layerId = m01;
shapes = (
{
closed = 1;
nodes = (
(530,-12,o),
(539,-5,o),
(539,-5,c),
(539,76,l),
(539,76,o),
(528,74,o),
(503,74,cs),
(488,74,o),
(462,79,o),
(462,122,cs),
(462,363,ls),
(462,478,o),
(375,534,o),
(262,534,cs),
(96,534,o),
(51,429,o),
(51,360,c),
(150,360,l),
(150,421,o),
(188,465,o),
(262,465,cs),
(313,465,o),
(372,441,o),
(372,363,cs),
(372,276,l),
(387,312,l),
(327,305,o),
(45,321,o),
(45,140,cs),
(45,60,o),
(92,-12,o),
(190,-12,cs),
(294,-12,o),
(366,44,o),
(390,145,c),
(377,118,l),
(380,46,o),
(399,-12,o),
(483,-12,cs)
);
},
{
closed = 1;
nodes = (
(182,60,o),
(135,76,o),
(135,140,cs),
(135,250,o),
(324,256,o),
(395,258,c),
(372,290,l),
(372,200,ls),
(372,131,o),
(303,60,o),
(228,60,cs)
);
}
);
width = 545;
},
{
associatedMasterId = m01;
hints = (
{
horizontal = 1;
place = (465,69);
type = Stem;
},
{
horizontal = 1;
place = (257,54);
type = Stem;
},
{
horizontal = 1;
place = (-12,86);
type = Stem;
},
{
horizontal = 1;
place = (-12,72);
type = Stem;
},
{
place = (378,84);
type = Stem;
},
{
place = (372,90);
type = Stem;
},
{
place = (51,99);
type = Stem;
},
{
place = (45,90);
type = Stem;
}
);
layerId = "34CDCAA2-D660-4FF7-A288-0194458CD640";
name = "24. Apr. 24, 14:01";
shapes = (
{
closed = 1;
nodes = (
(530,-12,o),
(539,-5,o),
(539,-5,c),
(539,76,l),
(539,76,o),
(528,74,o),
(503,74,cs),
(488,74,o),
(462,79,o),
(462,122,cs),
(462,363,ls),
(462,478,o),
(375,534,o),
(262,534,cs),
(96,534,o),
(51,429,o),
(51,360,c),
(150,360,l),
(150,421,o),
(188,465,o),
(262,465,cs),
(313,465,o),
(374,441,o),
(372,363,cs),
(372,266,l),
(387,312,l),
(327,305,o),
(45,321,o),
(45,140,cs),
(45,60,o),
(92,-12,o),
(190,-12,cs),
(301,-12,o),
(378,75,o),
(378,112,cs),
(378,66,o),
(394,-12,o),
(483,-12,cs)
);
},
{
closed = 1;
nodes = (
(182,60,o),
(135,76,o),
(135,140,cs),
(135,250,o),
(324,256,o),
(395,258,c),
(372,302,l),
(372,200,ls),
(372,131,o),
(303,60,o),
(228,60,cs)
);
}
);
visible = 1;
width = 545;
}
);
note = a;
unicode = 97;
},
{
glyphname = agrave;
kernLeft = a;
layers = (
{
hints = (
{
horizontal = 1;
place = (612,153);
type = Stem;
},
{
horizontal = 1;
place = (465,69);
type = Stem;
},
{
horizontal = 1;
place = (257,54);
type = Stem;
},
{
horizontal = 1;
place = (-12,86);
type = Stem;
},
{
horizontal = 1;
place = (-12,72);
type = Stem;
},
{
place = (378,84);
type = Stem;
},
{
place = (372,90);
type = Stem;
},
{
place = (51,99);
type = Stem;
},
{
place = (45,90);
type = Stem;
}
);
layerId = m01;
shapes = (
{
closed = 1;
nodes = (
(312,612,l),
(263,765,l),
(159,765,l),
(246,612,l)
);
},
{
closed = 1;
nodes = (
(530,-12,o),
(539,-5,o),
(539,-5,c),
(539,76,l),
(539,76,o),
(528,74,o),
(503,74,cs),
(488,74,o),
(462,79,o),
(462,122,cs),
(462,363,ls),
(462,478,o),
(375,534,o),
(262,534,cs),
(96,534,o),
(51,429,o),
(51,360,c),
(150,360,l),
(150,421,o),
(188,465,o),
(262,465,cs),
(313,465,o),
(374,441,o),
(372,363,cs),
(372,311,l),
(290,306,o),
(45,309,o),
(45,140,cs),
(45,60,o),
(92,-12,o),
(190,-12,cs),
(301,-12,o),
(378,75,o),
(378,112,cs),
(378,66,o),
(394,-12,o),
(483,-12,cs)
);
},
{
closed = 1;
nodes = (
(182,60,o),
(135,76,o),
(135,140,cs),
(135,240,o),
(290,254,o),
(372,257,c),
(372,200,ls),
(372,131,o),
(303,60,o),
(228,60,cs)
);
}
);
width = 545;
}
);
note = agrave;
unicode = 224;
},
{
glyphname = aacute;
kernLeft = a;
layers = (
{
hints = (
{
horizontal = 1;
place = (612,153);
type = Stem;
},
{
horizontal = 1;
place = (465,69);
type = Stem;
},
{
horizontal = 1;
place = (257,54);
type = Stem;
},
{
horizontal = 1;
place = (-12,86);
type = Stem;
},
{
horizontal = 1;
place = (-12,72);
type = Stem;
},
{
place = (378,84);
type = Stem;
},
{
place = (372,90);
type = Stem;
},
{
place = (51,99);
type = Stem;
},
{
place = (45,90);
type = Stem;
}
);
layerId = m01;
shapes = (
{
closed = 1;
nodes = (
(216,612,l),
(282,612,l),
(369,765,l),
(265,765,l)
);
},
{
closed = 1;
nodes = (
(530,-12,o),
(539,-5,o),
(539,-5,c),
(539,76,l),
(539,76,o),
(528,74,o),
(503,74,cs),
(488,74,o),
(462,79,o),
(462,122,cs),
(462,363,ls),
(462,478,o),
(375,534,o),
(262,534,cs),
(96,534,o),
(51,429,o),
(51,360,c),
(150,360,l),
(150,421,o),
(188,465,o),
(262,465,cs),
(313,465,o),
(374,441,o),
(372,363,cs),
(372,311,l),
(290,306,o),
(45,309,o),
(45,140,cs),
(45,60,o),
(92,-12,o),
(190,-12,cs),
(301,-12,o),
(378,75,o),
(378,112,cs),
(378,66,o),
(394,-12,o),
(483,-12,cs)
);
},
{
closed = 1;
nodes = (
(182,60,o),
(135,76,o),
(135,140,cs),
(135,240,o),
(290,254,o),
(372,257,c),
(372,200,ls),
(372,131,o),
(303,60,o),
(228,60,cs)
);
}
);
width = 545;
}
);
note = aacute;
unicode = 225;
},
{
glyphname = acircumflex;
kernLeft = a;
layers = (
{
hints = (
{
horizontal = 1;
place = (696,48);
type = Stem;
},
{
horizontal = 1;
place = (612,132);
type = Stem;
},
{
horizontal = 1;
place = (465,69);
type = Stem;
},
{
horizontal = 1;
place = (257,54);
type = Stem;
},
{
horizontal = 1;
place = (-12,86);
type = Stem;
},
{
horizontal = 1;
place = (-12,72);
type = Stem;
},
{
place = (378,84);
type = Stem;
},
{
place = (372,90);
type = Stem;
},
{
place = (51,99);
type = Stem;
},
{
place = (45,90);
type = Stem;
}
);
layerId = m01;
shapes = (
{
closed = 1;
nodes = (
(298,744,l),
(219,744,l),
(116,612,l),
(196,612,l),
(259,696,l),
(322,612,l),
(401,612,l)
);
},
{
closed = 1;
nodes = (
(530,-12,o),
(539,-5,o),
(539,-5,c),
(539,76,l),
(539,76,o),
(528,74,o),
(503,74,cs),
(488,74,o),
(462,79,o),
(462,122,cs),
(462,363,ls),
(462,478,o),
(375,534,o),
(262,534,cs),
(96,534,o),
(51,429,o),
(51,360,c),
(150,360,l),
(150,421,o),
(188,465,o),
(262,465,cs),
(313,465,o),
(374,441,o),
(372,363,cs),
(372,311,l),
(290,306,o),
(45,309,o),
(45,140,cs),
(45,60,o),
(92,-12,o),
(190,-12,cs),
(301,-12,o),
(378,75,o),
(378,112,cs),
(378,66,o),
(394,-12,o),
(483,-12,cs)
);
},
{
closed = 1;
nodes = (
(182,60,o),
(135,76,o),
(135,140,cs),
(135,240,o),
(290,254,o),
(372,257,c),
(372,200,ls),
(372,131,o),
(303,60,o),
(228,60,cs)
);
}
);
width = 545;
}
);
note = acircumflex;
unicode = 226;
},
{
glyphname = atilde;
kernLeft = a;
layers = (
{
hints = (
{
horizontal = 1;
place = (633,89);
type = Stem;
},
{
horizontal = 1;
place = (465,69);
type = Stem;
},
{
horizontal = 1;
place = (257,54);
type = Stem;
},
{
horizontal = 1;
place = (-12,86);
type = Stem;
},
{
horizontal = 1;
place = (-12,72);
type = Stem;
},
{
place = (378,84);
type = Stem;
},
{
place = (372,90);
type = Stem;
},
{
place = (51,99);
type = Stem;
},
{
place = (45,90);
type = Stem;
}
);
layerId = m01;
shapes = (
{
closed = 1;
nodes = (
(331,722,l),
(331,601,o),
(157,863,o),
(122,633,c),
(182,633,l),
(182,753,o),
(358,493,o),
(391,722,c)
);
},
{
closed = 1;
nodes = (
(530,-12,o),
(539,-5,o),
(539,-5,c),
(539,76,l),
(539,76,o),
(528,74,o),
(503,74,cs),
(488,74,o),
(462,79,o),
(462,122,cs),
(462,363,ls),
(462,478,o),
(375,534,o),
(262,534,cs),
(96,534,o),
(51,429,o),
(51,360,c),
(150,360,l),
(150,421,o),
(188,465,o),
(262,465,cs),
(313,465,o),
(374,441,o),
(372,363,cs),
(372,311,l),
(290,306,o),
(45,309,o),
(45,140,cs),
(45,60,o),
(92,-12,o),
(190,-12,cs),
(301,-12,o),
(378,75,o),
(378,112,cs),
(378,66,o),
(394,-12,o),
(483,-12,cs)
);
},
{
closed = 1;
nodes = (
(182,60,o),
(135,76,o),
(135,140,cs),
(135,240,o),
(290,254,o),
(372,257,c),
(372,200,ls),
(372,131,o),
(303,60,o),
(228,60,cs)
);
}
);
width = 545;
}
);
note = atilde;
unicode = 227;
},
{
glyphname = adieresis;
kernLeft = a;
layers = (
{
hints = (
{
horizontal = 1;
place = (624,117);
type = Stem;
},
{
horizontal = 1;
place = (465,69);
type = Stem;
},
{
horizontal = 1;
place = (257,54);
type = Stem;
},
{
horizontal = 1;
place = (-12,86);
type = Stem;
},
{
horizontal = 1;
place = (-12,72);
type = Stem;
},
{
place = (378,84);
type = Stem;
},
{
place = (372,90);
type = Stem;
},
{
place = (309,99);
type = Stem;
},
{
place = (111,99);
type = Stem;
},
{
place = (51,99);
type = Stem;
},
{
place = (45,90);
type = Stem;
}
);
layerId = m01;
shapes = (
{
closed = 1;
nodes = (
(111,624,l),
(210,624,l),
(210,741,l),
(111,741,l)
);
},
{
closed = 1;
nodes = (
(309,624,l),
(408,624,l),
(408,741,l),
(309,741,l)
);
},
{
closed = 1;
nodes = (
(530,-12,o),
(539,-5,o),
(539,-5,c),
(539,76,l),
(539,76,o),
(528,74,o),
(503,74,cs),
(488,74,o),
(462,79,o),
(462,122,cs),
(462,363,ls),
(462,478,o),
(375,534,o),
(262,534,cs),
(96,534,o),
(51,429,o),
(51,360,c),
(150,360,l),
(150,421,o),
(188,465,o),
(262,465,cs),
(313,465,o),
(374,441,o),
(372,363,cs),
(372,311,l),
(290,306,o),
(45,309,o),
(45,140,cs),
(45,60,o),
(92,-12,o),
(190,-12,cs),
(301,-12,o),
(378,75,o),
(378,112,cs),
(378,66,o),
(394,-12,o),
(483,-12,cs)
);
},
{
closed = 1;
nodes = (
(182,60,o),
(135,76,o),
(135,140,cs),
(135,240,o),
(290,254,o),
(372,257,c),
(372,200,ls),
(372,131,o),
(303,60,o),
(228,60,cs)
);
}
);
width = 545;
}
);
note = adieresis;
unicode = 228;
},
{
glyphname = aring;
kernLeft = a;
layers = (
{
hints = (
{
horizontal = 1;
place = (741,33);
type = Stem;
},
{
horizontal = 1;
place = (589,33);
type = Stem;
},
{
horizontal = 1;
place = (465,69);
type = Stem;
},
{
horizontal = 1;
place = (257,54);
type = Stem;
},
{
horizontal = 1;
place = (-12,86);
type = Stem;
},
{
horizontal = 1;
place = (-12,72);
type = Stem;
},
{
place = (378,84);
type = Stem;
},
{
place = (372,90);
type = Stem;
},
{
place = (319,33);
type = Stem;
},
{
place = (170,33);
type = Stem;
},
{
place = (51,99);
type = Stem;
},
{
place = (45,90);
type = Stem;
}
);
layerId = m01;
shapes = (
{
closed = 1;
nodes = (
(204,774,o),
(170,728,o),
(170,681,cs),
(170,634,o),
(204,589,o),
(262,589,cs),
(320,589,o),
(352,635,o),
(352,681,cs),
(352,728,o),
(320,774,o),
(262,774,cs)
);
},
{
closed = 1;
nodes = (
(300,741,o),
(319,710,o),
(319,681,cs),
(319,653,o),
(300,622,o),
(262,622,cs),
(222,622,o),
(203,652,o),
(203,681,cs),
(203,710,o),
(222,741,o),
(262,741,cs)
);
},
{
closed = 1;
nodes = (
(530,-12,o),
(539,-5,o),
(539,-5,c),
(539,76,l),
(539,76,o),
(528,74,o),
(503,74,cs),
(488,74,o),
(462,79,o),
(462,122,cs),
(462,363,ls),
(462,478,o),
(375,534,o),
(262,534,cs),
(96,534,o),
(51,429,o),
(51,360,c),
(150,360,l),
(150,421,o),
(188,465,o),
(262,465,cs),
(313,465,o),
(374,441,o),
(372,363,cs),
(372,311,l),
(290,306,o),
(45,309,o),
(45,140,cs),
(45,60,o),
(92,-12,o),
(190,-12,cs),
(301,-12,o),
(378,75,o),
(378,112,cs),
(378,66,o),
(394,-12,o),
(483,-12,cs)
);
},
{
closed = 1;
nodes = (
(182,60,o),
(135,76,o),
(135,140,cs),
(135,240,o),
(290,254,o),
(372,257,c),
(372,200,ls),
(372,131,o),
(303,60,o),
(228,60,cs)
);
}
);
width = 545;
}
);
note = aring;
unicode = 229;
},
{
glyphname = aogonek;
layers = (
{
hints = (
{
horizontal = 1;
place = (465,69);
type = Stem;
},
{
horizontal = 1;
place = (257,54);
type = Stem;
},
{
horizontal = 1;
place = (-12,72);
type = Stem;
},
{
horizontal = 1;
place = (-243,75);
type = Stem;
},
{
place = (378,84);
type = Stem;
},
{
place = (372,90);
type = Stem;
},
{
place = (361,82);
type = Stem;
},
{
place = (51,99);
type = Stem;
},
{
place = (45,90);
type = Stem;
}
);
layerId = m01;
shapes = (
{
closed = 1;
nodes = (
(449,-14,ls),
(273,-147,o),
(390,-283,o),
(543,-232,c),
(543,-158,l),
(461,-194,o),
(373,-127,o),
(527,-14,cs),
(539,-5,l),
(539,76,l),
(539,76,o),
(528,74,o),
(503,74,cs),
(488,74,o),
(462,79,o),
(462,122,cs),
(462,363,ls),
(462,478,o),
(375,534,o),
(262,534,cs),
(96,534,o),
(51,429,o),
(51,360,c),
(150,360,l),
(150,421,o),
(188,465,o),
(262,465,cs),
(313,465,o),
(374,441,o),
(372,363,cs),
(372,311,l),
(290,306,o),
(45,309,o),
(45,140,cs),
(45,60,o),
(92,-12,o),
(190,-12,cs),
(301,-12,o),
(378,75,o),
(378,112,cs),
(378,71,o),
(391,5,o),
(455,-9,c)
);
},
{
closed = 1;
nodes = (
(182,60,o),
(135,76,o),
(135,140,cs),
(135,240,o),
(290,254,o),
(372,257,c),
(372,200,ls),
(372,131,o),
(303,60,o),
(228,60,cs)
);
}
);
width = 545;
}
);
note = aogonek;
unicode = 261;
},
{
glyphname = b;
lastChange = "2024-04-24 12:00:10 +0000";
layers = (
{
hints = (
{
horizontal = 1;
place = (465,69);
type = Stem;
},
{
horizontal = 1;
place = (0,768);
type = Stem;
},
{
horizontal = 1;
place = (0,60);
type = Stem;
},
{
horizontal = 1;
place = (-12,72);
type = Stem;
},
{
place = (476,96);
type = Stem;
},
{
place = (90,90);
type = Stem;
},
{
place = (90,84);
type = Stem;
}
);
layerId = m01;
shapes = (
{
closed = 1;
nodes = (
(180,139,ls),
(166,118,ls),
(164,116,o),
(223,-12,o),
(341,-12,cs),
(497,-12,o),
(572,132,o),
(572,273,cs),
(572,414,o),
(497,534,o),
(341,534,cs),
(279,534,o),
(210,497,o),
(175,436,c),
(180,397,l),
(180,768,l),
(90,768,l),
(90,0,l),
(180,0,l)
);
},
{
closed = 1;
nodes = (
(252,60,o),
(174,124,o),
(174,263,cs),
(174,388,o),
(244,465,o),
(325,465,cs),
(438,465,o),
(476,369,o),
(476,273,cs),
(476,177,o),
(438,60,o),
(333,60,cs)
);
}
);
width = 617;
}
);
note = b;
unicode = 98;
},
{
glyphname = c;
kernLeft = c;
layers = (
{
hints = (
{
horizontal = 1;
place = (465,69);
type = Stem;
},
{
horizontal = 1;
place = (-12,69);
type = Stem;
},
{
place = (399,94);
type = Stem;
},
{
place = (45,93);
type = Stem;
}
);
layerId = m01;
shapes = (
{
closed = 1;
nodes = (
(399,186,l),
(393,117,o),
(370,57,o),
(274,57,cs),
(157,57,o),
(138,171,o),
(138,261,cs),
(138,351,o),
(148,465,o),
(274,465,cs),
(379,465,o),
(388,395,o),
(394,354,c),
(488,354,l),
(473,455,o),
(411,534,o),
(274,534,cs),
(127,534,o),
(45,408,o),
(45,261,cs),
(45,114,o),
(127,-12,o),
(274,-12,cs),
(403,-12,o),
(481,54,o),
(493,186,c)
);
}
);
width = 532;
}
);
note = c;
unicode = 99;
},
{
glyphname = ccedilla;
kernLeft = c;
layers = (
{
hints = (
{
horizontal = 1;
place = (465,69);
type = Stem;
},
{
horizontal = 1;
place = (-11,68);
type = Stem;
},
{
horizontal = 1;
place = (-109,166);
type = Stem;
},
{
horizontal = 1;
place = (-109,36);
type = Stem;
},
{
horizontal = 1;
place = (-244,46);
type = Stem;
},
{
place = (399,94);
type = Stem;
},
{
place = (321,58);
type = Stem;
},
{
place = (45,93);
type = Stem;
}
);
layerId = m01;
shapes = (
{
closed = 1;
nodes = (
(355,-244,o),
(379,-196,o),
(379,-149,cs),
(379,-102,o),
(346,-53,o),
(244,-80,c),
(290,-12,l),
(409,-6,o),
(482,60,o),
(493,186,c),
(399,186,l),
(393,117,o),
(370,57,o),
(274,57,cs),
(157,57,o),
(138,171,o),
(138,261,cs),
(138,351,o),
(148,465,o),
(274,465,cs),
(379,465,o),
(388,395,o),
(394,354,c),
(488,354,l),
(473,455,o),
(411,534,o),
(274,534,cs),
(127,534,o),
(45,408,o),
(45,261,cs),
(45,123,o),
(117,4,o),
(248,-11,c),
(193,-93,l),
(214,-114,l),
(256,-107,o),
(321,-99,o),
(321,-150,cs),
(321,-189,o),
(280,-198,o),
(258,-198,cs),
(224,-198,o),
(196,-190,o),
(177,-180,c),
(159,-212,l),
(159,-212,o),
(189,-244,o),
(273,-244,cs)
);
}
);
width = 532;
}
);
note = ccedilla;
unicode = 231;
},
{
glyphname = cacute;
kernLeft = c;
layers = (
{
hints = (
{
horizontal = 1;
place = (612,153);
type = Stem;
},
{
horizontal = 1;
place = (465,69);
type = Stem;
},
{
horizontal = 1;
place = (-12,69);
type = Stem;
},
{
place = (399,94);
type = Stem;
},
{
place = (45,93);
type = Stem;
}
);
layerId = m01;
shapes = (
{
closed = 1;
nodes = (
(207,612,l),
(273,612,l),
(360,765,l),
(256,765,l)
);
},
{
closed = 1;
nodes = (
(399,186,l),
(393,117,o),
(370,57,o),
(274,57,cs),
(157,57,o),
(138,171,o),
(138,261,cs),
(138,351,o),
(148,465,o),
(274,465,cs),
(379,465,o),
(388,395,o),
(394,354,c),
(488,354,l),
(473,455,o),
(411,534,o),
(274,534,cs),
(127,534,o),
(45,408,o),
(45,261,cs),
(45,114,o),
(127,-12,o),
(274,-12,cs),
(403,-12,o),
(481,54,o),
(493,186,c)
);
}
);
width = 532;
}
);
note = cacute;
unicode = 263;
},
{
glyphname = ccaron;
kernLeft = c;
layers = (
{
hints = (
{
horizontal = 1;
place = (612,132);
type = Stem;
},
{
horizontal = 1;
place = (465,69);
type = Stem;
},
{
horizontal = 1;
place = (-12,69);
type = Stem;
},
{
place = (399,94);
type = Stem;
},
{
place = (45,93);
type = Stem;
}
);
layerId = m01;
shapes = (
{
closed = 1;
nodes = (
(313,612,l),
(416,744,l),
(337,744,l),
(274,660,l),
(211,744,l),
(131,744,l),
(234,612,l)
);
},
{
closed = 1;
nodes = (
(399,186,l),
(393,117,o),
(370,57,o),
(274,57,cs),
(157,57,o),
(138,171,o),
(138,261,cs),
(138,351,o),
(148,465,o),
(274,465,cs),
(379,465,o),
(388,395,o),
(394,354,c),
(488,354,l),
(473,455,o),
(411,534,o),
(274,534,cs),
(127,534,o),
(45,408,o),
(45,261,cs),
(45,114,o),
(127,-12,o),
(274,-12,cs),
(403,-12,o),
(481,54,o),
(493,186,c)
);
}
);
width = 532;
}
);
note = ccaron;
unicode = 269;
},
{
glyphname = d;
lastChange = "2024-04-24 12:15:01 +0000";
layers = (
{
hints = (
{
horizontal = 1;
place = (465,69);
type = Stem;
},
{
horizontal = 1;
place = (0,768);
type = Stem;
},
{
horizontal = 1;
place = (0,60);
type = Stem;
},
{
horizontal = 1;
place = (-12,72);
type = Stem;
},
{
place = (447,84);
type = Stem;
},
{
place = (441,90);
type = Stem;
},
{
place = (45,99);
type = Stem;
}
);
layerId = m01;
shapes = (
{
closed = 1;
nodes = (
(170,60,o),
(144,192,o),
(144,273,cs),
(144,354,o),
(178,466,o),
(282,465,cs),
(396,464,o),
(447,388,o),
(447,263,cs),
(447,136,o),
(396,60,o),
(282,60,cs)
);
},
{
closed = 1;
nodes = (
(458,383,l),
(441,484,o),
(374,534,o),
(282,534,cs),
(128,534,o),
(45,414,o),
(45,273,cs),
(45,132,o),
(120,-12,o),
(282,-12,cs),
(374,-12,o),
(441,38,o),
(455,139,c),
(441,139,l),
(441,0,l),
(531,0,l),
(531,768,l),
(441,768,l),
(441,383,l)
);
}
);
width = 621;
},
{
associatedMasterId = m01;
hints = (
{
horizontal = 1;
place = (465,69);
type = Stem;
},
{
horizontal = 1;
place = (0,768);
type = Stem;
},
{
horizontal = 1;
place = (0,60);
type = Stem;
},
{
horizontal = 1;
place = (-12,72);
type = Stem;
},
{
place = (447,84);
type = Stem;
},
{
place = (441,90);
type = Stem;
},
{
place = (45,99);
type = Stem;
}
);
layerId = "65F76593-1A10-480D-BFFD-F04C4ECBE72B";
name = "24. Apr. 24, 14:14";
shapes = (
{
closed = 1;
nodes = (
(441,0,l),
(531,0,l),
(531,768,l),
(441,768,l),
(441,442,l),
(441,442,o),
(402,534,o),
(282,534,cs),
(128,534,o),
(45,414,o),
(45,273,cs),
(45,132,o),
(120,-12,o),
(282,-12,cs),
(397,-12,o),
(441,85,o),
(441,94,cs)
);
},
{
closed = 1;
nodes = (
(170,60,o),
(144,192,o),
(144,273,cs),
(144,354,o),
(178,466,o),
(282,465,cs),
(396,464,o),
(447,388,o),
(447,263,cs),
(447,136,o),
(396,60,o),
(282,60,cs)
);
}
);
visible = 1;
width = 621;
}
);
note = d;
unicode = 100;
},
{
glyphname = dcaron;
layers = (
{
hints = (
{
horizontal = 1;
place = (812,114);
type = Stem;
},
{
horizontal = 1;
place = (656,112);
type = Stem;
},
{
horizontal = 1;
place = (656,51);
type = Stem;
},
{
horizontal = 1;
place = (465,69);
type = Stem;
},
{
horizontal = 1;
place = (0,60);
type = Stem;
},
{
horizontal = 1;
place = (-12,72);
type = Stem;
},
{
place = (633,51);
type = Stem;
},
{
place = (570,114);
type = Stem;
},
{
place = (447,84);
type = Stem;
},
{
place = (441,90);
type = Stem;
},
{
place = (45,99);
type = Stem;
}
);
layerId = m01;
shapes = (
{
closed = 1;
nodes = (
(684,926,l),
(570,926,l),
(570,812,l),
(633,812,l),
(633,719,o),
(600,707,o),
(570,707,c),
(570,656,l),
(608,656,o),
(684,661,o),
(684,839,cs)
);
},
{
closed = 1;
nodes = (
(441,0,l),
(531,0,l),
(531,768,l),
(441,768,l),
(441,442,l),
(441,442,o),
(402,534,o),
(282,534,cs),
(128,534,o),
(45,414,o),
(45,273,cs),
(45,132,o),
(120,-12,o),
(282,-12,cs),
(397,-12,o),
(441,85,o),
(441,94,cs)
);
},
{
closed = 1;
nodes = (
(170,60,o),
(144,192,o),
(144,273,cs),
(144,354,o),
(178,466,o),
(282,465,cs),
(396,464,o),
(447,388,o),
(447,263,cs),
(447,136,o),
(396,60,o),
(282,60,cs)
);
}
);
width = 696;
}
);
note = dcaron;
unicode = 271;
},
{
glyphname = e;
kernLeft = e;
lastChange = "2024-04-24 12:02:23 +0000";
layers = (
{
hints = (
{
horizontal = 1;
place = (468,66);
type = Stem;
},
{
horizontal = 1;
place = (258,63);
type = Stem;
},
{
horizontal = 1;
place = (-12,69);
type = Stem;
},
{
place = (417,99);
type = Stem;
},
{
place = (45,96);
type = Stem;
},
{
place = (45,95);
type = Stem;
}
);
layerId = m01;
shapes = (
{
closed = 1;
nodes = (
(423,-12,o),
(499,75,o),
(505,168,c),
(414,168,l),
(411,126,o),
(385,57,o),
(283,57,cs),
(150,57,o),
(136,192,o),
(141,286,c),
(95,258,l),
(516,258,l),
(513,400,o),
(435,534,o),
(280,534,cs),
(133,534,o),
(45,411,o),
(45,261,cs),
(45,111,o),
(136,-12,o),
(283,-12,cs)
);
},
{
closed = 1;
nodes = (
(385,468,o),
(423,373,o),
(417,292,c),
(462,321,l),
(96,321,l),
(142,296,l),
(135,363,o),
(168,468,o),
(280,468,cs)
);
}
);
width = 555;
}
);
note = e;
unicode = 101;
},
{
glyphname = egrave;
kernLeft = e;
layers = (
{
hints = (
{
horizontal = 1;
place = (612,153);
type = Stem;
},
{
horizontal = 1;
place = (468,66);
type = Stem;
},
{
horizontal = 1;
place = (258,63);
type = Stem;
},
{
horizontal = 1;
place = (-12,69);
type = Stem;
},
{
place = (417,99);
type = Stem;
},
{
place = (45,96);
type = Stem;
},
{
place = (45,95);
type = Stem;
}
);
layerId = m01;
shapes = (
{
closed = 1;
nodes = (
(321,612,l),
(272,765,l),
(168,765,l),
(255,612,l)
);
},
{
closed = 1;
nodes = (
(423,-12,o),
(499,75,o),
(505,168,c),
(414,168,l),
(411,126,o),
(385,57,o),
(283,57,cs),
(163,57,o),
(140,167,o),
(140,258,c),
(516,258,l),
(513,400,o),
(435,534,o),
(280,534,cs),
(133,534,o),
(45,411,o),
(45,261,cs),
(45,111,o),
(136,-12,o),
(283,-12,cs)
);
},
{
closed = 1;
nodes = (
(373,468,o),
(413,394,o),
(417,321,c),
(141,321,l),
(144,386,o),
(181,468,o),
(280,468,cs)
);
}
);
width = 555;
}
);
note = egrave;
unicode = 232;
},
{
glyphname = eacute;
kernLeft = e;
layers = (
{
hints = (
{
horizontal = 1;
place = (612,153);
type = Stem;
},
{
horizontal = 1;
place = (468,66);
type = Stem;
},
{
horizontal = 1;
place = (258,63);
type = Stem;
},
{
horizontal = 1;
place = (-12,69);
type = Stem;
},
{
place = (417,99);
type = Stem;
},
{
place = (45,96);
type = Stem;
},
{
place = (45,95);
type = Stem;
}
);
layerId = m01;
shapes = (
{
closed = 1;
nodes = (
(219,612,l),
(285,612,l),
(372,765,l),
(268,765,l)
);
},
{
closed = 1;
nodes = (
(423,-12,o),
(499,75,o),
(505,168,c),
(414,168,l),
(411,126,o),
(385,57,o),
(283,57,cs),
(163,57,o),
(140,167,o),
(140,258,c),
(516,258,l),
(513,400,o),
(435,534,o),
(280,534,cs),
(133,534,o),
(45,411,o),
(45,261,cs),
(45,111,o),
(136,-12,o),
(283,-12,cs)
);
},
{
closed = 1;
nodes = (
(373,468,o),
(413,394,o),
(417,321,c),
(141,321,l),
(144,386,o),
(181,468,o),
(280,468,cs)
);
}
);
width = 555;
}
);
note = eacute;
unicode = 233;
},
{
glyphname = ecircumflex;
kernLeft = e;
layers = (
{
hints = (
{
horizontal = 1;
place = (696,48);
type = Stem;
},
{
horizontal = 1;
place = (612,132);
type = Stem;
},
{
horizontal = 1;
place = (468,66);
type = Stem;
},
{
horizontal = 1;
place = (258,63);
type = Stem;
},
{
horizontal = 1;
place = (-12,69);
type = Stem;
},
{
place = (418,98);
type = Stem;
},
{
place = (45,97);
type = Stem;
},
{
place = (45,95);
type = Stem;
}
);
layerId = m01;
shapes = (
{
closed = 1;
nodes = (
(320,744,l),
(241,744,l),
(138,612,l),
(218,612,l),
(281,696,l),
(344,612,l),
(423,612,l)
);
},
{
closed = 1;
nodes = (
(423,-12,o),
(499,75,o),
(505,168,c),
(414,168,l),
(411,126,o),
(385,57,o),
(283,57,cs),
(163,57,o),
(140,167,o),
(140,258,c),
(516,258,l),
(513,400,o),
(435,534,o),
(280,534,cs),
(133,534,o),
(45,411,o),
(45,261,cs),
(45,111,o),
(136,-12,o),
(283,-12,cs)
);
},
{
closed = 1;
nodes = (
(374,468,o),
(414,394,o),
(418,321,c),
(142,321,l),
(145,386,o),
(182,468,o),
(281,468,cs)
);
}
);
width = 555;
}
);
note = ecircumflex;
unicode = 234;
},
{
glyphname = edieresis;
kernLeft = e;
layers = (
{
hints = (
{
horizontal = 1;
place = (624,117);
type = Stem;
},
{
horizontal = 1;
place = (468,66);
type = Stem;
},
{
horizontal = 1;
place = (258,63);
type = Stem;
},
{
horizontal = 1;
place = (-12,69);
type = Stem;
},
{
place = (417,99);
type = Stem;
},
{
place = (324,99);
type = Stem;
},
{
place = (126,99);
type = Stem;
},
{
place = (45,96);
type = Stem;
},
{
place = (45,95);
type = Stem;
}
);
layerId = m01;
shapes = (
{
closed = 1;
nodes = (
(126,624,l),
(225,624,l),
(225,741,l),
(126,741,l)
);
},
{
closed = 1;
nodes = (
(324,624,l),
(423,624,l),
(423,741,l),
(324,741,l)
);
},
{
closed = 1;
nodes = (
(423,-12,o),
(499,75,o),
(505,168,c),
(414,168,l),
(411,126,o),
(385,57,o),
(283,57,cs),
(163,57,o),
(140,167,o),
(140,258,c),
(516,258,l),
(513,400,o),
(435,534,o),
(280,534,cs),
(133,534,o),
(45,411,o),
(45,261,cs),
(45,111,o),
(136,-12,o),
(283,-12,cs)
);
},
{
closed = 1;
nodes = (
(373,468,o),
(413,394,o),
(417,321,c),
(141,321,l),
(144,386,o),
(181,468,o),
(280,468,cs)
);
}
);
width = 555;
}
);
note = edieresis;
unicode = 235;
},
{
glyphname = eogonek;
layers = (
{
hints = (
{
horizontal = 1;
place = (468,66);
type = Stem;
},
{
horizontal = 1;
place = (258,63);
type = Stem;
},
{
horizontal = 1;
place = (-12,69);
type = Stem;
},
{
horizontal = 1;
place = (-243,75);
type = Stem;
},
{
place = (417,99);
type = Stem;
},
{
place = (173,82);
type = Stem;
},
{
place = (45,96);
type = Stem;
},
{
place = (45,95);
type = Stem;
}
);
layerId = m01;
shapes = (
{
closed = 1;
nodes = (
(261,-12,ls),
(85,-145,o),
(202,-283,o),
(355,-232,c),
(355,-158,l),
(273,-194,o),
(185,-125,o),
(339,-12,cs),
(348,-5,l),
(447,18,o),
(500,91,o),
(505,168,c),
(414,168,l),
(411,126,o),
(385,57,o),
(283,57,cs),
(163,57,o),
(140,167,o),
(140,258,c),
(516,258,l),
(513,400,o),
(435,534,o),
(280,534,cs),
(133,534,o),
(45,411,o),
(45,261,cs),
(45,118,o),
(127,0,o),
(262,-11,c)
);
},
{
closed = 1;
nodes = (
(373,468,o),
(413,394,o),
(417,321,c),
(141,321,l),
(144,386,o),
(181,468,o),
(280,468,cs)
);
}
);
width = 555;
}
);
note = eogonek;
unicode = 281;
},
{
glyphname = ecaron;
layers = (
{
hints = (
{
horizontal = 1;
place = (612,132);
type = Stem;
},
{
horizontal = 1;
place = (468,66);
type = Stem;
},
{
horizontal = 1;
place = (258,63);
type = Stem;
},
{
horizontal = 1;
place = (-12,69);
type = Stem;
},
{
place = (417,99);
type = Stem;
},
{
place = (45,96);
type = Stem;
},
{
place = (45,95);
type = Stem;
}
);
layerId = m01;
shapes = (
{
closed = 1;
nodes = (
(319,612,l),
(422,744,l),
(343,744,l),
(280,660,l),
(217,744,l),
(137,744,l),
(240,612,l)
);
},
{
closed = 1;
nodes = (
(423,-12,o),
(499,75,o),
(505,168,c),
(414,168,l),
(411,126,o),
(385,57,o),
(283,57,cs),
(163,57,o),
(140,167,o),
(140,258,c),
(516,258,l),
(513,400,o),
(435,534,o),
(280,534,cs),
(133,534,o),
(45,411,o),
(45,261,cs),
(45,111,o),
(136,-12,o),
(283,-12,cs)
);
},
{
closed = 1;
nodes = (
(373,468,o),
(413,394,o),
(417,321,c),
(141,321,l),
(144,386,o),
(181,468,o),
(280,468,cs)
);
}
);
width = 555;
}
);
note = ecaron;
unicode = 283;
},
{
glyphname = f;
lastChange = "2024-04-24 12:02:41 +0000";
layers = (
{
hints = (
{
horizontal = 1;
place = (693,84);
type = Stem;
},
{
horizontal = 1;
place = (444,78);
type = Stem;
},
{
place = (111,90);
type = Stem;
}
);
layerId = m01;
shapes = (
{
closed = 1;
nodes = (
(111,504,l),
(137,522,l),
(30,522,l),
(30,444,l),
(128,444,l),
(111,464,l),
(111,0,l),
(201,0,l),
(201,464,l),
(178,444,l),
(300,444,l),
(300,522,l),
(175,522,l),
(201,504,l),
(201,649,ls),
(201,680,o),
(221,693,o),
(255,693,cs),
(286,693,o),
(300,690,o),
(300,690,c),
(300,770,l),
(300,770,o),
(282,777,o),
(232,777,cs),
(98,777,o),
(111,675,o),
(111,649,cs)
);
}
);
width = 330;
}
);
note = f;
unicode = 102;
},
{
glyphname = g;
lastChange = "2024-04-24 12:15:52 +0000";
layers = (
{
hints = (
{
horizontal = 1;
place = (465,69);
type = Stem;
},
{
horizontal = 1;
place = (430,92);
type = Stem;
},
{
horizontal = 1;
place = (-12,72);
type = Stem;
},
{
horizontal = 1;
place = (-232,66);
type = Stem;
},
{
place = (452,84);
type = Stem;
},
{
place = (446,90);
type = Stem;
},
{
place = (45,96);
type = Stem;
}
);
layerId = m01;
shapes = (
{
closed = 1;
nodes = (
(171,60,o),
(141,183,o),
(141,273,cs),
(141,363,o),
(171,465,o),
(279,465,cs),
(390,465,o),
(452,388,o),
(452,263,cs),
(452,124,o),
(390,60,o),
(279,60,cs)
);
},
{
closed = 1;
nodes = (
(458,406,l),
(429,487,o),
(358,534,o),
(279,534,cs),
(117,534,o),
(45,414,o),
(45,273,cs),
(45,132,o),
(117,-12,o),
(279,-12,cs),
(358,-12,o),
(429,35,o),
(458,107,c),
(446,130,l),
(446,-3,ls),
(446,-92,o),
(429,-166,o),
(297,-166,cs),
(187,-166,o),
(163,-112,o),
(161,-52,c),
(63,-52,l),
(75,-195,o),
(174,-232,o),
(303,-232,cs),
(479,-232,o),
(536,-165,o),
(536,-3,cs),
(536,522,l),
(446,522,l),
(446,392,l)
);
}
);
width = 626;
},
{
associatedMasterId = m01;
hints = (
{
horizontal = 1;
place = (465,69);
type = Stem;
},
{
horizontal = 1;
place = (430,92);
type = Stem;
},
{
horizontal = 1;
place = (-12,72);
type = Stem;
},
{
horizontal = 1;
place = (-232,66);
type = Stem;
},
{
place = (452,84);
type = Stem;
},
{
place = (446,90);
type = Stem;
},
{
place = (45,96);
type = Stem;
}
);
layerId = "D1197994-2241-4A83-B8E2-799FA7B56F8C";
name = "24. Apr. 24, 14:10";
shapes = (
{
closed = 1;
nodes = (
(446,-3,ls),
(446,-92,o),
(429,-166,o),
(297,-166,cs),
(187,-166,o),
(163,-112,o),
(161,-52,c),
(63,-52,l),
(75,-195,o),
(174,-232,o),
(303,-232,cs),
(479,-232,o),
(536,-165,o),
(536,-3,cs),
(536,522,l),
(446,522,l),
(446,430,l),
(446,430,o),
(402,534,o),
(279,534,cs),
(117,534,o),
(45,414,o),
(45,273,cs),
(45,132,o),
(117,-12,o),
(279,-12,cs),
(394,-12,o),
(446,76,o),
(446,85,cs)
);
},
{
closed = 1;
nodes = (
(171,60,o),
(141,183,o),
(141,273,cs),
(141,363,o),
(171,465,o),
(279,465,cs),
(390,465,o),
(452,388,o),
(452,263,cs),
(452,124,o),
(390,60,o),
(279,60,cs)
);
}
);
visible = 1;
width = 626;
}
);
note = g;
unicode = 103;
},
{
glyphname = h;
lastChange = "2024-04-24 12:10:24 +0000";
layers = (
{
hints = (
{
horizontal = 1;
place = (453,81);
type = Stem;
},
{
horizontal = 1;
place = (0,768);
type = Stem;
},
{
place = (417,90);
type = Stem;
},
{
place = (90,90);
type = Stem;
}
);
layerId = m01;
shapes = (
{
closed = 1;
nodes = (
(180,297,ls),
(180,389,o),
(248,453,o),
(319,453,cs),
(408,453,o),
(417,372,o),
(417,292,cs),
(417,0,l),
(507,0,l),
(507,274,ls),
(507,405,o),
(501,534,o),
(349,534,cs),
(262,534,o),
(200,481,o),
(157,368,c),
(180,368,l),
(180,768,l),
(90,768,l),
(90,0,l),
(180,0,l)
);
}
);
width = 588;
},
{
associatedMasterId = m01;
hints = (
{
horizontal = 1;
place = (453,81);
type = Stem;
},
{
horizontal = 1;
place = (0,768);
type = Stem;
},
{
place = (417,90);
type = Stem;
},
{
place = (90,90);
type = Stem;
}
);
layerId = "1764B8C7-1559-47F7-AD46-08076B7E8DE1";
name = "24. Apr. 24, 14:10";
shapes = (
{
closed = 1;
nodes = (
(180,297,ls),
(180,389,o),
(248,453,o),
(319,453,cs),
(408,453,o),
(417,372,o),
(417,292,cs),
(417,0,l),
(507,0,l),
(507,274,ls),
(507,405,o),
(501,534,o),
(349,534,cs),
(212,534,o),
(168,398,o),
(157,368,c),
(180,368,l),
(180,768,l),
(90,768,l),
(90,0,l),
(180,0,l)
);
}
);
visible = 1;
width = 588;
}
);
note = h;
unicode = 104;
},
{
glyphname = i;
layers = (
{
hints = (
{
horizontal = 1;
place = (651,117);
type = Stem;
},
{
place = (90,90);
type = Stem;
}
);
layerId = m01;
shapes = (
{
closed = 1;
nodes = (
(180,651,l),
(180,768,l),
(90,768,l),
(90,651,l)
);
},
{
closed = 1;
nodes = (
(180,522,l),
(90,522,l),
(90,0,l),
(180,0,l)
);
}
);
width = 270;
}
);
note = i;
unicode = 105;
},
{
glyphname = igrave;
layers = (
{
hints = (
{
horizontal = 1;
place = (612,153);
type = Stem;
},
{
place = (90,90);
type = Stem;
}
);
layerId = m01;
shapes = (
{
closed = 1;
nodes = (
(191,612,l),
(142,765,l),
(38,765,l),
(125,612,l)
);
},
{
closed = 1;
nodes = (
(180,522,l),
(90,522,l),
(90,0,l),
(180,0,l)
);
}
);
width = 270;
}
);
note = igrave;
unicode = 236;
},
{
glyphname = iacute;
layers = (
{
hints = (
{
horizontal = 1;
place = (612,153);
type = Stem;
},
{
place = (90,90);
type = Stem;
}
);
layerId = m01;
shapes = (
{
closed = 1;
nodes = (
(80,612,l),
(146,612,l),
(233,765,l),
(129,765,l)
);
},
{
closed = 1;
nodes = (
(180,522,l),
(90,522,l),
(90,0,l),
(180,0,l)
);
}
);
width = 270;
}
);
note = iacute;
unicode = 237;
},
{
glyphname = icircumflex;
layers = (
{
hints = (
{
horizontal = 1;
place = (696,48);
type = Stem;
},
{
horizontal = 1;
place = (612,132);
type = Stem;
},
{
place = (90,90);
type = Stem;
}
);
layerId = m01;
shapes = (
{
closed = 1;
nodes = (
(174,744,l),
(95,744,l),
(-8,612,l),
(72,612,l),
(135,696,l),
(198,612,l),
(277,612,l)
);
},
{
closed = 1;
nodes = (
(180,522,l),
(90,522,l),
(90,0,l),
(180,0,l)
);
}
);
width = 270;
}
);
note = icircumflex;
unicode = 238;
},
{
glyphname = idieresis;
layers = (
{
hints = (
{
horizontal = 1;
place = (624,117);
type = Stem;
},
{
place = (184,99);
type = Stem;
},
{
place = (90,90);
type = Stem;
},
{
place = (-14,99);
type = Stem;
}
);
layerId = m01;
shapes = (
{
closed = 1;
nodes = (
(-14,624,l),
(85,624,l),
(85,741,l),
(-14,741,l)
);
},
{
closed = 1;
nodes = (
(184,624,l),
(283,624,l),
(283,741,l),
(184,741,l)
);
},
{
closed = 1;
nodes = (
(180,522,l),
(90,522,l),
(90,0,l),
(180,0,l)
);
}
);
width = 270;
}
);
note = idieresis;
unicode = 239;
},
{
glyphname = j;
layers = (
{
hints = (
{
horizontal = 1;
place = (651,117);
type = Stem;
},
{
horizontal = 1;
place = (-232,86);
type = Stem;
},
{
place = (99,90);
type = Stem;
}
);
layerId = m01;
shapes = (
{
closed = 1;
nodes = (
(189,651,l),
(189,768,l),
(99,768,l),
(99,651,l)
);
},
{
closed = 1;
nodes = (
(189,522,l),
(99,522,l),
(99,-101,ls),
(99,-129,o),
(85,-146,o),
(51,-146,cs),
(24,-146,o),
(15,-144,o),
(15,-144,c),
(15,-225,l),
(15,-225,o),
(22,-232,o),
(68,-232,cs),
(196,-232,o),
(189,-130,o),
(189,-104,cs)
);
}
);
width = 279;
}
);
note = j;
unicode = 106;
},
{
glyphname = k;
lastChange = "2024-04-24 12:03:09 +0000";
layers = (
{
hints = (
{
horizontal = 1;
place = (0,768);
type = Stem;
},
{
horizontal = 1;
place = (0,522);
type = Stem;
},
{
place = (90,90);
type = Stem;
}
);
layerId = m01;
shapes = (
{
closed = 1;
nodes = (
(430,0,l),
(537,0,l),
(302,350,l),
(295,281,l),
(536,522,l),
(426,522,l),
(148,244,l),
(180,231,l),
(180,768,l),
(90,768,l),
(90,0,l),
(180,0,l),
(180,192,l),
(148,141,l),
(279,267,l),
(238,290,l)
);
}
);
width = 552;
}
);
note = k;
unicode = 107;
},
{
glyphname = l;
layers = (
{
hints = (
{
horizontal = 1;
place = (0,768);
type = Stem;
},
{
place = (90,90);
type = Stem;
}
);
layerId = m01;
shapes = (
{
closed = 1;
nodes = (
(90,0,l),
(180,0,l),
(180,768,l),
(90,768,l)
);
}
);
width = 270;
}
);
note = l;
unicode = 108;
},
{
glyphname = m;
lastChange = "2024-04-24 12:16:28 +0000";
layers = (
{
hints = (
{
horizontal = 1;
place = (453,81);
type = Stem;
},
{
horizontal = 1;
place = (453,69);
type = Stem;
},
{
horizontal = 1;
place = (0,522);
type = Stem;
},
{
place = (711,90);
type = Stem;
},
{
place = (402,90);
type = Stem;
},
{
place = (402,76);
type = Stem;
},
{
place = (90,90);
type = Stem;
}
);
layerId = m01;
shapes = (
{
closed = 1;
nodes = (
(180,279,ls),
(180,371,o),
(230,453,o),
(310,453,cs),
(405,453,o),
(402,369,o),
(402,292,cs),
(402,0,l),
(492,0,l),
(492,310,ls),
(492,342,o),
(504,453,o),
(622,453,cs),
(717,453,o),
(711,369,o),
(711,301,cs),
(711,0,l),
(801,0,l),
(801,286,ls),
(801,411,o),
(795,534,o),
(643,534,cs),
(566,534,o),
(488,472,o),
(461,385,c),
(486,385,l),
(469,489,o),
(421,534,o),
(328,534,cs),
(250,534,o),
(177,463,o),
(165,377,c),
(180,377,l),
(180,522,l),
(90,522,l),
(90,0,l),
(180,0,l)
);
}
);
width = 882;
},
{
associatedMasterId = m01;
hints = (
{
horizontal = 1;
place = (453,81);
type = Stem;
},
{
horizontal = 1;
place = (453,69);
type = Stem;
},
{
horizontal = 1;
place = (0,522);
type = Stem;
},
{
place = (711,90);
type = Stem;
},
{
place = (402,90);
type = Stem;
},
{
place = (402,76);
type = Stem;
},
{
place = (90,90);
type = Stem;
}
);
layerId = "E33175F8-E1CF-4A7B-85EC-583DE3F7F81A";
name = "24. Apr. 24, 14:08";
shapes = (
{
closed = 1;
nodes = (
(180,279,ls),
(180,371,o),
(230,453,o),
(310,453,cs),
(405,453,o),
(402,369,o),
(402,292,cs),
(402,0,l),
(492,0,l),
(492,310,ls),
(492,342,o),
(504,453,o),
(622,453,cs),
(717,453,o),
(711,369,o),
(711,301,cs),
(711,0,l),
(801,0,l),
(801,286,ls),
(801,411,o),
(795,534,o),
(643,534,cs),
(529,534,o),
(478,422,o),
(478,422,c),
(478,442,o),
(445,534,o),
(328,534,cs),
(234,534,o),
(180,437,o),
(180,416,cs),
(180,522,l),
(90,522,l),
(90,0,l),
(180,0,l)
);
}
);
visible = 1;
width = 882;
}
);
note = m;
unicode = 109;
},
{
glyphname = n;
kernLeft = n;
lastChange = "2024-04-24 12:08:17 +0000";
layers = (
{
hints = (
{
horizontal = 1;
place = (453,81);
type = Stem;
},
{
horizontal = 1;
place = (453,69);
type = Stem;
},
{
horizontal = 1;
place = (0,522);
type = Stem;
},
{
place = (417,90);
type = Stem;
},
{
place = (90,90);
type = Stem;
}
);
layerId = m01;
shapes = (
{
closed = 1;
nodes = (
(180,303,ls),
(180,395,o),
(248,453,o),
(319,453,cs),
(408,453,o),
(417,372,o),
(417,292,cs),
(417,0,l),
(507,0,l),
(507,274,ls),
(507,402,o),
(505,534,o),
(349,534,cs),
(265,534,o),
(191,472,o),
(156,374,c),
(180,374,l),
(180,522,l),
(90,522,l),
(90,0,l),
(180,0,l)
);
}
);
width = 588;
},
{
associatedMasterId = m01;
hints = (
{
horizontal = 1;
place = (453,81);
type = Stem;
},
{
horizontal = 1;
place = (453,69);
type = Stem;
},
{
horizontal = 1;
place = (0,522);
type = Stem;
},
{
place = (417,90);
type = Stem;
},
{
place = (90,90);
type = Stem;
}
);
layerId = "6C179FDA-E893-4939-B0A3-6BFCE610EEA7";
name = "24. Apr. 24, 14:08";
shapes = (
{
closed = 1;
nodes = (
(180,303,ls),
(180,395,o),
(248,453,o),
(319,453,cs),
(408,453,o),
(417,372,o),
(417,292,cs),
(417,0,l),
(507,0,l),
(507,274,ls),
(507,402,o),
(505,534,o),
(349,534,cs),
(235,534,o),
(174,426,o),
(156,374,c),
(180,374,l),
(180,522,l),
(90,522,l),
(90,0,l),
(180,0,l)
);
}
);
visible = 1;
width = 588;
}
);
note = n;
unicode = 110;
},
{
glyphname = ntilde;
kernLeft = n;
layers = (
{
hints = (
{
horizontal = 1;
place = (633,89);
type = Stem;
},
{
horizontal = 1;
place = (453,81);
type = Stem;
},
{
horizontal = 1;
place = (453,69);
type = Stem;
},
{
horizontal = 1;
place = (0,522);
type = Stem;
},
{
place = (417,90);
type = Stem;
},
{
place = (90,90);
type = Stem;
}
);
layerId = m01;
shapes = (
{
closed = 1;
nodes = (
(373,722,l),
(373,601,o),
(199,863,o),
(164,633,c),
(224,633,l),
(224,753,o),
(400,493,o),
(433,722,c)
);
},
{
closed = 1;
nodes = (
(180,303,ls),
(180,395,o),
(248,453,o),
(319,453,cs),
(408,453,o),
(417,372,o),
(417,292,cs),
(417,0,l),
(507,0,l),
(507,274,ls),
(507,402,o),
(505,534,o),
(349,534,cs),
(249,534,o),
(180,434,o),
(180,419,cs),
(180,522,l),
(90,522,l),
(90,0,l),
(180,0,l)
);
}
);
width = 588;
}
);
note = ntilde;
unicode = 241;
},
{
glyphname = ncaron;
kernLeft = n;
layers = (
{
hints = (
{
horizontal = 1;
place = (612,132);
type = Stem;
},
{
horizontal = 1;
place = (453,81);
type = Stem;
},
{
horizontal = 1;
place = (453,69);
type = Stem;
},
{
horizontal = 1;
place = (0,522);
type = Stem;
},
{
place = (417,90);
type = Stem;
},
{
place = (90,90);
type = Stem;
}
);
layerId = m01;
shapes = (
{
closed = 1;
nodes = (
(349,612,l),
(452,744,l),
(373,744,l),
(310,660,l),
(247,744,l),
(167,744,l),
(270,612,l)
);
},
{
closed = 1;
nodes = (
(180,303,ls),
(180,395,o),
(248,453,o),
(319,453,cs),
(408,453,o),
(417,372,o),
(417,292,cs),
(417,0,l),
(507,0,l),
(507,274,ls),
(507,402,o),
(505,534,o),
(349,534,cs),
(249,534,o),
(180,434,o),
(180,419,cs),
(180,522,l),
(90,522,l),
(90,0,l),
(180,0,l)
);
}
);
width = 588;
}
);
note = ncaron;
unicode = 328;
},
{
glyphname = o;
kernLeft = o;
layers = (
{
hints = (
{
horizontal = 1;
place = (465,69);
type = Stem;
},
{
horizontal = 1;
place = (-12,69);
type = Stem;
},
{
place = (443,96);
type = Stem;
},
{
place = (45,96);
type = Stem;
}
);
layerId = m01;
shapes = (
{
closed = 1;
nodes = (
(45,114,o),
(136,-12,o),
(292,-12,cs),
(448,-12,o),
(539,114,o),
(539,261,cs),
(539,408,o),
(448,534,o),
(292,534,cs),
(136,534,o),
(45,408,o),
(45,261,cs)
);
},
{
closed = 1;
nodes = (
(421,465,o),
(443,351,o),
(443,261,cs),
(443,171,o),
(421,57,o),
(292,57,cs),
(163,57,o),
(141,171,o),
(141,261,cs),
(141,351,o),
(163,465,o),
(292,465,cs)
);
}
);
width = 584;
}
);
note = o;
unicode = 111;
},
{
glyphname = ograve;
kernLeft = o;
layers = (
{
hints = (
{
horizontal = 1;
place = (612,153);
type = Stem;
},
{
horizontal = 1;
place = (465,69);
type = Stem;
},
{
horizontal = 1;
place = (-12,69);
type = Stem;
},
{
place = (443,96);
type = Stem;
},
{
place = (45,96);
type = Stem;
}
);
layerId = m01;
shapes = (
{
closed = 1;
nodes = (
(341,612,l),
(292,765,l),
(188,765,l),
(275,612,l)
);
},
{
closed = 1;
nodes = (
(45,114,o),
(136,-12,o),
(292,-12,cs),
(448,-12,o),
(539,114,o),
(539,261,cs),
(539,408,o),
(448,534,o),
(292,534,cs),
(136,534,o),
(45,408,o),
(45,261,cs)
);
},
{
closed = 1;
nodes = (
(421,465,o),
(443,351,o),
(443,261,cs),
(443,171,o),
(421,57,o),
(292,57,cs),
(163,57,o),
(141,171,o),
(141,261,cs),
(141,351,o),
(163,465,o),
(292,465,cs)
);
}
);
width = 584;
}
);
note = ograve;
unicode = 242;
},
{
glyphname = oacute;
kernLeft = o;
layers = (
{
hints = (
{
horizontal = 1;
place = (612,153);
type = Stem;
},
{
horizontal = 1;
place = (465,69);
type = Stem;
},
{
horizontal = 1;
place = (-12,69);
type = Stem;
},
{
place = (443,96);
type = Stem;
},
{
place = (45,96);
type = Stem;
}
);
layerId = m01;
shapes = (
{
closed = 1;
nodes = (
(234,612,l),
(300,612,l),
(387,765,l),
(283,765,l)
);
},
{
closed = 1;
nodes = (
(45,114,o),
(136,-12,o),
(292,-12,cs),
(448,-12,o),
(539,114,o),
(539,261,cs),
(539,408,o),
(448,534,o),
(292,534,cs),
(136,534,o),
(45,408,o),
(45,261,cs)
);
},
{
closed = 1;
nodes = (
(421,465,o),
(443,351,o),
(443,261,cs),
(443,171,o),
(421,57,o),
(292,57,cs),
(163,57,o),
(141,171,o),
(141,261,cs),
(141,351,o),
(163,465,o),
(292,465,cs)
);
}
);
width = 584;
}
);
note = oacute;
unicode = 243;
},
{
glyphname = ocircumflex;
kernLeft = o;
layers = (
{
hints = (
{
horizontal = 1;
place = (696,48);
type = Stem;
},
{
horizontal = 1;
place = (612,132);
type = Stem;
},
{
horizontal = 1;
place = (465,69);
type = Stem;
},
{
horizontal = 1;
place = (-12,69);
type = Stem;
},
{
place = (443,96);
type = Stem;
},
{
place = (45,96);
type = Stem;
}
);
layerId = m01;
shapes = (
{
closed = 1;
nodes = (
(332,744,l),
(253,744,l),
(150,612,l),
(230,612,l),
(293,696,l),
(356,612,l),
(435,612,l)
);
},
{
closed = 1;
nodes = (
(45,114,o),
(136,-12,o),
(292,-12,cs),
(448,-12,o),
(539,114,o),
(539,261,cs),
(539,408,o),
(448,534,o),
(292,534,cs),
(136,534,o),
(45,408,o),
(45,261,cs)
);
},
{
closed = 1;
nodes = (
(421,465,o),
(443,351,o),
(443,261,cs),
(443,171,o),
(421,57,o),
(292,57,cs),
(163,57,o),
(141,171,o),
(141,261,cs),
(141,351,o),
(163,465,o),
(292,465,cs)
);
}
);
width = 584;
}
);
note = ocircumflex;
unicode = 244;
},
{
glyphname = otilde;
kernLeft = o;
layers = (
{
hints = (
{
horizontal = 1;
place = (633,89);
type = Stem;
},
{
horizontal = 1;
place = (465,69);
type = Stem;
},
{
horizontal = 1;
place = (-12,69);
type = Stem;
},
{
place = (443,96);
type = Stem;
},
{
place = (45,96);
type = Stem;
}
);
layerId = m01;
shapes = (
{
closed = 1;
nodes = (
(367,722,l),
(367,601,o),
(193,863,o),
(158,633,c),
(218,633,l),
(218,753,o),
(394,493,o),
(427,722,c)
);
},
{
closed = 1;
nodes = (
(45,114,o),
(136,-12,o),
(292,-12,cs),
(448,-12,o),
(539,114,o),
(539,261,cs),
(539,408,o),
(448,534,o),
(292,534,cs),
(136,534,o),
(45,408,o),
(45,261,cs)
);
},
{
closed = 1;
nodes = (
(421,465,o),
(443,351,o),
(443,261,cs),
(443,171,o),
(421,57,o),
(292,57,cs),
(163,57,o),
(141,171,o),
(141,261,cs),
(141,351,o),
(163,465,o),
(292,465,cs)
);
}
);
width = 584;
}
);
note = otilde;
unicode = 245;
},
{
glyphname = odieresis;
kernLeft = o;
layers = (
{
hints = (
{
horizontal = 1;
place = (624,117);
type = Stem;
},
{
horizontal = 1;
place = (465,69);
type = Stem;
},
{
horizontal = 1;
place = (-12,69);
type = Stem;
},
{
place = (443,96);
type = Stem;
},
{
place = (336,99);
type = Stem;
},
{
place = (138,99);
type = Stem;
},
{
place = (45,96);
type = Stem;
}
);
layerId = m01;
shapes = (
{
closed = 1;
nodes = (
(138,624,l),
(237,624,l),
(237,741,l),
(138,741,l)
);
},
{
closed = 1;
nodes = (
(336,624,l),
(435,624,l),
(435,741,l),
(336,741,l)
);
},
{
closed = 1;
nodes = (
(45,114,o),
(136,-12,o),
(292,-12,cs),
(448,-12,o),
(539,114,o),
(539,261,cs),
(539,408,o),
(448,534,o),
(292,534,cs),
(136,534,o),
(45,408,o),
(45,261,cs)
);
},
{
closed = 1;
nodes = (
(421,465,o),
(443,351,o),
(443,261,cs),
(443,171,o),
(421,57,o),
(292,57,cs),
(163,57,o),
(141,171,o),
(141,261,cs),
(141,351,o),
(163,465,o),
(292,465,cs)
);
}
);
width = 584;
}
);
note = odieresis;
unicode = 246;
},
{
glyphname = p;
lastChange = "2024-04-24 12:13:41 +0000";
layers = (
{
hints = (
{
horizontal = 1;
place = (465,69);
type = Stem;
},
{
horizontal = 1;
place = (465,57);
type = Stem;
},
{
horizontal = 1;
place = (-12,72);
type = Stem;
},
{
place = (488,96);
type = Stem;
},
{
place = (90,90);
type = Stem;
},
{
place = (90,84);
type = Stem;
}
);
layerId = m01;
shapes = (
{
closed = 1;
nodes = (
(180,139,l),
(162,139,l),
(178,58,o),
(263,-12,o),
(347,-12,cs),
(515,-12,o),
(584,132,o),
(584,273,cs),
(584,414,o),
(512,534,o),
(347,534,cs),
(266,534,o),
(180,461,o),
(162,376,c),
(180,376,l),
(180,522,l),
(90,522,l),
(90,-232,l),
(180,-232,l)
);
},
{
closed = 1;
nodes = (
(264,60,o),
(174,124,o),
(174,263,cs),
(174,388,o),
(256,465,o),
(337,465,cs),
(450,465,o),
(488,363,o),
(488,273,cs),
(488,183,o),
(450,60,o),
(345,60,cs)
);
}
);
width = 629;
},
{
associatedMasterId = m01;
hints = (
{
horizontal = 1;
place = (465,69);
type = Stem;
},
{
horizontal = 1;
place = (465,57);
type = Stem;
},
{
horizontal = 1;
place = (-12,72);
type = Stem;
},
{
place = (488,96);
type = Stem;
},
{
place = (90,90);
type = Stem;
},
{
place = (90,84);
type = Stem;
}
);
layerId = "35DB824E-A045-444A-91BD-CE480445BBE3";
name = "24. Apr. 24, 14:13";
shapes = (
{
closed = 1;
nodes = (
(180,94,l),
(180,85,o),
(244,-12,o),
(347,-12,cs),
(515,-12,o),
(584,132,o),
(584,273,cs),
(584,414,o),
(512,534,o),
(347,534,cs),
(244,534,o),
(180,436,o),
(180,421,c),
(180,522,l),
(90,522,l),
(90,-232,l),
(180,-232,l)
);
},
{
closed = 1;
nodes = (
(264,60,o),
(174,124,o),
(174,263,cs),
(174,388,o),
(256,465,o),
(337,465,cs),
(450,465,o),
(488,363,o),
(488,273,cs),
(488,183,o),
(450,60,o),
(345,60,cs)
);
}
);
visible = 1;
width = 629;
}
);
note = p;
unicode = 112;
},
{
glyphname = q;
lastChange = "2024-04-24 12:07:49 +0000";
layers = (
{
hints = (
{
horizontal = 1;
place = (465,69);
type = Stem;
},
{
horizontal = 1;
place = (-12,72);
type = Stem;
},
{
horizontal = 1;
place = (-232,754);
type = Stem;
},
{
place = (455,84);
type = Stem;
},
{
place = (449,90);
type = Stem;
},
{
place = (45,96);
type = Stem;
}
);
layerId = m01;
shapes = (
{
closed = 1;
nodes = (
(449,-232,l),
(539,-232,l),
(539,522,l),
(449,522,l),
(449,376,l),
(466,376,l),
(451,469,o),
(375,534,o),
(282,534,cs),
(120,534,o),
(45,414,o),
(45,273,cs),
(45,132,o),
(120,-12,o),
(282,-12,cs),
(370,-12,o),
(446,52,o),
(465,142,c),
(449,142,l)
);
},
{
closed = 1;
nodes = (
(174,60,o),
(141,183,o),
(141,273,cs),
(141,363,o),
(174,465,o),
(282,465,cs),
(378,465,o),
(455,400,o),
(455,263,cs),
(455,112,o),
(378,60,o),
(282,60,cs)
);
}
);
width = 629;
},
{
associatedMasterId = m01;
hints = (
{
horizontal = 1;
place = (465,69);
type = Stem;
},
{
horizontal = 1;
place = (-12,72);
type = Stem;
},
{
horizontal = 1;
place = (-232,754);
type = Stem;
},
{
place = (455,84);
type = Stem;
},
{
place = (449,90);
type = Stem;
},
{
place = (45,96);
type = Stem;
}
);
layerId = "C3DAFC42-8CE3-44D1-B3E9-F8994AC46BDD";
name = "24. Apr. 24, 14:07";
shapes = (
{
closed = 1;
nodes = (
(449,-232,l),
(539,-232,l),
(539,522,l),
(449,522,l),
(449,421,ls),
(449,436,o),
(402,534,o),
(282,534,cs),
(120,534,o),
(45,414,o),
(45,273,cs),
(45,132,o),
(120,-12,o),
(282,-12,cs),
(393,-12,o),
(449,88,o),
(449,97,cs)
);
},
{
closed = 1;
nodes = (
(174,60,o),
(141,183,o),
(141,273,cs),
(141,363,o),
(174,465,o),
(282,465,cs),
(378,465,o),
(455,400,o),
(455,263,cs),
(455,112,o),
(378,60,o),
(282,60,cs)
);
}
);
visible = 1;
width = 629;
}
);
note = q;
unicode = 113;
},
{
glyphname = r;
lastChange = "2024-04-24 12:06:52 +0000";
layers = (
{
hints = (
{
horizontal = 1;
place = (432,102);
type = Stem;
},
{
horizontal = 1;
place = (0,522);
type = Stem;
},
{
place = (90,276);
type = Stem;
},
{
place = (90,90);
type = Stem;
}
);
layerId = m01;
shapes = (
{
closed = 1;
nodes = (
(180,267,ls),
(180,354,o),
(247,432,o),
(366,432,c),
(366,534,l),
(264,534,o),
(189,449,o),
(169,363,c),
(180,363,l),
(180,522,l),
(90,522,l),
(90,0,l),
(180,0,l)
);
}
);
width = 393;
},
{
associatedMasterId = m01;
hints = (
{
horizontal = 1;
place = (432,102);
type = Stem;
},
{
horizontal = 1;
place = (0,522);
type = Stem;
},
{
place = (90,276);
type = Stem;
},
{
place = (90,90);
type = Stem;
}
);
layerId = "470621DA-CF3E-4AE4-A365-9AA25C256723";
name = "24. Apr. 24, 14:06";
shapes = (
{
closed = 1;
nodes = (
(180,267,ls),
(180,354,o),
(247,432,o),
(366,432,c),
(366,534,l),
(231,534,o),
(165,382,o),
(169,363,c),
(180,363,l),
(180,522,l),
(90,522,l),
(90,0,l),
(180,0,l)
);
}
);
visible = 1;
width = 393;
}
);
note = r;
unicode = 114;
},
{
glyphname = rcaron;
layers = (
{
hints = (
{
horizontal = 1;
place = (612,132);
type = Stem;
},
{
horizontal = 1;
place = (432,102);
type = Stem;
},
{
horizontal = 1;
place = (0,522);
type = Stem;
},
{
place = (90,276);
type = Stem;
},
{
place = (90,90);
type = Stem;
}
);
layerId = m01;
shapes = (
{
closed = 1;
nodes = (
(262,612,l),
(365,744,l),
(286,744,l),
(223,660,l),
(160,744,l),
(80,744,l),
(183,612,l)
);
},
{
closed = 1;
nodes = (
(180,267,ls),
(180,354,o),
(247,432,o),
(366,432,c),
(366,534,l),
(245,534,o),
(180,413,o),
(180,389,cs),
(180,522,l),
(90,522,l),
(90,0,l),
(180,0,l)
);
}
);
width = 393;
}
);
note = rcaron;
unicode = 345;
},
{
glyphname = s;
kernLeft = s;
layers = (
{
hints = (
{
horizontal = 1;
place = (465,69);
type = Stem;
},
{
horizontal = 1;
place = (230.19,78.04);
type = Stem;
},
{
horizontal = 1;
place = (-12,69);
type = Stem;
},
{
place = (375,84);
type = Stem;
},
{
place = (59,84);
type = Stem;
},
{
place = (45,93);
type = Stem;
}
);
layerId = m01;
shapes = (
{
closed = 1;
nodes = (
(45,162,l),
(45,108,o),
(84,-12,o),
(265,-12,cs),
(376,-12,o),
(459,60,o),
(459,152,cs),
(459,357,o),
(143,267,o),
(143,390,cs),
(143,438,o),
(192,465,o),
(244,465,cs),
(324,465,o),
(348,415,o),
(351,381,c),
(444,381,l),
(438,423,o),
(398,534,o),
(244,534,cs),
(140,534,o),
(59,463,o),
(59,375,cs),
(59,179,o),
(375,272,o),
(375,137,cs),
(375,73,o),
(299,57,o),
(265,57,cs),
(165,57,o),
(138,123,o),
(138,162,c)
);
}
);
width = 498;
}
);
note = s;
unicode = 115;
},
{
glyphname = scaron;
kernLeft = s;
layers = (
{
hints = (
{
horizontal = 1;
place = (612,132);
type = Stem;
},
{
horizontal = 1;
place = (465,69);
type = Stem;
},
{
horizontal = 1;
place = (230.19,78.04);
type = Stem;
},
{
horizontal = 1;
place = (-12,69);
type = Stem;
},
{
place = (375,84);
type = Stem;
},
{
place = (59,84);
type = Stem;
},
{
place = (45,93);
type = Stem;
}
);
layerId = m01;
shapes = (
{
closed = 1;
nodes = (
(283,612,l),
(386,744,l),
(307,744,l),
(244,660,l),
(181,744,l),
(101,744,l),
(204,612,l)
);
},
{
closed = 1;
nodes = (
(45,162,l),
(45,108,o),
(84,-12,o),
(265,-12,cs),
(376,-12,o),
(459,60,o),
(459,152,cs),
(459,357,o),
(143,267,o),
(143,390,cs),
(143,438,o),
(192,465,o),
(244,465,cs),
(324,465,o),
(348,415,o),
(351,381,c),
(444,381,l),
(438,423,o),
(398,534,o),
(244,534,cs),
(140,534,o),
(59,463,o),
(59,375,cs),
(59,179,o),
(375,272,o),
(375,137,cs),
(375,73,o),
(299,57,o),
(265,57,cs),
(165,57,o),
(138,123,o),
(138,162,c)
);
}
);
width = 498;
}
);
note = scaron;
unicode = 353;
},
{
glyphname = t;
lastChange = "2024-04-24 12:05:11 +0000";
layers = (
{
hints = (
{
horizontal = 1;
place = (444,78);
type = Stem;
},
{
horizontal = 1;
place = (-12,83);
type = Stem;
},
{
place = (111,186);
type = Stem;
},
{
place = (111,84);
type = Stem;
}
);
layerId = m01;
shapes = (
{
closed = 1;
nodes = (
(111,116,ls),
(111,90,o),
(101,-12,o),
(226,-12,cs),
(276,-12,o),
(297,-4,o),
(297,-4,c),
(297,77,l),
(297,77,o),
(274,71,o),
(243,71,cs),
(209,71,o),
(195,88,o),
(195,113,cs),
(195,461,l),
(171,444,l),
(294,444,l),
(294,522,l),
(171,522,l),
(195,504,l),
(195,687,l),
(111,687,l),
(111,505,l),
(133,522,l),
(30,522,l),
(30,444,l),
(129,444,l),
(111,461,l)
);
}
);
width = 342;
}
);
note = t;
unicode = 116;
},
{
glyphname = tcaron;
layers = (
{
hints = (
{
horizontal = 1;
place = (713,114);
type = Stem;
},
{
horizontal = 1;
place = (557,51);
type = Stem;
},
{
horizontal = 1;
place = (444,78);
type = Stem;
},
{
horizontal = 1;
place = (-12,83);
type = Stem;
},
{
place = (357,51);
type = Stem;
},
{
place = (294,114);
type = Stem;
},
{
place = (111,186);
type = Stem;
},
{
place = (111,84);
type = Stem;
}
);
layerId = m01;
shapes = (
{
closed = 1;
nodes = (
(408,827,l),
(294,827,l),
(294,713,l),
(357,713,l),
(357,620,o),
(324,608,o),
(294,608,c),
(294,557,l),
(332,557,o),
(408,562,o),
(408,740,cs)
);
},
{
closed = 1;
nodes = (
(111,116,ls),
(111,90,o),
(101,-12,o),
(226,-12,cs),
(276,-12,o),
(297,-4,o),
(297,-4,c),
(297,77,l),
(297,77,o),
(274,71,o),
(243,71,cs),
(209,71,o),
(195,88,o),
(195,113,cs),
(195,444,l),
(294,444,l),
(294,522,l),
(195,522,l),
(195,687,l),
(111,687,l),
(111,522,l),
(30,522,l),
(30,444,l),
(111,444,l)
);
}
);
width = 438;
}
);
note = tcaron;
unicode = 357;
},
{
glyphname = u;
kernLeft = o;
lastChange = "2024-04-24 12:06:06 +0000";
layers = (
{
hints = (
{
horizontal = 1;
place = (0,522);
type = Stem;
},
{
horizontal = 1;
place = (0,72);
type = Stem;
},
{
horizontal = 1;
place = (-12,84);
type = Stem;
},
{
place = (399,90);
type = Stem;
},
{
place = (81,90);
type = Stem;
}
);
layerId = m01;
shapes = (
{
closed = 1;
nodes = (
(399,234,ls),
(399,127,o),
(331,72,o),
(260,72,cs),
(177,72,o),
(171,142,o),
(171,239,cs),
(171,522,l),
(81,522,l),
(81,248,ls),
(81,111,o),
(90,-12,o),
(242,-12,cs),
(322,-12,o),
(396,46,o),
(413,119,c),
(399,119,l),
(399,0,l),
(489,0,l),
(489,522,l),
(399,522,l)
);
}
);
width = 579;
},
{
associatedMasterId = m01;
hints = (
{
horizontal = 1;
place = (0,522);
type = Stem;
},
{
horizontal = 1;
place = (0,72);
type = Stem;
},
{
horizontal = 1;
place = (-12,84);
type = Stem;
},
{
place = (399,90);
type = Stem;
},
{
place = (81,90);
type = Stem;
}
);
layerId = "BF435C0F-B949-4040-B47C-877BB4B9066A";
name = "24. Apr. 24, 14:05";
shapes = (
{
closed = 1;
nodes = (
(399,234,ls),
(399,127,o),
(331,72,o),
(260,72,cs),
(177,72,o),
(171,142,o),
(171,239,cs),
(171,522,l),
(81,522,l),
(81,248,ls),
(81,111,o),
(90,-12,o),
(242,-12,cs),
(336,-12,o),
(399,76,o),
(399,91,cs),
(399,0,l),
(489,0,l),
(489,522,l),
(399,522,l)
);
}
);
visible = 1;
width = 579;
}
);
note = u;
unicode = 117;
},
{
glyphname = ugrave;
kernLeft = o;
layers = (
{
hints = (
{
horizontal = 1;
place = (612,153);
type = Stem;
},
{
horizontal = 1;
place = (0,522);
type = Stem;
},
{
horizontal = 1;
place = (0,72);
type = Stem;
},
{
horizontal = 1;
place = (-12,84);
type = Stem;
},
{
place = (399,90);
type = Stem;
},
{
place = (81,90);
type = Stem;
}
);
layerId = m01;
shapes = (
{
closed = 1;
nodes = (
(335,612,l),
(286,765,l),
(182,765,l),
(269,612,l)
);
},
{
closed = 1;
nodes = (
(399,234,ls),
(399,127,o),
(331,73,o),
(260,72,cs),
(177,71,o),
(171,142,o),
(171,239,cs),
(171,522,l),
(81,522,l),
(81,248,ls),
(81,111,o),
(90,-12,o),
(242,-12,cs),
(336,-12,o),
(399,76,o),
(399,91,cs),
(399,0,l),
(489,0,l),
(489,522,l),
(399,522,l)
);
}
);
width = 579;
}
);
note = ugrave;
unicode = 249;
},
{
glyphname = uacute;
kernLeft = o;
layers = (
{
hints = (
{
horizontal = 1;
place = (612,153);
type = Stem;
},
{
horizontal = 1;
place = (0,522);
type = Stem;
},
{
horizontal = 1;
place = (0,72);
type = Stem;
},
{
horizontal = 1;
place = (-12,84);
type = Stem;
},
{
place = (399,90);
type = Stem;
},
{
place = (81,90);
type = Stem;
}
);
layerId = m01;
shapes = (
{
closed = 1;
nodes = (
(218,612,l),
(284,612,l),
(371,765,l),
(267,765,l)
);
},
{
closed = 1;
nodes = (
(399,234,ls),
(399,127,o),
(331,73,o),
(260,72,cs),
(177,71,o),
(171,142,o),
(171,239,cs),
(171,522,l),
(81,522,l),
(81,248,ls),
(81,111,o),
(90,-12,o),
(242,-12,cs),
(336,-12,o),
(399,76,o),
(399,91,cs),
(399,0,l),
(489,0,l),
(489,522,l),
(399,522,l)
);
}
);
width = 579;
}
);
note = uacute;
unicode = 250;
},
{
glyphname = ucircumflex;
kernLeft = o;
layers = (
{
hints = (
{
horizontal = 1;
place = (696,48);
type = Stem;
},
{
horizontal = 1;
place = (612,132);
type = Stem;
},
{
horizontal = 1;
place = (0,522);
type = Stem;
},
{
horizontal = 1;
place = (0,72);
type = Stem;
},
{
horizontal = 1;
place = (-12,84);
type = Stem;
},
{
place = (399,90);
type = Stem;
},
{
place = (81,90);
type = Stem;
}
);
layerId = m01;
shapes = (
{
closed = 1;
nodes = (
(322,744,l),
(243,744,l),
(140,612,l),
(220,612,l),
(283,696,l),
(346,612,l),
(425,612,l)
);
},
{
closed = 1;
nodes = (
(399,234,ls),
(399,127,o),
(331,73,o),
(260,72,cs),
(177,71,o),
(171,142,o),
(171,239,cs),
(171,522,l),
(81,522,l),
(81,248,ls),
(81,111,o),
(90,-12,o),
(242,-12,cs),
(336,-12,o),
(399,76,o),
(399,91,cs),
(399,0,l),
(489,0,l),
(489,522,l),
(399,522,l)
);
}
);
width = 579;
}
);
note = ucircumflex;
unicode = 251;
},
{
glyphname = udieresis;
kernLeft = o;
layers = (
{
hints = (
{
horizontal = 1;
place = (624,117);
type = Stem;
},
{
horizontal = 1;
place = (0,522);
type = Stem;
},
{
horizontal = 1;
place = (0,72);
type = Stem;
},
{
horizontal = 1;
place = (-12,84);
type = Stem;
},
{
place = (399,90);
type = Stem;
},
{
place = (336,99);
type = Stem;
},
{
place = (138,99);
type = Stem;
},
{
place = (81,90);
type = Stem;
}
);
layerId = m01;
shapes = (
{
closed = 1;
nodes = (
(138,624,l),
(237,624,l),
(237,741,l),
(138,741,l)
);
},
{
closed = 1;
nodes = (
(336,624,l),
(435,624,l),
(435,741,l),
(336,741,l)
);
},
{
closed = 1;
nodes = (
(399,234,ls),
(399,127,o),
(331,73,o),
(260,72,cs),
(177,71,o),
(171,142,o),
(171,239,cs),
(171,522,l),
(81,522,l),
(81,248,ls),
(81,111,o),
(90,-12,o),
(242,-12,cs),
(336,-12,o),
(399,76,o),
(399,91,cs),
(399,0,l),
(489,0,l),
(489,522,l),
(399,522,l)
);
}
);
width = 579;
}
);
note = udieresis;
unicode = 252;
},
{
glyphname = uring;
layers = (
{
hints = (
{
horizontal = 1;
place = (741,33);
type = Stem;
},
{
horizontal = 1;
place = (589,33);
type = Stem;
},
{
horizontal = 1;
place = (0,522);
type = Stem;
},
{
horizontal = 1;
place = (0,72);
type = Stem;
},
{
horizontal = 1;
place = (-12,84);
type = Stem;
},
{
place = (399,90);
type = Stem;
},
{
place = (342,33);
type = Stem;
},
{
place = (193,33);
type = Stem;
},
{
place = (81,90);
type = Stem;
}
);
layerId = m01;
shapes = (
{
closed = 1;
nodes = (
(227,774,o),
(193,728,o),
(193,681,cs),
(193,634,o),
(227,589,o),
(285,589,cs),
(343,589,o),
(375,635,o),
(375,681,cs),
(375,728,o),
(343,774,o),
(285,774,cs)
);
},
{
closed = 1;
nodes = (
(323,741,o),
(342,710,o),
(342,681,cs),
(342,653,o),
(323,622,o),
(285,622,cs),
(245,622,o),
(226,652,o),
(226,681,cs),
(226,710,o),
(245,741,o),
(285,741,cs)
);
},
{
closed = 1;
nodes = (
(399,234,ls),
(399,127,o),
(331,73,o),
(260,72,cs),
(177,71,o),
(171,142,o),
(171,239,cs),
(171,522,l),
(81,522,l),
(81,248,ls),
(81,111,o),
(90,-12,o),
(242,-12,cs),
(336,-12,o),
(399,76,o),
(399,91,cs),
(399,0,l),
(489,0,l),
(489,522,l),
(399,522,l)
);
}
);
width = 579;
}
);
note = uring;
unicode = 367;
},
{
glyphname = v;
lastChange = "2024-04-24 12:04:57 +0000";
layers = (
{
hints = (
{
horizontal = 1;
place = (0,522);
type = Stem;
},
{
place = (12,453);
type = Stem;
}
);
layerId = m01;
shapes = (
{
closed = 1;
nodes = (
(292,0,l),
(465,522,l),
(374,522,l),
(226,53,l),
(254,53,l),
(106,522,l),
(12,522,l),
(185,0,l)
);
}
);
width = 477;
}
);
note = v;
unicode = 118;
},
{
glyphname = w;
lastChange = "2024-04-24 12:04:50 +0000";
layers = (
{
hints = (
{
horizontal = 1;
place = (0,522);
type = Stem;
},
{
place = (15,729);
type = Stem;
}
);
layerId = m01;
shapes = (
{
closed = 1;
nodes = (
(502,0,l),
(600,0,l),
(744,522,l),
(659,522,l),
(543,52,l),
(567,53,l),
(427,522,l),
(351,522,l),
(222,53,l),
(247,53,l),
(106,522,l),
(15,522,l),
(182,0,l),
(280,0,l),
(396,406,l),
(370,406,l)
);
}
);
width = 759;
}
);
note = w;
unicode = 119;
},
{
glyphname = x;
lastChange = "2024-04-24 12:04:39 +0000";
layers = (
{
hints = (
{
horizontal = 1;
place = (0,522);
type = Stem;
},
{
place = (15,490);
type = Stem;
}
);
layerId = m01;
shapes = (
{
closed = 1;
nodes = (
(401,0,l),
(505,0,l),
(306,292,l),
(306,249,l),
(502,522,l),
(399,522,l),
(262,307,l),
(288,307,l),
(153,522,l),
(49,522,l),
(233,252,l),
(233,290,l),
(15,0,l),
(118,0,l),
(276,231,l),
(255,231,l)
);
}
);
width = 520;
}
);
note = x;
unicode = 120;
},
{
glyphname = y;
kernLeft = y;
lastChange = "2024-04-24 12:04:07 +0000";
layers = (
{
hints = (
{
horizontal = 1;
place = (-232,90);
type = Stem;
},
{
place = (30,445);
type = Stem;
}
);
layerId = m01;
shapes = (
{
closed = 1;
nodes = (
(201,-36,ls),
(182,-110,o),
(165,-142,o),
(103,-142,cs),
(73,-142,o),
(45,-138,o),
(45,-138,c),
(45,-226,l),
(45,-226,o),
(59,-232,o),
(113,-232,cs),
(237,-232,o),
(262,-122,o),
(288,-42,cs),
(475,522,l),
(386,522,l),
(241,65,l),
(269,65,l),
(124,522,l),
(30,522,l),
(222,-49,l),
(218,38,l)
);
}
);
width = 490;
}
);
note = y;
unicode = 121;
},
{
glyphname = yacute;
kernLeft = y;
layers = (
{
hints = (
{
horizontal = 1;
place = (612,153);
type = Stem;
},
{
horizontal = 1;
place = (-232,90);
type = Stem;
},
{
place = (30,445);
type = Stem;
}
);
layerId = m01;
shapes = (
{
closed = 1;
nodes = (
(191,612,l),
(257,612,l),
(344,765,l),
(240,765,l)
);
},
{
closed = 1;
nodes = (
(201,-36,ls),
(182,-110,o),
(165,-142,o),
(103,-142,cs),
(73,-142,o),
(45,-138,o),
(45,-138,c),
(45,-226,l),
(45,-226,o),
(59,-232,o),
(113,-232,cs),
(237,-232,o),
(262,-122,o),
(288,-42,cs),
(475,522,l),
(386,522,l),
(255,108,l),
(124,522,l),
(30,522,l),
(208,-6,l)
);
}
);
width = 499;
}
);
note = yacute;
unicode = 253;
},
{
glyphname = ydieresis;
kernLeft = y;
layers = (
{
hints = (
{
horizontal = 1;
place = (624,117);
type = Stem;
},
{
horizontal = 1;
place = (-232,90);
type = Stem;
},
{
place = (305,99);
type = Stem;
},
{
place = (107,99);
type = Stem;
}
);
layerId = m01;
shapes = (
{
closed = 1;
nodes = (
(107,624,l),
(206,624,l),
(206,741,l),
(107,741,l)
);
},
{
closed = 1;
nodes = (
(305,624,l),
(404,624,l),
(404,741,l),
(305,741,l)
);
},
{
closed = 1;
nodes = (
(201,-36,ls),
(182,-110,o),
(165,-142,o),
(103,-142,cs),
(73,-142,o),
(45,-138,o),
(45,-138,c),
(45,-226,l),
(45,-226,o),
(59,-232,o),
(113,-232,cs),
(237,-232,o),
(262,-122,o),
(288,-42,cs),
(475,522,l),
(386,522,l),
(255,108,l),
(124,522,l),
(30,522,l),
(208,-6,l)
);
}
);
width = 484;
}
);
note = ydieresis;
unicode = 255;
},
{
glyphname = z;
lastChange = "2024-04-24 12:03:58 +0000";
layers = (
{
hints = (
{
horizontal = 1;
place = (444,78);
type = Stem;
},
{
horizontal = 1;
place = (0,78);
type = Stem;
},
{
place = (69,347);
type = Stem;
},
{
place = (60,371);
type = Stem;
}
);
layerId = m01;
shapes = (
{
closed = 1;
nodes = (
(431,0,l),
(431,78,l),
(116,78,l),
(135,41,l),
(416,441,l),
(416,522,l),
(69,522,l),
(69,444,l),
(360,444,l),
(341,481,l),
(60,81,l),
(60,0,l)
);
}
);
width = 482;
}
);
note = z;
unicode = 122;
},
{
glyphname = zacute;
layers = (
{
hints = (
{
horizontal = 1;
place = (612,153);
type = Stem;
},
{
horizontal = 1;
place = (444,78);
type = Stem;
},
{
horizontal = 1;
place = (0,78);
type = Stem;
},
{
place = (69,347);
type = Stem;
},
{
place = (60,371);
type = Stem;
}
);
layerId = m01;
shapes = (
{
closed = 1;
nodes = (
(195,612,l),
(261,612,l),
(348,765,l),
(244,765,l)
);
},
{
closed = 1;
nodes = (
(431,0,l),
(431,78,l),
(161,78,l),
(416,441,l),
(416,522,l),
(69,522,l),
(69,444,l),
(315,444,l),
(60,81,l),
(60,0,l)
);
}
);
width = 482;
}
);
note = zacute;
unicode = 378;
},
{
glyphname = zdotaccent;
layers = (
{
hints = (
{
horizontal = 1;
place = (615,126);
type = Stem;
},
{
horizontal = 1;
place = (444,78);
type = Stem;
},
{
horizontal = 1;
place = (0,78);
type = Stem;
},
{
place = (199,105);
type = Stem;
},
{
place = (69,347);
type = Stem;
},
{
place = (60,371);
type = Stem;
}
);
layerId = m01;
shapes = (
{
closed = 1;
nodes = (
(199,615,l),
(304,615,l),
(304,741,l),
(199,741,l)
);
},
{
closed = 1;
nodes = (
(431,0,l),
(431,78,l),
(161,78,l),
(416,441,l),
(416,522,l),
(69,522,l),
(69,444,l),
(315,444,l),
(60,81,l),
(60,0,l)
);
}
);
width = 482;
}
);
note = zdotaccent;
unicode = 380;
},
{
glyphname = zcaron;
layers = (
{
hints = (
{
horizontal = 1;
place = (612,132);
type = Stem;
},
{
horizontal = 1;
place = (444,78);
type = Stem;
},
{
horizontal = 1;
place = (0,78);
type = Stem;
},
{
place = (69,347);
type = Stem;
},
{
place = (60,371);
type = Stem;
}
);
layerId = m01;
shapes = (
{
closed = 1;
nodes = (
(292,612,l),
(395,744,l),
(316,744,l),
(253,660,l),
(190,744,l),
(110,744,l),
(213,612,l)
);
},
{
closed = 1;
nodes = (
(431,0,l),
(431,78,l),
(161,78,l),
(416,441,l),
(416,522,l),
(69,522,l),
(69,444,l),
(315,444,l),
(60,81,l),
(60,0,l)
);
}
);
width = 482;
}
);
note = zcaron;
unicode = 382;
},
{
glyphname = germandbls;
lastChange = "2024-04-24 12:06:16 +0000";
layers = (
{
hints = (
{
horizontal = 1;
place = (696,69);
type = Stem;
},
{
horizontal = 1;
place = (372,60);
type = Stem;
},
{
horizontal = 1;
place = (-9,77);
type = Stem;
},
{
place = (465,96);
type = Stem;
},
{
place = (413,83);
type = Stem;
},
{
place = (90,87);
type = Stem;
}
);
layerId = m01;
shapes = (
{
closed = 1;
nodes = (
(90,0,l),
(177,0,l),
(177,556,ls),
(177,655,o),
(226,696,o),
(298,696,cs),
(379,696,o),
(413,657,o),
(413,567,cs),
(413,477,o),
(361,432,o),
(271,432,c),
(271,372,l),
(415,372,o),
(465,317,o),
(465,210,cs),
(465,59,o),
(363,54,o),
(256,80,c),
(256,-1,l),
(361,-22,o),
(561,-15,o),
(561,210,cs),
(561,327,o),
(492,401,o),
(366,415,c),
(366,397,l),
(461,424,o),
(496,484,o),
(496,567,cs),
(496,705,o),
(406,765,o),
(298,765,cs),
(181,765,o),
(90,705,o),
(90,558,cs)
);
}
);
width = 618;
}
);
note = germandbls;
unicode = 223;
},
{
glyphname = ae;
layers = (
{
hints = (
{
horizontal = 1;
place = (468,66);
type = Stem;
},
{
horizontal = 1;
place = (465,69);
type = Stem;
},
{
horizontal = 1;
place = (263,53);
type = Stem;
},
{
horizontal = 1;
place = (258,63);
type = Stem;
},
{
horizontal = 1;
place = (-12,72);
type = Stem;
},
{
horizontal = 1;
place = (-12,69);
type = Stem;
},
{
place = (744,99);
type = Stem;
},
{
place = (372,96);
type = Stem;
},
{
place = (372,95);
type = Stem;
},
{
place = (51,99);
type = Stem;
},
{
place = (45,90);
type = Stem;
}
);
layerId = m01;
shapes = (
{
closed = 1;
nodes = (
(750,-12,o),
(826,75,o),
(832,168,c),
(741,168,l),
(738,126,o),
(712,57,o),
(610,57,cs),
(490,57,o),
(467,167,o),
(467,258,c),
(843,258,l),
(840,400,o),
(762,534,o),
(607,534,cs),
(516,534,o),
(471,498,o),
(431,440,c),
(397,501,o),
(339,534,o),
(262,534,cs),
(96,534,o),
(51,429,o),
(51,360,c),
(150,360,l),
(150,421,o),
(188,465,o),
(262,465,cs),
(313,465,o),
(374,441,o),
(372,363,cs),
(372,316,l),
(290,311,o),
(45,315,o),
(45,140,cs),
(45,60,o),
(110,-12,o),
(208,-12,cs),
(326,-12,o),
(388,76,o),
(399,129,c),
(436,45,o),
(510,-12,o),
(610,-12,cs)
);
},
{
closed = 1;
nodes = (
(468,321,l),
(471,386,o),
(508,468,o),
(607,468,cs),
(700,468,o),
(740,394,o),
(744,321,c)
);
},
{
closed = 1;
nodes = (
(135,246,o),
(290,260,o),
(372,263,c),
(372,209,ls),
(372,134,o),
(303,60,o),
(228,60,cs),
(182,60,o),
(135,76,o),
(135,140,cs)
);
}
);
width = 882;
}
);
note = ae;
unicode = 230;
},
{
glyphname = eth;
layers = (
{
hints = (
{
horizontal = 1;
place = (744,9);
type = Stem;
},
{
horizontal = 1;
place = (465,69);
type = Stem;
},
{
horizontal = 1;
place = (-12,81);
type = Stem;
},
{
place = (464,92);
type = Stem;
},
{
place = (454,102);
type = Stem;
},
{
place = (45,90);
type = Stem;
}
);
layerId = m01;
shapes = (
{
closed = 1;
nodes = (
(45,114,o),
(162,-12,o),
(280,-12,cs),
(519,-12,o),
(556,177,o),
(556,363,cs),
(556,514,o),
(505,612,o),
(452,671,c),
(519,697,l),
(501,742,l),
(414,709,l),
(375,740,o),
(342,753,o),
(335,753,cs),
(221,753,l),
(221,744,l),
(266,731,o),
(308,710,o),
(343,682,c),
(184,621,l),
(203,576,l),
(382,645,l),
(433,588,o),
(464,512,o),
(464,426,c),
(440,495,o),
(375,534,o),
(283,534,cs),
(148,534,o),
(45,420,o),
(45,264,cs)
);
},
{
closed = 1;
nodes = (
(173,69,o),
(135,185,o),
(135,270,cs),
(135,349,o),
(159,465,o),
(295,465,cs),
(416,465,o),
(454,371,o),
(454,270,cs),
(454,185,o),
(427,69,o),
(284,69,cs)
);
}
);
width = 595;
}
);
note = eth;
unicode = 240;
},
{
glyphname = oslash;
kernLeft = o;
layers = (
{
hints = (
{
horizontal = 1;
place = (465,69);
type = Stem;
},
{
horizontal = 1;
place = (-12,69);
type = Stem;
},
{
place = (443,96);
type = Stem;
},
{
place = (45,96);
type = Stem;
}
);
layerId = m01;
shapes = (
{
closed = 1;
nodes = (
(448,-12,o),
(539,114,o),
(539,261,cs),
(539,341,o),
(512,415,o),
(462,466,c),
(524,559,l),
(479,589,l),
(419,500,l),
(384,521,o),
(341,534,o),
(292,534,cs),
(136,534,o),
(45,408,o),
(45,261,cs),
(45,181,o),
(72,107,o),
(122,56,c),
(60,-37,l),
(105,-67,l),
(165,22,l),
(200,1,o),
(243,-12,o),
(292,-12,cs)
);
},
{
closed = 1;
nodes = (
(141,351,o),
(163,465,o),
(292,465,cs),
(329,465,o),
(358,455,o),
(379,440,c),
(168,125,l),
(147,165,o),
(141,216,o),
(141,261,cs)
);
},
{
closed = 1;
nodes = (
(255,57,o),
(226,67,o),
(205,82,c),
(416,397,l),
(437,357,o),
(443,306,o),
(443,261,cs),
(443,171,o),
(421,57,o),
(292,57,cs)
);
}
);
width = 584;
}
);
note = oslash;
unicode = 248;
},
{
glyphname = thorn;
layers = (
{
hints = (
{
horizontal = 1;
place = (465,69);
type = Stem;
},
{
horizontal = 1;
place = (-12,72);
type = Stem;
},
{
horizontal = 1;
place = (-232,985);
type = Stem;
},
{
place = (488,96);
type = Stem;
},
{
place = (90,90);
type = Stem;
},
{
place = (90,84);
type = Stem;
}
);
layerId = m01;
shapes = (
{
closed = 1;
nodes = (
(180,94,ls),
(180,85,o),
(244,-12,o),
(347,-12,cs),
(515,-12,o),
(584,132,o),
(584,273,cs),
(584,414,o),
(512,534,o),
(347,534,cs),
(244,534,o),
(180,436,o),
(180,421,cs),
(180,753,l),
(90,753,l),
(90,-232,l),
(180,-232,l)
);
},
{
closed = 1;
nodes = (
(264,60,o),
(174,124,o),
(174,263,cs),
(174,388,o),
(256,465,o),
(337,465,cs),
(450,465,o),
(488,363,o),
(488,273,cs),
(488,183,o),
(450,60,o),
(345,60,cs)
);
}
);
width = 629;
}
);
note = thorn;
unicode = 254;
},
{
glyphname = dotlessi;
layers = (
{
hints = (
{
horizontal = 1;
place = (0,522);
type = Stem;
},
{
place = (90,90);
type = Stem;
}
);
layerId = m01;
shapes = (
{
closed = 1;
nodes = (
(180,522,l),
(90,522,l),
(90,0,l),
(180,0,l)
);
}
);
width = 270;
}
);
note = dotlessi;
unicode = 305;
},
{
glyphname = lslash;
layers = (
{
hints = (
{
horizontal = 1;
place = (0,768);
type = Stem;
},
{
place = (90,90);
type = Stem;
}
);
layerId = m01;
shapes = (
{
closed = 1;
nodes = (
(90,0,l),
(180,0,l),
(180,386,l),
(273,423,l),
(273,498,l),
(180,461,l),
(180,768,l),
(90,768,l),
(90,426,l),
(6,393,l),
(6,318,l),
(90,351,l)
);
}
);
width = 270;
}
);
note = lslash;
unicode = 322;
},
{
glyphname = mu;
layers = (
{
hints = (
{
horizontal = 1;
place = (0,522);
type = Stem;
},
{
horizontal = 1;
place = (0,72);
type = Stem;
},
{
horizontal = 1;
place = (-12,84);
type = Stem;
},
{
horizontal = 1;
place = (-232,754);
type = Stem;
},
{
place = (408,90);
type = Stem;
},
{
place = (90,90);
type = Stem;
}
);
layerId = m01;
shapes = (
{
closed = 1;
nodes = (
(351,-12,o),
(408,76,o),
(408,91,cs),
(408,0,l),
(498,0,l),
(498,522,l),
(408,522,l),
(408,234,ls),
(408,127,o),
(340,73,o),
(269,72,cs),
(186,71,o),
(180,142,o),
(180,239,cs),
(180,522,l),
(90,522,l),
(90,-232,l),
(180,-232,l),
(180,15,l),
(201,-6,o),
(225,-12,o),
(257,-12,cs)
);
}
);
width = 588;
}
);
note = mu;
unicode = 956;
},
{
glyphname = circumflex;
layers = (
{
hints = (
{
horizontal = 1;
place = (696,48);
type = Stem;
},
{
horizontal = 1;
place = (612,132);
type = Stem;
},
{
place = (60,285);
type = Stem;
}
);
layerId = m01;
shapes = (
{
closed = 1;
nodes = (
(242,744,l),
(163,744,l),
(60,612,l),
(140,612,l),
(203,696,l),
(266,612,l),
(345,612,l)
);
}
);
width = 405;
}
);
note = circumflex;
unicode = 710;
},
{
glyphname = caron;
layers = (
{
hints = (
{
horizontal = 1;
place = (612,132);
type = Stem;
},
{
place = (60,285);
type = Stem;
}
);
layerId = m01;
shapes = (
{
closed = 1;
nodes = (
(242,612,l),
(345,744,l),
(266,744,l),
(203,660,l),
(140,744,l),
(60,744,l),
(163,612,l)
);
}
);
width = 405;
}
);
note = caron;
unicode = 711;
},
{
glyphname = ordfeminine;
layers = (
{
hints = (
{
horizontal = 1;
place = (715,50);
type = Stem;
},
{
horizontal = 1;
place = (567,39);
type = Stem;
},
{
horizontal = 1;
place = (375,62);
type = Stem;
},
{
horizontal = 1;
place = (375,52);
type = Stem;
},
{
place = (298,60);
type = Stem;
},
{
place = (293,65);
type = Stem;
},
{
place = (64,71);
type = Stem;
},
{
place = (60,64);
type = Stem;
}
);
layerId = m01;
shapes = (
{
closed = 1;
nodes = (
(406,375,o),
(412,381,o),
(412,381,c),
(412,438,l),
(412,438,o),
(404,437,o),
(386,437,cs),
(376,437,o),
(358,441,o),
(358,471,cs),
(358,643,ls),
(358,725,o),
(295,765,o),
(215,765,cs),
(96,765,o),
(64,690,o),
(64,640,c),
(135,640,l),
(135,684,o),
(162,715,o),
(215,715,cs),
(251,715,o),
(295,698,o),
(293,643,cs),
(293,606,l),
(235,602,o),
(60,604,o),
(60,484,cs),
(60,427,o),
(93,375,o),
(164,375,cs),
(243,375,o),
(298,438,o),
(298,464,cs),
(298,431,o),
(309,375,o),
(372,375,cs)
);
},
{
closed = 1;
nodes = (
(158,427,o),
(124,438,o),
(124,484,cs),
(124,555,o),
(235,565,o),
(293,567,c),
(293,532,ls),
(293,488,o),
(244,427,o),
(190,427,cs)
);
}
);
width = 472;
}
);
note = ordfeminine;
unicode = 170;
},
{
glyphname = ordmasculine;
layers = (
{
hints = (
{
horizontal = 1;
place = (715,50);
type = Stem;
},
{
horizontal = 1;
place = (371,50);
type = Stem;
},
{
place = (346,70);
type = Stem;
},
{
place = (60,70);
type = Stem;
}
);
layerId = m01;
shapes = (
{
closed = 1;
nodes = (
(60,462,o),
(126,371,o),
(238,371,cs),
(350,371,o),
(416,462,o),
(416,568,cs),
(416,674,o),
(350,765,o),
(238,765,cs),
(126,765,o),
(60,674,o),
(60,568,cs)
);
},
{
closed = 1;
nodes = (
(331,715,o),
(346,633,o),
(346,568,cs),
(346,504,o),
(331,421,o),
(238,421,cs),
(145,421,o),
(130,504,o),
(130,568,cs),
(130,633,o),
(145,715,o),
(238,715,cs)
);
}
);
width = 476;
}
);
note = ordmasculine;
unicode = 186;
},
{
glyphname = uni032C;
layers = (
{
hints = (
{
horizontal = 1;
place = (-232,144);
type = Stem;
},
{
place = (57,291);
type = Stem;
}
);
layerId = m01;
shapes = (
{
closed = 1;
nodes = (
(242,-232,l),
(348,-88,l),
(266,-88,l),
(203,-184,l),
(140,-88,l),
(57,-88,l),
(163,-232,l)
);
}
);
width = 405;
}
);
note = uni032C;
unicode = 812;
},
{
glyphname = zero;
layers = (
{
hints = (
{
horizontal = 1;
place = (687,78);
type = Stem;
},
{
horizontal = 1;
place = (-12,78);
type = Stem;
},
{
place = (540,102);
type = Stem;
},
{
place = (54,102);
type = Stem;
}
);
layerId = m01;
shapes = (
{
closed = 1;
nodes = (
(54,219,o),
(136,-12,o),
(348,-12,cs),
(561,-12,o),
(642,219,o),
(642,378,cs),
(642,537,o),
(561,765,o),
(348,765,cs),
(136,765,o),
(54,537,o),
(54,378,cs)
);
},
{
closed = 1;
nodes = (
(481,687,o),
(540,553,o),
(540,378,cs),
(540,203,o),
(481,66,o),
(348,66,cs),
(215,66,o),
(156,203,o),
(156,378,cs),
(156,553,o),
(215,687,o),
(348,687,cs)
);
}
);
width = 696;
}
);
note = zero;
unicode = 48;
},
{
glyphname = one;
layers = (
{
hints = (
{
horizontal = 1;
place = (584,72);
type = Stem;
},
{
place = (135,90);
type = Stem;
},
{
place = (12,213);
type = Stem;
}
);
layerId = m01;
shapes = (
{
closed = 1;
nodes = (
(225,0,l),
(225,753,l),
(159,753,l),
(150,670,o),
(87,656,o),
(12,656,c),
(12,584,l),
(74,584,o),
(114,590,o),
(135,601,c),
(135,0,l)
);
}
);
width = 333;
}
);
note = one;
unicode = 49;
},
{
glyphname = two;
layers = (
{
hints = (
{
horizontal = 1;
place = (687,78);
type = Stem;
},
{
horizontal = 1;
place = (0,84);
type = Stem;
},
{
place = (442,90);
type = Stem;
},
{
place = (63,471);
type = Stem;
},
{
place = (61,93);
type = Stem;
}
);
layerId = m01;
shapes = (
{
closed = 1;
nodes = (
(534,84,l),
(174,84,l),
(303,152,o),
(532,279,o),
(532,520,cs),
(532,618,o),
(479,765,o),
(293,765,cs),
(89,765,o),
(55,592,o),
(61,492,c),
(154,492,l),
(148,616,o),
(187,687,o),
(299,687,cs),
(426,687,o),
(442,567,o),
(442,517,cs),
(442,346,o),
(297,212,o),
(63,103,c),
(63,0,l),
(534,0,l)
);
}
);
width = 594;
}
);
note = two;
unicode = 50;
},
{
glyphname = three;
layers = (
{
hints = (
{
horizontal = 1;
place = (687,78);
type = Stem;
},
{
horizontal = 1;
place = (344,84);
type = Stem;
},
{
horizontal = 1;
place = (-12,78);
type = Stem;
},
{
place = (506,98);
type = Stem;
},
{
place = (483,94);
type = Stem;
},
{
place = (82,93);
type = Stem;
},
{
place = (60,98);
type = Stem;
}
);
layerId = m01;
shapes = (
{
closed = 1;
nodes = (
(60,246,l),
(66,132,o),
(112,-12,o),
(338,-12,cs),
(507,-12,o),
(605,96,o),
(604,206,cs),
(603,311,o),
(552,374,o),
(437,394,c),
(532,424,o),
(576,478,o),
(577,572,cs),
(578,653,o),
(494,765,o),
(329,765,cs),
(141,765,o),
(88,647,o),
(82,531,c),
(175,531,l),
(177,621,o),
(217,687,o),
(329,687,cs),
(447,687,o),
(483,618,o),
(483,551,cs),
(483,480,o),
(435,431,o),
(339,428,cs),
(204,428,l),
(204,344,l),
(312,344,ls),
(427,344,o),
(507,321,o),
(506,213,cs),
(505,125,o),
(444,65,o),
(338,66,cs),
(218,67,o),
(161,116,o),
(158,246,c)
);
}
);
width = 664;
}
);
note = three;
unicode = 51;
},
{
glyphname = four;
layers = (
{
hints = (
{
horizontal = 1;
place = (192,84);
type = Stem;
},
{
place = (373,229);
type = Stem;
},
{
place = (373,90);
type = Stem;
}
);
layerId = m01;
shapes = (
{
closed = 1;
nodes = (
(602,192,l),
(602,276,l),
(463,276,l),
(463,753,l),
(374,753,l),
(45,298,l),
(45,192,l),
(373,192,l),
(373,0,l),
(463,0,l),
(463,192,l)
);
},
{
closed = 1;
nodes = (
(373,276,l),
(109,276,l),
(373,634,l)
);
}
);
width = 656;
}
);
note = four;
unicode = 52;
},
{
glyphname = five;
layers = (
{
hints = (
{
horizontal = 1;
place = (669,84);
type = Stem;
},
{
horizontal = 1;
place = (459,74);
type = Stem;
},
{
horizontal = 1;
place = (-12,78);
type = Stem;
},
{
place = (533,98);
type = Stem;
},
{
place = (124,75);
type = Stem;
}
);
layerId = m01;
shapes = (
{
closed = 1;
nodes = (
(570,-12,o),
(631,148,o),
(631,276,cs),
(631,417,o),
(540,533,o),
(371,533,cs),
(288,533,o),
(222,481,o),
(199,438,c),
(199,669,l),
(564,669,l),
(564,753,l),
(124,753,l),
(124,327,l),
(196,327,l),
(202,392,o),
(263,459,o),
(362,459,cs),
(464,459,o),
(533,402,o),
(533,283,cs),
(533,177,o),
(508,66,o),
(365,66,cs),
(272,66,o),
(203,98,o),
(197,210,c),
(99,210,l),
(111,87,o),
(190,-12,o),
(365,-12,cs)
);
}
);
width = 706;
}
);
note = five;
unicode = 53;
},
{
glyphname = six;
layers = (
{
hints = (
{
horizontal = 1;
place = (687,78);
type = Stem;
},
{
horizontal = 1;
place = (417,69);
type = Stem;
},
{
horizontal = 1;
place = (-12,81);
type = Stem;
},
{
place = (494,90);
type = Stem;
},
{
place = (485,100);
type = Stem;
},
{
place = (54,112);
type = Stem;
},
{
place = (54,102);
type = Stem;
}
);
layerId = m01;
shapes = (
{
closed = 1;
nodes = (
(584,387,o),
(508,486,o),
(349,486,cs),
(245,486,o),
(180,420,o),
(156,360,c),
(156,553,o),
(196,689,o),
(350,687,cs),
(433,686,o),
(485,645,o),
(485,552,c),
(585,552,l),
(574,673,o),
(498,765,o),
(350,765,cs),
(120,765,o),
(54,537,o),
(54,378,cs),
(54,189,o),
(112,-12,o),
(342,-12,cs),
(484,-12,o),
(584,81,o),
(584,231,cs)
);
},
{
closed = 1;
nodes = (
(217,69,o),
(166,152,o),
(166,237,cs),
(166,323,o),
(216,417,o),
(331,417,cs),
(476,417,o),
(494,316,o),
(494,237,cs),
(494,152,o),
(459,69,o),
(342,69,cs)
);
}
);
width = 639;
}
);
note = six;
unicode = 54;
},
{
glyphname = seven;
layers = (
{
hints = (
{
horizontal = 1;
place = (669,84);
type = Stem;
},
{
horizontal = 1;
place = (558,195);
type = Stem;
},
{
place = (160,111);
type = Stem;
},
{
place = (54,75);
type = Stem;
}
);
layerId = m01;
shapes = (
{
closed = 1;
nodes = (
(271,0,l),
(271,399,o),
(427,542,o),
(507,645,c),
(507,753,l),
(54,753,l),
(54,558,l),
(129,558,l),
(129,669,l),
(446,669,l),
(385,592,o),
(160,391,o),
(160,0,c)
);
}
);
width = 561;
}
);
note = seven;
unicode = 55;
},
{
glyphname = eight;
layers = (
{
hints = (
{
horizontal = 1;
place = (693,72);
type = Stem;
},
{
horizontal = 1;
place = (365,66);
type = Stem;
},
{
horizontal = 1;
place = (-12,78);
type = Stem;
},
{
place = (534,102);
type = Stem;
},
{
place = (513,93);
type = Stem;
},
{
place = (90,93);
type = Stem;
},
{
place = (60,102);
type = Stem;
}
);
layerId = m01;
shapes = (
{
closed = 1;
nodes = (
(513,-12,o),
(636,103,o),
(636,211,cs),
(636,315,o),
(565,368,o),
(484,408,c),
(555,444,o),
(606,502,o),
(606,566,cs),
(606,662,o),
(519,765,o),
(348,765,cs),
(178,765,o),
(90,662,o),
(90,566,cs),
(90,502,o),
(141,444,o),
(213,408,c),
(132,368,o),
(60,315,o),
(60,211,cs),
(60,103,o),
(184,-12,o),
(348,-12,cs)
);
},
{
closed = 1;
nodes = (
(513,475,o),
(421,431,o),
(348,431,cs),
(275,431,o),
(183,475,o),
(183,566,cs),
(183,660,o),
(275,693,o),
(348,693,cs),
(421,693,o),
(513,660,o),
(513,566,cs)
);
},
{
closed = 1;
nodes = (
(534,120,o),
(451,66,o),
(348,66,cs),
(245,66,o),
(162,120,o),
(162,211,cs),
(162,305,o),
(239,365,o),
(348,365,cs),
(457,365,o),
(534,305,o),
(534,211,cs)
);
}
);
width = 696;
}
);
note = eight;
unicode = 56;
},
{
glyphname = nine;
layers = (
{
hints = (
{
horizontal = 1;
place = (690,75);
type = Stem;
},
{
horizontal = 1;
place = (267,75);
type = Stem;
},
{
horizontal = 1;
place = (-12,78);
type = Stem;
},
{
place = (483,87);
type = Stem;
},
{
place = (473,97);
type = Stem;
},
{
place = (55,90);
type = Stem;
},
{
place = (54,100);
type = Stem;
}
);
layerId = m01;
shapes = (
{
closed = 1;
nodes = (
(55,357,o),
(158,267,o),
(290,267,cs),
(391,267,o),
(456,336,o),
(483,396,c),
(483,203,o),
(443,64,o),
(289,66,cs),
(206,67,o),
(154,108,o),
(154,201,c),
(54,201,l),
(65,80,o),
(141,-12,o),
(289,-12,cs),
(519,-12,o),
(570,216,o),
(570,375,cs),
(570,564,o),
(530,765,o),
(297,765,cs),
(176,765,o),
(55,678,o),
(55,522,cs)
);
},
{
closed = 1;
nodes = (
(413,690,o),
(470,616,o),
(473,522,cs),
(476,431,o),
(410,342,o),
(308,342,cs),
(172,342,o),
(145,428,o),
(145,513,cs),
(145,604,o),
(175,690,o),
(297,690,cs)
);
}
);
width = 624;
}
);
note = nine;
unicode = 57;
},
{
glyphname = onequarter;
layers = (
{
hints = (
{
horizontal = 1;
place = (626,54);
type = Stem;
},
{
horizontal = 1;
place = (89,63);
type = Stem;
},
{
place = (610,69);
type = Stem;
},
{
place = (146,75);
type = Stem;
}
);
layerId = m01;
shapes = (
{
closed = 1;
nodes = (
(520,753,l),
(172,0,l),
(239,0,l),
(587,753,l)
);
},
{
closed = 1;
nodes = (
(221,348,l),
(221,753,l),
(164,753,l),
(157,691,o),
(110,680,o),
(54,680,c),
(54,626,l),
(100,626,o),
(130,631,o),
(146,639,c),
(146,348,l)
);
},
{
closed = 1;
nodes = (
(752,89,l),
(752,152,l),
(679,152,l),
(679,405,l),
(610,405,l),
(431,157,l),
(431,89,l),
(610,89,l),
(610,0,l),
(679,0,l),
(679,89,l)
);
},
{
closed = 1;
nodes = (
(610,152,l),
(483,152,l),
(610,325,l)
);
}
);
width = 806;
}
);
note = onequarter;
unicode = 188;
},
{
glyphname = onehalf;
layers = (
{
hints = (
{
horizontal = 1;
place = (626,54);
type = Stem;
},
{
horizontal = 1;
place = (357,56);
type = Stem;
},
{
horizontal = 1;
place = (0,63);
type = Stem;
},
{
place = (679,71);
type = Stem;
},
{
place = (487,263);
type = Stem;
},
{
place = (480,61);
type = Stem;
},
{
place = (146,75);
type = Stem;
}
);
layerId = m01;
shapes = (
{
closed = 1;
nodes = (
(520,753,l),
(172,0,l),
(239,0,l),
(587,753,l)
);
},
{
closed = 1;
nodes = (
(221,348,l),
(221,753,l),
(164,753,l),
(157,691,o),
(110,680,o),
(54,680,c),
(54,626,l),
(100,626,o),
(130,631,o),
(146,639,c),
(146,348,l)
);
},
{
closed = 1;
nodes = (
(750,63,l),
(553,63,l),
(640,107,o),
(750,138,o),
(750,269,cs),
(750,323,o),
(721,413,o),
(606,413,cs),
(495,413,o),
(477,318,o),
(480,263,c),
(541,263,l),
(538,331,o),
(561,357,o),
(611,357,cs),
(670,357,o),
(679,296,o),
(679,268,cs),
(679,175,o),
(633,160,o),
(487,82,c),
(487,0,l),
(750,0,l)
);
}
);
width = 804;
}
);
note = onehalf;
unicode = 189;
},
{
glyphname = threequarters;
layers = (
{
hints = (
{
horizontal = 1;
place = (714,51);
type = Stem;
},
{
horizontal = 1;
place = (571,21);
type = Stem;
},
{
horizontal = 1;
place = (540,52);
type = Stem;
},
{
horizontal = 1;
place = (348,55);
type = Stem;
},
{
horizontal = 1;
place = (89,63);
type = Stem;
},
{
place = (708,69);
type = Stem;
},
{
place = (286,69);
type = Stem;
},
{
place = (277,66);
type = Stem;
},
{
place = (67,58);
type = Stem;
}
);
layerId = m01;
shapes = (
{
closed = 1;
nodes = (
(54,490,l),
(58,427,o),
(83,348,o),
(208,348,cs),
(298,348,o),
(355,398,o),
(355,468,cs),
(355,517,o),
(324,553,o),
(261,571,c),
(313,583,o),
(343,602,o),
(343,657,cs),
(343,719,o),
(292,765,o),
(201,765,cs),
(99,765,o),
(70,701,o),
(67,638,c),
(125,638,l),
(125,687,o),
(147,714,o),
(201,714,cs),
(259,714,o),
(277,685,o),
(277,648,cs),
(277,617,o),
(259,594,o),
(208,592,cs),
(134,592,l),
(134,540,l),
(192,540,ls),
(255,540,o),
(286,512,o),
(286,471,cs),
(286,432,o),
(264,403,o),
(208,403,cs),
(142,403,o),
(117,424,o),
(116,490,c)
);
},
{
closed = 1;
nodes = (
(618,753,l),
(270,0,l),
(337,0,l),
(685,753,l)
);
},
{
closed = 1;
nodes = (
(850,89,l),
(850,152,l),
(777,152,l),
(777,405,l),
(708,405,l),
(529,157,l),
(529,89,l),
(708,89,l),
(708,0,l),
(777,0,l),
(777,89,l)
);
},
{
closed = 1;
nodes = (
(708,152,l),
(581,152,l),
(708,325,l)
);
}
);
width = 904;
}
);
note = threequarters;
unicode = 190;
},
{
glyphname = onethird;
layers = (
{
hints = (
{
horizontal = 1;
place = (626,54);
type = Stem;
},
{
horizontal = 1;
place = (363,51);
type = Stem;
},
{
horizontal = 1;
place = (220,21);
type = Stem;
},
{
horizontal = 1;
place = (189,52);
type = Stem;
},
{
horizontal = 1;
place = (-3,55);
type = Stem;
},
{
place = (728,69);
type = Stem;
},
{
place = (719,66);
type = Stem;
},
{
place = (509,58);
type = Stem;
},
{
place = (146,75);
type = Stem;
}
);
layerId = m01;
shapes = (
{
closed = 1;
nodes = (
(520,753,l),
(172,0,l),
(239,0,l),
(587,753,l)
);
},
{
closed = 1;
nodes = (
(221,348,l),
(221,753,l),
(164,753,l),
(157,691,o),
(110,680,o),
(54,680,c),
(54,626,l),
(100,626,o),
(130,631,o),
(146,639,c),
(146,348,l)
);
},
{
closed = 1;
nodes = (
(496,139,l),
(500,76,o),
(525,-3,o),
(650,-3,cs),
(740,-3,o),
(797,47,o),
(797,117,cs),
(797,166,o),
(766,202,o),
(703,220,c),
(755,232,o),
(785,251,o),
(785,306,cs),
(785,368,o),
(734,414,o),
(643,414,cs),
(541,414,o),
(512,350,o),
(509,287,c),
(567,287,l),
(567,336,o),
(589,363,o),
(643,363,cs),
(701,363,o),
(719,334,o),
(719,297,cs),
(719,266,o),
(701,243,o),
(650,241,cs),
(576,241,l),
(576,189,l),
(634,189,ls),
(697,189,o),
(728,161,o),
(728,120,cs),
(728,81,o),
(706,52,o),
(650,52,cs),
(584,52,o),
(559,73,o),
(558,139,c)
);
}
);
width = 851;
}
);
note = onethird;
unicode = 8531;
},
{
glyphname = twothirds;
layers = (
{
hints = (
{
horizontal = 1;
place = (700,56);
type = Stem;
},
{
horizontal = 1;
place = (363,51);
type = Stem;
},
{
horizontal = 1;
place = (343,63);
type = Stem;
},
{
horizontal = 1;
place = (220,21);
type = Stem;
},
{
horizontal = 1;
place = (189,52);
type = Stem;
},
{
horizontal = 1;
place = (-3,55);
type = Stem;
},
{
place = (836,69);
type = Stem;
},
{
place = (827,66);
type = Stem;
},
{
place = (617,58);
type = Stem;
},
{
place = (253,71);
type = Stem;
},
{
place = (61,263);
type = Stem;
},
{
place = (54,61);
type = Stem;
}
);
layerId = m01;
shapes = (
{
closed = 1;
nodes = (
(324,406,l),
(127,406,l),
(214,450,o),
(324,481,o),
(324,612,cs),
(324,666,o),
(295,756,o),
(180,756,cs),
(69,756,o),
(51,661,o),
(54,606,c),
(115,606,l),
(112,674,o),
(135,700,o),
(185,700,cs),
(244,700,o),
(253,639,o),
(253,611,cs),
(253,518,o),
(207,503,o),
(61,425,c),
(61,343,l),
(324,343,l)
);
},
{
closed = 1;
nodes = (
(628,753,l),
(280,0,l),
(347,0,l),
(695,753,l)
);
},
{
closed = 1;
nodes = (
(604,139,l),
(608,76,o),
(633,-3,o),
(758,-3,cs),
(848,-3,o),
(905,47,o),
(905,117,cs),
(905,166,o),
(874,202,o),
(811,220,c),
(863,232,o),
(893,251,o),
(893,306,cs),
(893,368,o),
(842,414,o),
(751,414,cs),
(649,414,o),
(620,350,o),
(617,287,c),
(675,287,l),
(675,336,o),
(697,363,o),
(751,363,cs),
(809,363,o),
(827,334,o),
(827,297,cs),
(827,266,o),
(809,243,o),
(758,241,cs),
(684,241,l),
(684,189,l),
(742,189,ls),
(805,189,o),
(836,161,o),
(836,120,cs),
(836,81,o),
(814,52,o),
(758,52,cs),
(692,52,o),
(667,73,o),
(666,139,c)
);
}
);
width = 959;
}
);
note = twothirds;
unicode = 8532;
},
{
glyphname = oneeighth;
layers = (
{
hints = (
{
horizontal = 1;
place = (626,54);
type = Stem;
},
{
horizontal = 1;
place = (358,51);
type = Stem;
},
{
horizontal = 1;
place = (192,49);
type = Stem;
},
{
horizontal = 1;
place = (-3,52);
type = Stem;
},
{
place = (735,74);
type = Stem;
},
{
place = (724,69);
type = Stem;
},
{
place = (515,69);
type = Stem;
},
{
place = (499,74);
type = Stem;
},
{
place = (146,75);
type = Stem;
}
);
layerId = m01;
shapes = (
{
closed = 1;
nodes = (
(520,753,l),
(172,0,l),
(239,0,l),
(587,753,l)
);
},
{
closed = 1;
nodes = (
(221,348,l),
(221,753,l),
(164,753,l),
(157,691,o),
(110,680,o),
(54,680,c),
(54,626,l),
(100,626,o),
(130,631,o),
(146,639,c),
(146,348,l)
);
},
{
closed = 1;
nodes = (
(766,-3,o),
(809,57,o),
(809,117,cs),
(809,174,o),
(770,209,o),
(726,222,c),
(765,236,o),
(793,258,o),
(793,300,cs),
(793,365,o),
(739,409,o),
(654,409,cs),
(570,409,o),
(515,365,o),
(515,300,cs),
(515,258,o),
(543,236,o),
(583,222,c),
(538,209,o),
(499,174,o),
(499,117,cs),
(499,57,o),
(543,-3,o),
(654,-3,cs)
);
},
{
closed = 1;
nodes = (
(724,265,o),
(694,241,o),
(654,241,cs),
(614,241,o),
(584,265,o),
(584,300,cs),
(584,337,o),
(614,358,o),
(654,358,cs),
(694,358,o),
(724,337,o),
(724,300,cs)
);
},
{
closed = 1;
nodes = (
(735,82,o),
(711,49,o),
(654,49,cs),
(597,49,o),
(573,82,o),
(573,120,cs),
(573,153,o),
(594,192,o),
(654,192,cs),
(714,192,o),
(735,153,o),
(735,120,cs)
);
}
);
width = 863;
}
);
note = oneeighth;
unicode = 8539;
},
{
glyphname = threeeighths;
layers = (
{
hints = (
{
horizontal = 1;
place = (714,51);
type = Stem;
},
{
horizontal = 1;
place = (571,21);
type = Stem;
},
{
horizontal = 1;
place = (540,52);
type = Stem;
},
{
horizontal = 1;
place = (358,51);
type = Stem;
},
{
horizontal = 1;
place = (348,55);
type = Stem;
},
{
horizontal = 1;
place = (192,49);
type = Stem;
},
{
horizontal = 1;
place = (-3,52);
type = Stem;
},
{
place = (834,74);
type = Stem;
},
{
place = (823,69);
type = Stem;
},
{
place = (614,69);
type = Stem;
},
{
place = (598,74);
type = Stem;
},
{
place = (286,69);
type = Stem;
},
{
place = (277,66);
type = Stem;
},
{
place = (67,58);
type = Stem;
}
);
layerId = m01;
shapes = (
{
closed = 1;
nodes = (
(54,490,l),
(58,427,o),
(83,348,o),
(208,348,cs),
(298,348,o),
(355,398,o),
(355,468,cs),
(355,517,o),
(324,553,o),
(261,571,c),
(313,583,o),
(343,602,o),
(343,657,cs),
(343,719,o),
(292,765,o),
(201,765,cs),
(99,765,o),
(70,701,o),
(67,638,c),
(125,638,l),
(125,687,o),
(147,714,o),
(201,714,cs),
(259,714,o),
(277,685,o),
(277,648,cs),
(277,617,o),
(259,594,o),
(208,592,cs),
(134,592,l),
(134,540,l),
(192,540,ls),
(255,540,o),
(286,512,o),
(286,471,cs),
(286,432,o),
(264,403,o),
(208,403,cs),
(142,403,o),
(117,424,o),
(116,490,c)
);
},
{
closed = 1;
nodes = (
(619,753,l),
(271,0,l),
(338,0,l),
(686,753,l)
);
},
{
closed = 1;
nodes = (
(865,-3,o),
(908,57,o),
(908,117,cs),
(908,174,o),
(869,209,o),
(825,222,c),
(864,236,o),
(892,258,o),
(892,300,cs),
(892,365,o),
(838,409,o),
(753,409,cs),
(669,409,o),
(614,365,o),
(614,300,cs),
(614,258,o),
(642,236,o),
(682,222,c),
(637,209,o),
(598,174,o),
(598,117,cs),
(598,57,o),
(642,-3,o),
(753,-3,cs)
);
},
{
closed = 1;
nodes = (
(823,265,o),
(793,241,o),
(753,241,cs),
(713,241,o),
(683,265,o),
(683,300,cs),
(683,337,o),
(713,358,o),
(753,358,cs),
(793,358,o),
(823,337,o),
(823,300,cs)
);
},
{
closed = 1;
nodes = (
(834,82,o),
(810,49,o),
(753,49,cs),
(696,49,o),
(672,82,o),
(672,120,cs),
(672,153,o),
(693,192,o),
(753,192,cs),
(813,192,o),
(834,153,o),
(834,120,cs)
);
}
);
width = 962;
}
);
note = threeeighths;
unicode = 8540;
},
{
glyphname = fiveeighths;
layers = (
{
hints = (
{
horizontal = 1;
place = (702,51);
type = Stem;
},
{
horizontal = 1;
place = (591,47);
type = Stem;
},
{
horizontal = 1;
place = (358,51);
type = Stem;
},
{
horizontal = 1;
place = (347,51);
type = Stem;
},
{
horizontal = 1;
place = (192,49);
type = Stem;
},
{
horizontal = 1;
place = (-3,52);
type = Stem;
},
{
place = (820,74);
type = Stem;
},
{
place = (809,69);
type = Stem;
},
{
place = (600,69);
type = Stem;
},
{
place = (584,74);
type = Stem;
},
{
place = (287,66);
type = Stem;
},
{
place = (67,45);
type = Stem;
}
);
layerId = m01;
shapes = (
{
closed = 1;
nodes = (
(605,753,l),
(257,0,l),
(324,0,l),
(672,753,l)
);
},
{
closed = 1;
nodes = (
(319,347,o),
(353,423,o),
(353,500,cs),
(353,583,o),
(306,638,o),
(213,638,cs),
(160,638,o),
(125,606,o),
(112,586,c),
(112,702,l),
(319,702,l),
(319,753,l),
(67,753,l),
(67,528,l),
(116,528,l),
(124,563,o),
(153,591,o),
(202,591,cs),
(261,591,o),
(287,549,o),
(287,499,cs),
(287,446,o),
(265,398,o),
(204,398,cs),
(150,398,o),
(123,426,o),
(117,469,c),
(54,469,l),
(61,402,o),
(101,347,o),
(203,347,cs)
);
},
{
closed = 1;
nodes = (
(851,-3,o),
(894,57,o),
(894,117,cs),
(894,174,o),
(855,209,o),
(811,222,c),
(850,236,o),
(878,258,o),
(878,300,cs),
(878,365,o),
(824,409,o),
(739,409,cs),
(655,409,o),
(600,365,o),
(600,300,cs),
(600,258,o),
(628,236,o),
(668,222,c),
(623,209,o),
(584,174,o),
(584,117,cs),
(584,57,o),
(628,-3,o),
(739,-3,cs)
);
},
{
closed = 1;
nodes = (
(809,265,o),
(779,241,o),
(739,241,cs),
(699,241,o),
(669,265,o),
(669,300,cs),
(669,337,o),
(699,358,o),
(739,358,cs),
(779,358,o),
(809,337,o),
(809,300,cs)
);
},
{
closed = 1;
nodes = (
(820,82,o),
(796,49,o),
(739,49,cs),
(682,49,o),
(658,82,o),
(658,120,cs),
(658,153,o),
(679,192,o),
(739,192,cs),
(799,192,o),
(820,153,o),
(820,120,cs)
);
}
);
width = 948;
}
);
note = fiveeighths;
unicode = 8541;
},
{
glyphname = seveneighths;
layers = (
{
hints = (
{
horizontal = 1;
place = (693,60);
type = Stem;
},
{
horizontal = 1;
place = (358,51);
type = Stem;
},
{
horizontal = 1;
place = (192,49);
type = Stem;
},
{
horizontal = 1;
place = (-3,52);
type = Stem;
},
{
place = (749,74);
type = Stem;
},
{
place = (738,69);
type = Stem;
},
{
place = (529,69);
type = Stem;
},
{
place = (513,74);
type = Stem;
},
{
place = (112,73);
type = Stem;
},
{
place = (54,44);
type = Stem;
}
);
layerId = m01;
shapes = (
{
closed = 1;
nodes = (
(534,753,l),
(186,0,l),
(253,0,l),
(601,753,l)
);
},
{
closed = 1;
nodes = (
(185,350,l),
(185,566,o),
(247,620,o),
(303,686,c),
(303,753,l),
(54,753,l),
(54,646,l),
(98,646,l),
(98,693,l),
(255,693,l),
(215,650,o),
(109,565,o),
(112,350,c)
);
},
{
closed = 1;
nodes = (
(780,-3,o),
(823,57,o),
(823,117,cs),
(823,174,o),
(784,209,o),
(740,222,c),
(779,236,o),
(807,258,o),
(807,300,cs),
(807,365,o),
(753,409,o),
(668,409,cs),
(584,409,o),
(529,365,o),
(529,300,cs),
(529,258,o),
(557,236,o),
(597,222,c),
(552,209,o),
(513,174,o),
(513,117,cs),
(513,57,o),
(557,-3,o),
(668,-3,cs)
);
},
{
closed = 1;
nodes = (
(738,265,o),
(708,241,o),
(668,241,cs),
(628,241,o),
(598,265,o),
(598,300,cs),
(598,337,o),
(628,358,o),
(668,358,cs),
(708,358,o),
(738,337,o),
(738,300,cs)
);
},
{
closed = 1;
nodes = (
(749,82,o),
(725,49,o),
(668,49,cs),
(611,49,o),
(587,82,o),
(587,120,cs),
(587,153,o),
(608,192,o),
(668,192,cs),
(728,192,o),
(749,153,o),
(749,120,cs)
);
}
);
width = 877;
}
);
note = seveneighths;
unicode = 8542;
},
{
glyphname = underscore;
layers = (
{
hints = (
{
horizontal = 1;
place = (-232,78);
type = Stem;
},
{
place = (0,402);
type = Stem;
}
);
layerId = m01;
shapes = (
{
closed = 1;
nodes = (
(402,-232,l),
(402,-154,l),
(0,-154,l),
(0,-232,l)
);
}
);
width = 402;
}
);
note = underscore;
unicode = 95;
},
{
glyphname = hyphen;
layers = (
{
hints = (
{
horizontal = 1;
place = (267,84);
type = Stem;
},
{
place = (45,267);
type = Stem;
}
);
layerId = m01;
shapes = (
{
closed = 1;
nodes = (
(312,267,l),
(312,351,l),
(45,351,l),
(45,267,l)
);
}
);
width = 357;
}
);
note = hyphen;
unicode = 45;
},
{
glyphname = endash;
layers = (
{
hints = (
{
horizontal = 1;
place = (237,84);
type = Stem;
},
{
place = (45,417);
type = Stem;
}
);
layerId = m01;
shapes = (
{
closed = 1;
nodes = (
(462,237,l),
(462,321,l),
(45,321,l),
(45,237,l)
);
}
);
width = 507;
}
);
note = endash;
unicode = 8211;
},
{
glyphname = emdash;
layers = (
{
hints = (
{
horizontal = 1;
place = (237,84);
type = Stem;
},
{
place = (45,711);
type = Stem;
}
);
layerId = m01;
shapes = (
{
closed = 1;
nodes = (
(756,237,l),
(756,321,l),
(45,321,l),
(45,237,l)
);
}
);
width = 801;
}
);
note = emdash;
unicode = 8212;
},
{
glyphname = parenleft;
layers = (
{
hints = (
{
horizontal = 1;
place = (-232,985);
type = Stem;
},
{
place = (60,94);
type = Stem;
}
);
layerId = m01;
shapes = (
{
closed = 1;
nodes = (
(60,63,o),
(166,-139,o),
(243,-232,c),
(315,-232,l),
(257,-139,o),
(154,29,o),
(154,261,cs),
(154,493,o),
(257,660,o),
(315,753,c),
(243,753,l),
(166,660,o),
(60,459,o),
(60,261,cs)
);
}
);
width = 330;
}
);
note = parenleft;
unicode = 40;
},
{
glyphname = bracketleft;
layers = (
{
hints = (
{
horizontal = 1;
place = (675,78);
type = Stem;
},
{
horizontal = 1;
place = (-232,78);
type = Stem;
},
{
place = (90,201);
type = Stem;
},
{
place = (90,90);
type = Stem;
}
);
layerId = m01;
shapes = (
{
closed = 1;
nodes = (
(291,-154,l),
(180,-154,l),
(180,675,l),
(291,675,l),
(291,753,l),
(90,753,l),
(90,-232,l),
(291,-232,l)
);
}
);
width = 312;
}
);
note = bracketleft;
unicode = 91;
},
{
glyphname = braceleft;
layers = (
{
hints = (
{
horizontal = 1;
place = (684,81);
type = Stem;
},
{
horizontal = 1;
place = (219,82);
type = Stem;
},
{
horizontal = 1;
place = (-232,81);
type = Stem;
},
{
place = (73,90);
type = Stem;
}
);
layerId = m01;
shapes = (
{
closed = 1;
nodes = (
(73,-76,ls),
(73,-102,o),
(78,-232,o),
(194,-232,cs),
(244,-232,o),
(256,-230,o),
(256,-230,c),
(256,-149,l),
(256,-149,o),
(248,-151,o),
(217,-151,cs),
(183,-151,o),
(163,-117,o),
(163,-86,cs),
(163,146,ls),
(163,162,o),
(166,220,o),
(91,260,c),
(166,300,o),
(163,358,o),
(163,374,cs),
(163,619,ls),
(163,650,o),
(183,684,o),
(217,684,cs),
(248,684,o),
(256,682,o),
(256,682,c),
(256,763,l),
(256,763,o),
(244,765,o),
(194,765,cs),
(78,765,o),
(73,635,o),
(73,609,cs),
(73,364,ls),
(73,333,o),
(52,301,o),
(0,301,c),
(0,219,l),
(52,219,o),
(73,187,o),
(73,156,cs)
);
}
);
width = 277;
}
);
note = braceleft;
unicode = 123;
},
{
glyphname = uni201E;
layers = (
{
hints = (
{
horizontal = 1;
place = (0,114);
type = Stem;
},
{
horizontal = 1;
place = (-156,51);
type = Stem;
},
{
place = (321,51);
type = Stem;
},
{
place = (258,114);
type = Stem;
},
{
place = (123,51);
type = Stem;
},
{
place = (60,114);
type = Stem;
}
);
layerId = m01;
shapes = (
{
closed = 1;
nodes = (
(372,114,l),
(258,114,l),
(258,0,l),
(321,0,l),
(321,-93,o),
(288,-105,o),
(258,-105,c),
(258,-156,l),
(296,-156,o),
(372,-151,o),
(372,27,cs)
);
},
{
closed = 1;
nodes = (
(174,114,l),
(60,114,l),
(60,0,l),
(123,0,l),
(123,-93,o),
(90,-105,o),
(60,-105,c),
(60,-156,l),
(98,-156,o),
(174,-151,o),
(174,27,cs)
);
}
);
width = 432;
}
);
note = uni201E;
unicode = 8222;
},
{
glyphname = parenright;
layers = (
{
hints = (
{
horizontal = 1;
place = (-232,985);
type = Stem;
},
{
place = (176,94);
type = Stem;
}
);
layerId = m01;
shapes = (
{
closed = 1;
nodes = (
(270,459,o),
(164,660,o),
(87,753,c),
(15,753,l),
(73,660,o),
(176,493,o),
(176,261,cs),
(176,29,o),
(73,-139,o),
(15,-232,c),
(87,-232,l),
(164,-139,o),
(270,63,o),
(270,261,cs)
);
}
);
width = 330;
}
);
note = parenright;
unicode = 41;
},
{
glyphname = bracketright;
layers = (
{
hints = (
{
horizontal = 1;
place = (675,78);
type = Stem;
},
{
horizontal = 1;
place = (-232,78);
type = Stem;
},
{
place = (132,90);
type = Stem;
},
{
place = (21,201);
type = Stem;
}
);
layerId = m01;
shapes = (
{
closed = 1;
nodes = (
(21,-154,l),
(21,-232,l),
(222,-232,l),
(222,753,l),
(21,753,l),
(21,675,l),
(132,675,l),
(132,-154,l)
);
}
);
width = 312;
}
);
note = bracketright;
unicode = 93;
},
{
glyphname = braceright;
layers = (
{
hints = (
{
horizontal = 1;
place = (684,81);
type = Stem;
},
{
horizontal = 1;
place = (219,82);
type = Stem;
},
{
horizontal = 1;
place = (-232,81);
type = Stem;
},
{
place = (114,90);
type = Stem;
}
);
layerId = m01;
shapes = (
{
closed = 1;
nodes = (
(204,156,ls),
(204,187,o),
(225,219,o),
(277,219,c),
(277,301,l),
(225,301,o),
(204,333,o),
(204,364,cs),
(204,609,ls),
(204,635,o),
(199,765,o),
(83,765,cs),
(33,765,o),
(21,763,o),
(21,763,c),
(21,682,l),
(21,682,o),
(29,684,o),
(60,684,cs),
(94,684,o),
(114,650,o),
(114,619,cs),
(114,374,ls),
(114,358,o),
(111,300,o),
(186,260,c),
(111,220,o),
(114,162,o),
(114,146,cs),
(114,-86,ls),
(114,-117,o),
(94,-151,o),
(60,-151,cs),
(29,-151,o),
(21,-149,o),
(21,-149,c),
(21,-230,l),
(21,-230,o),
(33,-232,o),
(83,-232,cs),
(199,-232,o),
(204,-102,o),
(204,-76,cs)
);
}
);
width = 277;
}
);
note = braceright;
unicode = 125;
},
{
glyphname = guillemotleft;
layers = (
{
hints = (
{
horizontal = 1;
place = (103,413);
type = Stem;
},
{
place = (262,181);
type = Stem;
},
{
place = (60,181);
type = Stem;
}
);
layerId = m01;
shapes = (
{
closed = 1;
nodes = (
(60,367,l),
(60,252,l),
(241,103,l),
(241,205,l),
(114,310,l),
(241,414,l),
(241,516,l)
);
},
{
closed = 1;
nodes = (
(262,367,l),
(262,252,l),
(443,103,l),
(443,205,l),
(316,310,l),
(443,414,l),
(443,516,l)
);
}
);
width = 503;
}
);
note = guillemotleft;
unicode = 171;
},
{
glyphname = quoteleft;
layers = (
{
hints = (
{
horizontal = 1;
place = (708,51);
type = Stem;
},
{
horizontal = 1;
place = (489,114);
type = Stem;
},
{
place = (60,114);
type = Stem;
},
{
place = (60,51);
type = Stem;
}
);
layerId = m01;
shapes = (
{
closed = 1;
nodes = (
(60,489,l),
(174,489,l),
(174,603,l),
(111,603,l),
(111,696,o),
(144,708,o),
(174,708,c),
(174,759,l),
(136,759,o),
(60,754,o),
(60,576,cs)
);
}
);
width = 234;
}
);
note = quoteleft;
unicode = 8216;
},
{
glyphname = quotedblleft;
layers = (
{
hints = (
{
horizontal = 1;
place = (708,51);
type = Stem;
},
{
horizontal = 1;
place = (489,114);
type = Stem;
},
{
place = (258,114);
type = Stem;
},
{
place = (258,51);
type = Stem;
},
{
place = (60,114);
type = Stem;
},
{
place = (60,51);
type = Stem;
}
);
layerId = m01;
shapes = (
{
closed = 1;
nodes = (
(60,489,l),
(174,489,l),
(174,603,l),
(111,603,l),
(111,696,o),
(144,708,o),
(174,708,c),
(174,759,l),
(136,759,o),
(60,754,o),
(60,576,cs)
);
},
{
closed = 1;
nodes = (
(258,489,l),
(372,489,l),
(372,603,l),
(309,603,l),
(309,696,o),
(342,708,o),
(372,708,c),
(372,759,l),
(334,759,o),
(258,754,o),
(258,576,cs)
);
}
);
width = 432;
}
);
note = quotedblleft;
unicode = 8220;
},
{
glyphname = uni2039;
layers = (
{
hints = (
{
horizontal = 1;
place = (103,413);
type = Stem;
},
{
place = (60,181);
type = Stem;
}
);
layerId = m01;
shapes = (
{
closed = 1;
nodes = (
(60,367,l),
(60,252,l),
(241,103,l),
(241,205,l),
(114,310,l),
(241,414,l),
(241,516,l)
);
}
);
width = 301;
}
);
note = uni2039;
unicode = 8249;
},
{
glyphname = guillemotright;
layers = (
{
hints = (
{
horizontal = 1;
place = (103,413);
type = Stem;
},
{
place = (262,181);
type = Stem;
},
{
place = (60,181);
type = Stem;
}
);
layerId = m01;
shapes = (
{
closed = 1;
nodes = (
(443,367,l),
(262,516,l),
(262,414,l),
(389,310,l),
(262,205,l),
(262,103,l),
(443,252,l)
);
},
{
closed = 1;
nodes = (
(241,367,l),
(60,516,l),
(60,414,l),
(187,310,l),
(60,205,l),
(60,103,l),
(241,252,l)
);
}
);
width = 503;
}
);
note = guillemotright;
unicode = 187;
},
{
glyphname = quoteright;
layers = (
{
hints = (
{
horizontal = 1;
place = (639,114);
type = Stem;
},
{
horizontal = 1;
place = (483,51);
type = Stem;
},
{
place = (123,51);
type = Stem;
},
{
place = (60,114);
type = Stem;
}
);
layerId = m01;
shapes = (
{
closed = 1;
nodes = (
(174,753,l),
(60,753,l),
(60,639,l),
(123,639,l),
(123,546,o),
(90,534,o),
(60,534,c),
(60,483,l),
(98,483,o),
(174,488,o),
(174,666,cs)
);
}
);
width = 234;
}
);
note = quoteright;
unicode = 8217;
},
{
glyphname = quotedblright;
layers = (
{
hints = (
{
horizontal = 1;
place = (639,114);
type = Stem;
},
{
horizontal = 1;
place = (483,51);
type = Stem;
},
{
place = (321,51);
type = Stem;
},
{
place = (258,114);
type = Stem;
},
{
place = (123,51);
type = Stem;
},
{
place = (60,114);
type = Stem;
}
);
layerId = m01;
shapes = (
{
closed = 1;
nodes = (
(372,753,l),
(258,753,l),
(258,639,l),
(321,639,l),
(321,546,o),
(288,534,o),
(258,534,c),
(258,483,l),
(296,483,o),
(372,488,o),
(372,666,cs)
);
},
{
closed = 1;
nodes = (
(174,753,l),
(60,753,l),
(60,639,l),
(123,639,l),
(123,546,o),
(90,534,o),
(60,534,c),
(60,483,l),
(98,483,o),
(174,488,o),
(174,666,cs)
);
}
);
width = 432;
}
);
note = quotedblright;
unicode = 8221;
},
{
glyphname = uni203A;
layers = (
{
hints = (
{
horizontal = 1;
place = (103,413);
type = Stem;
},
{
place = (60,181);
type = Stem;
}
);
layerId = m01;
shapes = (
{
closed = 1;
nodes = (
(241,367,l),
(60,516,l),
(60,414,l),
(187,310,l),
(60,205,l),
(60,103,l),
(241,252,l)
);
}
);
width = 301;
}
);
note = uni203A;
unicode = 8250;
},
{
glyphname = exclam;
layers = (
{
hints = (
{
horizontal = 1;
place = (192,561);
type = Stem;
},
{
horizontal = 1;
place = (0,108);
type = Stem;
},
{
place = (63,108);
type = Stem;
}
);
layerId = m01;
shapes = (
{
closed = 1;
nodes = (
(97,192,l),
(139,192,l),
(174,753,l),
(60,753,l)
);
},
{
closed = 1;
nodes = (
(63,0,l),
(171,0,l),
(171,108,l),
(63,108,l)
);
}
);
width = 234;
}
);
note = exclam;
unicode = 33;
},
{
glyphname = quotedbl;
layers = (
{
hints = (
{
horizontal = 1;
place = (486,267);
type = Stem;
},
{
place = (60,308);
type = Stem;
}
);
layerId = m01;
shapes = (
{
closed = 1;
nodes = (
(84,486,l),
(144,486,l),
(168,753,l),
(60,753,l)
);
},
{
closed = 1;
nodes = (
(284,486,l),
(344,486,l),
(368,753,l),
(260,753,l)
);
}
);
width = 428;
}
);
note = quotedbl;
unicode = 34;
},
{
glyphname = numbersign;
layers = (
{
hints = (
{
horizontal = 1;
place = (444,78);
type = Stem;
},
{
horizontal = 1;
place = (229,78);
type = Stem;
},
{
place = (45,576);
type = Stem;
}
);
layerId = m01;
shapes = (
{
closed = 1;
nodes = (
(360,0,l),
(438,0,l),
(465,229,l),
(585,229,l),
(594,307,l),
(475,307,l),
(491,444,l),
(612,444,l),
(621,522,l),
(500,522,l),
(528,753,l),
(450,753,l),
(422,522,l),
(278,522,l),
(306,753,l),
(228,753,l),
(200,522,l),
(80,522,l),
(71,444,l),
(191,444,l),
(175,307,l),
(54,307,l),
(45,229,l),
(165,229,l),
(138,0,l),
(216,0,l),
(243,229,l),
(387,229,l)
);
},
{
closed = 1;
nodes = (
(397,307,l),
(253,307,l),
(269,444,l),
(413,444,l)
);
}
);
width = 666;
}
);
note = numbersign;
unicode = 35;
},
{
glyphname = percent;
layers = (
{
hints = (
{
horizontal = 1;
place = (703,62);
type = Stem;
},
{
horizontal = 1;
place = (348,62);
type = Stem;
},
{
horizontal = 1;
place = (343,62);
type = Stem;
},
{
horizontal = 1;
place = (-12,62);
type = Stem;
},
{
place = (784,75);
type = Stem;
},
{
place = (499,77);
type = Stem;
},
{
place = (339,75);
type = Stem;
},
{
place = (54,75);
type = Stem;
}
);
layerId = m01;
shapes = (
{
closed = 1;
nodes = (
(54,438,o),
(133,348,o),
(234,348,cs),
(336,348,o),
(414,438,o),
(414,558,cs),
(414,678,o),
(336,765,o),
(234,765,cs),
(133,765,o),
(54,678,o),
(54,558,cs)
);
},
{
closed = 1;
nodes = (
(597,753,l),
(249,0,l),
(316,0,l),
(664,753,l)
);
},
{
closed = 1;
nodes = (
(328,703,o),
(339,613,o),
(339,558,cs),
(339,503,o),
(328,410,o),
(234,410,cs),
(140,410,o),
(129,503,o),
(129,558,cs),
(129,613,o),
(140,703,o),
(234,703,cs)
);
},
{
closed = 1;
nodes = (
(499,78,o),
(578,-12,o),
(679,-12,cs),
(781,-12,o),
(859,78,o),
(859,198,cs),
(859,318,o),
(781,405,o),
(679,405,cs),
(578,405,o),
(499,318,o),
(499,198,cs)
);
},
{
closed = 1;
nodes = (
(773,343,o),
(784,253,o),
(784,198,cs),
(784,143,o),
(773,50,o),
(679,50,cs),
(585,50,o),
(576,143,o),
(576,198,cs),
(576,253,o),
(585,343,o),
(679,343,cs)
);
}
);
width = 913;
}
);
note = percent;
unicode = 37;
},
{
glyphname = ampersand;
layers = (
{
hints = (
{
horizontal = 1;
place = (700,65);
type = Stem;
},
{
horizontal = 1;
place = (0,390);
type = Stem;
},
{
horizontal = 1;
place = (-12,75);
type = Stem;
},
{
place = (505,78);
type = Stem;
},
{
place = (392,75);
type = Stem;
},
{
place = (121,78);
type = Stem;
},
{
place = (45,81);
type = Stem;
}
);
layerId = m01;
shapes = (
{
closed = 1;
nodes = (
(531,0,l),
(625,0,l),
(514,146,l),
(564,235,o),
(581,338,o),
(583,390,c),
(505,390,l),
(502,333,o),
(493,266,o),
(468,207,c),
(311,414,l),
(391,460,o),
(467,507,o),
(467,594,cs),
(467,683,o),
(416,765,o),
(303,765,cs),
(229,765,o),
(117,726,o),
(121,591,cs),
(122,562,o),
(133,526,o),
(161,487,cs),
(204,430,l),
(123,381,o),
(45,319,o),
(45,210,cs),
(45,52,o),
(164,-12,o),
(260,-12,cs),
(353,-12,o),
(420,27,o),
(469,82,c)
);
},
{
closed = 1;
nodes = (
(257,485,ls),
(226,527,o),
(199,564,o),
(199,594,cs),
(199,673,o),
(255,700,o),
(302,700,cs),
(355,700,o),
(392,660,o),
(392,594,cs),
(392,540,o),
(337,505,o),
(270,467,c)
);
},
{
closed = 1;
nodes = (
(194,63,o),
(126,113,o),
(126,207,cs),
(126,287,o),
(180,335,o),
(245,376,c),
(427,137,l),
(390,93,o),
(338,63,o),
(263,63,cs)
);
}
);
width = 670;
}
);
note = ampersand;
unicode = 38;
},
{
glyphname = quotesingle;
layers = (
{
hints = (
{
horizontal = 1;
place = (486,267);
type = Stem;
},
{
place = (60,108);
type = Stem;
}
);
layerId = m01;
shapes = (
{
closed = 1;
nodes = (
(84,486,l),
(144,486,l),
(168,753,l),
(60,753,l)
);
}
);
width = 228;
}
);
note = quotesingle;
unicode = 39;
},
{
glyphname = asterisk;
layers = (
{
hints = (
{
horizontal = 1;
place = (498,255);
type = Stem;
},
{
place = (45,530);
type = Stem;
}
);
layerId = m01;
shapes = (
{
closed = 1;
nodes = (
(289,498,l),
(331,498,l),
(355,753,l),
(265,753,l)
);
},
{
closed = 1;
nodes = (
(331,498,l),
(348,457,l),
(575,524,l),
(540,607,l)
);
},
{
closed = 1;
nodes = (
(289,498,l),
(80,607,l),
(45,524,l),
(272,458,l)
);
},
{
closed = 1;
nodes = (
(310,433,l),
(272,458,l),
(102,266,l),
(174,213,l)
);
},
{
closed = 1;
nodes = (
(310,433,l),
(440,209,l),
(513,260,l),
(348,457,l)
);
}
);
width = 620;
}
);
note = asterisk;
unicode = 42;
},
{
glyphname = comma;
layers = (
{
hints = (
{
horizontal = 1;
place = (0,114);
type = Stem;
},
{
horizontal = 1;
place = (-156,51);
type = Stem;
},
{
place = (123,51);
type = Stem;
},
{
place = (60,114);
type = Stem;
}
);
layerId = m01;
shapes = (
{
closed = 1;
nodes = (
(174,114,l),
(60,114,l),
(60,0,l),
(123,0,l),
(123,-93,o),
(90,-105,o),
(60,-105,c),
(60,-156,l),
(98,-156,o),
(174,-151,o),
(174,27,cs)
);
}
);
width = 234;
}
);
note = comma;
unicode = 44;
},
{
glyphname = period;
layers = (
{
hints = (
{
horizontal = 1;
place = (0,114);
type = Stem;
},
{
place = (60,114);
type = Stem;
}
);
layerId = m01;
shapes = (
{
closed = 1;
nodes = (
(60,0,l),
(174,0,l),
(174,114,l),
(60,114,l)
);
}
);
width = 234;
}
);
note = period;
unicode = 46;
},
{
glyphname = slash;
layers = (
{
hints = (
{
horizontal = 1;
place = (-232,985);
type = Stem;
},
{
place = (-15,551);
type = Stem;
}
);
layerId = m01;
shapes = (
{
closed = 1;
nodes = (
(450,753,l),
(-15,-232,l),
(71,-232,l),
(536,753,l)
);
}
);
width = 542;
}
);
note = slash;
unicode = 47;
},
{
glyphname = colon;
layers = (
{
hints = (
{
horizontal = 1;
place = (408,114);
type = Stem;
},
{
horizontal = 1;
place = (0,114);
type = Stem;
},
{
place = (60,114);
type = Stem;
}
);
layerId = m01;
shapes = (
{
closed = 1;
nodes = (
(60,408,l),
(174,408,l),
(174,522,l),
(60,522,l)
);
},
{
closed = 1;
nodes = (
(60,0,l),
(174,0,l),
(174,114,l),
(60,114,l)
);
}
);
width = 234;
}
);
note = colon;
unicode = 58;
},
{
glyphname = semicolon;
layers = (
{
hints = (
{
horizontal = 1;
place = (408,114);
type = Stem;
},
{
horizontal = 1;
place = (0,114);
type = Stem;
},
{
horizontal = 1;
place = (-156,51);
type = Stem;
},
{
place = (123,51);
type = Stem;
},
{
place = (60,114);
type = Stem;
}
);
layerId = m01;
shapes = (
{
closed = 1;
nodes = (
(60,408,l),
(174,408,l),
(174,522,l),
(60,522,l)
);
},
{
closed = 1;
nodes = (
(174,114,l),
(60,114,l),
(60,0,l),
(123,0,l),
(123,-93,o),
(90,-105,o),
(60,-105,c),
(60,-156,l),
(98,-156,o),
(174,-151,o),
(174,27,cs)
);
}
);
width = 234;
}
);
note = semicolon;
unicode = 59;
},
{
glyphname = question;
layers = (
{
hints = (
{
horizontal = 1;
place = (687,78);
type = Stem;
},
{
horizontal = 1;
place = (0,108);
type = Stem;
},
{
place = (441,90);
type = Stem;
},
{
place = (228,88);
type = Stem;
},
{
place = (218,108);
type = Stem;
}
);
layerId = m01;
shapes = (
{
closed = 1;
nodes = (
(316,243,ls),
(316,384,o),
(531,356,o),
(531,553,cs),
(531,633,o),
(489,765,o),
(290,765,cs),
(88,765,o),
(51,602,o),
(45,542,c),
(138,542,l),
(141,603,o),
(174,687,o),
(296,687,cs),
(381,687,o),
(441,640,o),
(441,553,cs),
(441,396,o),
(226,441,o),
(228,252,cs),
(228,192,l),
(316,192,l)
);
},
{
closed = 1;
nodes = (
(218,0,l),
(326,0,l),
(326,108,l),
(218,108,l)
);
}
);
width = 576;
}
);
note = question;
unicode = 63;
},
{
glyphname = at;
layers = (
{
hints = (
{
horizontal = 1;
place = (705,60);
type = Stem;
},
{
horizontal = 1;
place = (514,54);
type = Stem;
},
{
horizontal = 1;
place = (182,60);
type = Stem;
},
{
horizontal = 1;
place = (182,57);
type = Stem;
},
{
horizontal = 1;
place = (-12,60);
type = Stem;
},
{
place = (714,63);
type = Stem;
},
{
place = (211,69);
type = Stem;
},
{
place = (45,63);
type = Stem;
}
);
layerId = m01;
shapes = (
{
closed = 1;
nodes = (
(777,537,o),
(681,765,o),
(408,765,cs),
(144,765,o),
(45,537,o),
(45,378,cs),
(45,219,o),
(142,-12,o),
(408,-12,cs),
(526,-12,o),
(614,34,o),
(675,99,c),
(638,145,l),
(583,87,o),
(506,48,o),
(408,48,cs),
(210,48,o),
(108,194,o),
(108,378,cs),
(108,562,o),
(210,705,o),
(408,705,cs),
(615,705,o),
(714,562,o),
(714,378,cs),
(714,297,o),
(696,242,o),
(639,242,cs),
(615,242,o),
(557,257,o),
(565,324,cs),
(594,560,l),
(531,560,l),
(524,507,l),
(500,550,o),
(454,568,o),
(402,568,cs),
(280,568,o),
(211,439,o),
(211,331,cs),
(211,251,o),
(288,182,o),
(350,182,cs),
(453,182,o),
(495,257,o),
(505,294,c),
(505,260,o),
(542,182,o),
(631,182,cs),
(702,182,o),
(777,217,o),
(777,378,cs)
);
},
{
closed = 1;
nodes = (
(345,239,o),
(280,261,o),
(280,334,cs),
(280,419,o),
(322,514,o),
(405,514,cs),
(480,514,o),
(512,457,o),
(505,391,cs),
(491,298,o),
(439,239,o),
(373,239,cs)
);
}
);
width = 822;
}
);
note = at;
unicode = 64;
},
{
glyphname = backslash;
layers = (
{
hints = (
{
horizontal = 1;
place = (-232,985);
type = Stem;
},
{
place = (6,551);
type = Stem;
}
);
layerId = m01;
shapes = (
{
closed = 1;
nodes = (
(92,753,l),
(6,753,l),
(471,-232,l),
(557,-232,l)
);
}
);
width = 542;
}
);
note = backslash;
unicode = 92;
},
{
glyphname = exclamdown;
layers = (
{
hints = (
{
horizontal = 1;
place = (645,108);
type = Stem;
},
{
horizontal = 1;
place = (0,561);
type = Stem;
},
{
place = (63,108);
type = Stem;
}
);
layerId = m01;
shapes = (
{
closed = 1;
nodes = (
(63,753,l),
(63,645,l),
(171,645,l),
(171,753,l)
);
},
{
closed = 1;
nodes = (
(97,561,l),
(60,0,l),
(174,0,l),
(139,561,l)
);
}
);
width = 234;
}
);
note = exclamdown;
unicode = 161;
},
{
glyphname = section;
layers = (
{
hints = (
{
horizontal = 1;
place = (594,69);
type = Stem;
},
{
horizontal = 1;
place = (-232,69);
type = Stem;
},
{
place = (523,75);
type = Stem;
},
{
place = (430,84);
type = Stem;
},
{
place = (114,84);
type = Stem;
},
{
place = (100,93);
type = Stem;
},
{
place = (45,84);
type = Stem;
}
);
layerId = m01;
shapes = (
{
closed = 1;
nodes = (
(431,-232,o),
(514,-160,o),
(514,-68,cs),
(514,-40,o),
(507,-15,o),
(494,6,c),
(563,28,o),
(598,89,o),
(598,161,cs),
(598,366,o),
(198,396,o),
(198,519,cs),
(198,567,o),
(247,594,o),
(299,594,cs),
(379,594,o),
(403,544,o),
(406,510,c),
(499,510,l),
(493,552,o),
(453,663,o),
(299,663,cs),
(195,663,o),
(114,592,o),
(114,504,cs),
(114,464,o),
(131,431,o),
(159,402,c),
(91,378,o),
(45,322,o),
(45,255,cs),
(45,59,o),
(430,52,o),
(430,-83,cs),
(430,-147,o),
(354,-163,o),
(320,-163,cs),
(220,-163,o),
(193,-97,o),
(193,-58,c),
(100,-58,l),
(100,-112,o),
(139,-232,o),
(320,-232,cs)
);
},
{
closed = 1;
nodes = (
(129,310,o),
(148,353,o),
(202,366,c),
(322,282,o),
(523,241,o),
(523,146,cs),
(523,88,o),
(491,55,o),
(459,49,c),
(353,148,o),
(129,176,o),
(129,270,cs)
);
}
);
width = 637;
}
);
note = section;
unicode = 167;
},
{
glyphname = paragraph;
layers = (
{
hints = (
{
horizontal = 1;
place = (669,84);
type = Stem;
},
{
place = (486,90);
type = Stem;
},
{
place = (279,90);
type = Stem;
},
{
place = (45,324);
type = Stem;
}
);
layerId = m01;
shapes = (
{
closed = 1;
nodes = (
(279,753,ls),
(149,753,o),
(45,642,o),
(45,522,cs),
(45,402,o),
(150,291,o),
(279,291,c),
(279,-232,l),
(369,-232,l),
(369,669,l),
(486,669,l),
(486,-232,l),
(576,-232,l),
(576,753,l)
);
}
);
width = 666;
}
);
note = paragraph;
unicode = 182;
},
{
glyphname = periodcentered;
layers = (
{
hints = (
{
horizontal = 1;
place = (204,114);
type = Stem;
},
{
place = (60,114);
type = Stem;
}
);
layerId = m01;
shapes = (
{
closed = 1;
nodes = (
(60,204,l),
(174,204,l),
(174,318,l),
(60,318,l)
);
}
);
width = 234;
}
);
note = periodcentered;
unicode = 183;
},
{
glyphname = questiondown;
layers = (
{
hints = (
{
horizontal = 1;
place = (645,108);
type = Stem;
},
{
horizontal = 1;
place = (-12,78);
type = Stem;
},
{
place = (260,88);
type = Stem;
},
{
place = (250,108);
type = Stem;
},
{
place = (45,90);
type = Stem;
}
);
layerId = m01;
shapes = (
{
closed = 1;
nodes = (
(358,753,l),
(250,753,l),
(250,645,l),
(358,645,l)
);
},
{
closed = 1;
nodes = (
(260,510,ls),
(260,369,o),
(45,397,o),
(45,200,cs),
(45,120,o),
(87,-12,o),
(286,-12,cs),
(488,-12,o),
(525,151,o),
(531,211,c),
(438,211,l),
(435,150,o),
(402,66,o),
(280,66,cs),
(195,66,o),
(135,113,o),
(135,200,cs),
(135,357,o),
(350,312,o),
(348,501,cs),
(348,561,l),
(260,561,l)
);
}
);
width = 576;
}
);
note = questiondown;
unicode = 191;
},
{
glyphname = dagger;
layers = (
{
hints = (
{
horizontal = 1;
place = (447,75);
type = Stem;
},
{
horizontal = 1;
place = (-232,985);
type = Stem;
},
{
place = (280,313);
type = Stem;
},
{
place = (280,90);
type = Stem;
},
{
place = (57,313);
type = Stem;
}
);
layerId = m01;
shapes = (
{
closed = 1;
nodes = (
(593,447,l),
(593,522,l),
(370,522,l),
(370,753,l),
(280,753,l),
(280,522,l),
(57,522,l),
(57,447,l),
(280,447,l),
(280,-232,l),
(370,-232,l),
(370,447,l)
);
}
);
width = 650;
}
);
note = dagger;
unicode = 8224;
},
{
glyphname = daggerdbl;
layers = (
{
hints = (
{
horizontal = 1;
place = (447,75);
type = Stem;
},
{
horizontal = 1;
place = (0,75);
type = Stem;
},
{
place = (280,313);
type = Stem;
},
{
place = (280,90);
type = Stem;
},
{
place = (57,313);
type = Stem;
}
);
layerId = m01;
shapes = (
{
closed = 1;
nodes = (
(370,-232,l),
(370,0,l),
(593,0,l),
(593,75,l),
(370,75,l),
(370,447,l),
(593,447,l),
(593,522,l),
(370,522,l),
(370,753,l),
(280,753,l),
(280,522,l),
(57,522,l),
(57,447,l),
(280,447,l),
(280,75,l),
(57,75,l),
(57,0,l),
(280,0,l),
(280,-232,l)
);
}
);
width = 650;
}
);
note = daggerdbl;
unicode = 8225;
},
{
glyphname = bullet;
layers = (
{
hints = (
{
horizontal = 1;
place = (213,324);
type = Stem;
},
{
place = (45,324);
type = Stem;
}
);
layerId = m01;
shapes = (
{
closed = 1;
nodes = (
(369,464,o),
(296,537,o),
(207,537,cs),
(118,537,o),
(45,464,o),
(45,375,cs),
(45,286,o),
(118,213,o),
(207,213,cs),
(296,213,o),
(369,286,o),
(369,375,cs)
);
}
);
width = 414;
}
);
note = bullet;
unicode = 8226;
},
{
glyphname = ellipsis;
layers = (
{
hints = (
{
horizontal = 1;
place = (0,114);
type = Stem;
},
{
place = (660,114);
type = Stem;
},
{
place = (360,114);
type = Stem;
},
{
place = (60,114);
type = Stem;
}
);
layerId = m01;
shapes = (
{
closed = 1;
nodes = (
(60,0,l),
(174,0,l),
(174,114,l),
(60,114,l)
);
},
{
closed = 1;
nodes = (
(360,0,l),
(474,0,l),
(474,114,l),
(360,114,l)
);
},
{
closed = 1;
nodes = (
(660,0,l),
(774,0,l),
(774,114,l),
(660,114,l)
);
}
);
width = 834;
}
);
note = ellipsis;
unicode = 8230;
},
{
glyphname = plus;
layers = (
{
hints = (
{
horizontal = 1;
place = (339,75);
type = Stem;
},
{
place = (291,75);
type = Stem;
}
);
layerId = m01;
shapes = (
{
closed = 1;
nodes = (
(597,339,l),
(597,414,l),
(366,414,l),
(366,645,l),
(291,645,l),
(291,414,l),
(60,414,l),
(60,339,l),
(291,339,l),
(291,108,l),
(366,108,l),
(366,339,l)
);
}
);
width = 657;
}
);
note = plus;
unicode = 43;
},
{
glyphname = less;
layers = (
{
hints = (
{
horizontal = 1;
place = (85,449);
type = Stem;
},
{
place = (45,421);
type = Stem;
},
{
place = (45,54);
type = Stem;
}
);
layerId = m01;
shapes = (
{
closed = 1;
nodes = (
(45,367,l),
(45,252,l),
(466,85,l),
(466,175,l),
(99,310,l),
(466,444,l),
(466,534,l)
);
}
);
width = 511;
}
);
note = less;
unicode = 60;
},
{
glyphname = equal;
layers = (
{
hints = (
{
horizontal = 1;
place = (381,75);
type = Stem;
},
{
horizontal = 1;
place = (207,75);
type = Stem;
},
{
place = (45,417);
type = Stem;
}
);
layerId = m01;
shapes = (
{
closed = 1;
nodes = (
(462,381,l),
(462,456,l),
(45,456,l),
(45,381,l)
);
},
{
closed = 1;
nodes = (
(462,207,l),
(462,282,l),
(45,282,l),
(45,207,l)
);
}
);
width = 507;
}
);
note = equal;
unicode = 61;
},
{
glyphname = greater;
layers = (
{
hints = (
{
horizontal = 1;
place = (85,449);
type = Stem;
},
{
place = (412,54);
type = Stem;
},
{
place = (45,421);
type = Stem;
}
);
layerId = m01;
shapes = (
{
closed = 1;
nodes = (
(466,367,l),
(45,534,l),
(45,444,l),
(412,310,l),
(45,175,l),
(45,85,l),
(466,252,l)
);
}
);
width = 511;
}
);
note = greater;
unicode = 62;
},
{
glyphname = bar;
layers = (
{
hints = (
{
horizontal = 1;
place = (-232,985);
type = Stem;
},
{
place = (90,90);
type = Stem;
}
);
layerId = m01;
shapes = (
{
closed = 1;
nodes = (
(180,753,l),
(90,753,l),
(90,-232,l),
(180,-232,l)
);
}
);
width = 270;
}
);
note = bar;
unicode = 124;
},
{
glyphname = asciitilde;
layers = (
{
hints = (
{
horizontal = 1;
place = (252,114);
type = Stem;
},
{
place = (39,323);
type = Stem;
}
);
layerId = m01;
shapes = (
{
closed = 1;
nodes = (
(302,362,l),
(302,223,o),
(65,512,o),
(39,255,c),
(99,255,l),
(99,393,o),
(338,106,o),
(362,362,c)
);
}
);
width = 401;
}
);
note = asciitilde;
unicode = 126;
},
{
glyphname = logicalnot;
layers = (
{
hints = (
{
horizontal = 1;
place = (363,75);
type = Stem;
},
{
horizontal = 1;
place = (153,285);
type = Stem;
},
{
place = (471,72);
type = Stem;
}
);
layerId = m01;
shapes = (
{
closed = 1;
nodes = (
(543,438,l),
(45,438,l),
(45,363,l),
(471,363,l),
(471,153,l),
(543,153,l)
);
}
);
width = 603;
}
);
note = logicalnot;
unicode = 172;
},
{
glyphname = plusminus;
layers = (
{
hints = (
{
horizontal = 1;
place = (357,75);
type = Stem;
},
{
horizontal = 1;
place = (0,75);
type = Stem;
},
{
place = (291,75);
type = Stem;
}
);
layerId = m01;
shapes = (
{
closed = 1;
nodes = (
(597,357,l),
(597,432,l),
(366,432,l),
(366,645,l),
(291,645,l),
(291,432,l),
(60,432,l),
(60,357,l),
(291,357,l),
(291,144,l),
(366,144,l),
(366,357,l)
);
},
{
closed = 1;
nodes = (
(597,0,l),
(597,75,l),
(60,75,l),
(60,0,l)
);
}
);
width = 657;
}
);
note = plusminus;
unicode = 177;
},
{
glyphname = multiply;
layers = (
{
hints = (
{
horizontal = 1;
place = (160,433);
type = Stem;
},
{
place = (45,433);
type = Stem;
}
);
layerId = m01;
shapes = (
{
closed = 1;
nodes = (
(478,540,l),
(425,593,l),
(262,430,l),
(98,593,l),
(45,540,l),
(208,377,l),
(45,213,l),
(98,160,l),
(262,323,l),
(425,160,l),
(478,213,l),
(315,377,l)
);
}
);
width = 523;
}
);
note = multiply;
unicode = 215;
},
{
glyphname = divide;
layers = (
{
hints = (
{
place = (519,126);
type = Stem;
},
{
place = (339,75);
type = Stem;
},
{
place = (276,105);
type = Stem;
},
{
place = (108,126);
type = Stem;
}
);
layerId = m01;
shapes = (
{
closed = 1;
nodes = (
(276,519,l),
(381,519,l),
(381,645,l),
(276,645,l)
);
},
{
closed = 1;
nodes = (
(597,339,l),
(597,414,l),
(60,414,l),
(60,339,l)
);
},
{
closed = 1;
nodes = (
(276,108,l),
(381,108,l),
(381,234,l),
(276,234,l)
);
}
);
width = 657;
}
);
note = divide;
unicode = 247;
},
{
glyphname = fraction;
layers = (
{
hints = (
{
horizontal = 1;
place = (0,753);
type = Stem;
},
{
place = (9,415);
type = Stem;
}
);
layerId = m01;
shapes = (
{
closed = 1;
nodes = (
(357,753,l),
(9,0,l),
(76,0,l),
(424,753,l)
);
}
);
width = 433;
}
);
note = fraction;
unicode = 8260;
},
{
glyphname = minus;
layers = (
{
hints = (
{
horizontal = 1;
place = (294,75);
type = Stem;
},
{
place = (45,465);
type = Stem;
}
);
layerId = m01;
shapes = (
{
closed = 1;
nodes = (
(510,294,l),
(510,369,l),
(45,369,l),
(45,294,l)
);
}
);
width = 555;
}
);
note = minus;
unicode = 8722;
},
{
glyphname = lessequal;
layers = (
{
hints = (
{
horizontal = 1;
place = (0,75);
type = Stem;
},
{
place = (45,421);
type = Stem;
},
{
place = (45,48);
type = Stem;
}
);
layerId = m01;
shapes = (
{
closed = 1;
nodes = (
(45,370,l),
(45,273,l),
(466,109,l),
(466,181,l),
(93,322,l),
(466,462,l),
(466,534,l)
);
},
{
closed = 1;
nodes = (
(466,0,l),
(466,75,l),
(45,75,l),
(45,0,l)
);
}
);
width = 511;
}
);
note = lessequal;
unicode = 8804;
},
{
glyphname = greaterequal;
layers = (
{
hints = (
{
horizontal = 1;
place = (0,75);
type = Stem;
},
{
place = (418,48);
type = Stem;
},
{
place = (45,421);
type = Stem;
}
);
layerId = m01;
shapes = (
{
closed = 1;
nodes = (
(466,370,l),
(45,534,l),
(45,462,l),
(418,322,l),
(45,181,l),
(45,109,l),
(466,273,l)
);
},
{
closed = 1;
nodes = (
(45,0,l),
(466,0,l),
(466,75,l),
(45,75,l)
);
}
);
width = 500;
}
);
note = greaterequal;
unicode = 8805;
},
{
glyphname = uni22EE;
layers = (
{
hints = (
{
horizontal = 1;
place = (639,114);
type = Stem;
},
{
horizontal = 1;
place = (320,114);
type = Stem;
},
{
horizontal = 1;
place = (0,114);
type = Stem;
},
{
place = (60,114);
type = Stem;
}
);
layerId = m01;
shapes = (
{
closed = 1;
nodes = (
(60,639,l),
(174,639,l),
(174,753,l),
(60,753,l)
);
},
{
closed = 1;
nodes = (
(60,320,l),
(174,320,l),
(174,434,l),
(60,434,l)
);
},
{
closed = 1;
nodes = (
(60,0,l),
(174,0,l),
(174,114,l),
(60,114,l)
);
}
);
width = 234;
}
);
note = uni22EE;
unicode = 8942;
},
{
glyphname = dollar;
layers = (
{
hints = (
{
horizontal = 1;
place = (657,71);
type = Stem;
},
{
horizontal = 1;
place = (655,73);
type = Stem;
},
{
horizontal = 1;
place = (-12,76);
type = Stem;
},
{
horizontal = 1;
place = (-133,197);
type = Stem;
},
{
place = (504,75);
type = Stem;
},
{
place = (471,78);
type = Stem;
},
{
place = (278,64);
type = Stem;
},
{
place = (277.5,64.5);
type = Stem;
},
{
place = (276.5,65.5);
type = Stem;
},
{
place = (276,66);
type = Stem;
},
{
place = (63,78);
type = Stem;
},
{
place = (45,78);
type = Stem;
}
);
layerId = m01;
shapes = (
{
closed = 1;
nodes = (
(342,-133,l),
(342,-12,l),
(478,-6,o),
(579,51,o),
(579,201,cs),
(579,349,o),
(457,393,o),
(342,424,c),
(342,655,l),
(473,644,o),
(468,579,o),
(471,524,c),
(549,524,l),
(543,581,o),
(542,713,o),
(342,728,c),
(342,816,l),
(278,816,l),
(278,728,l),
(100,721,o),
(63,632,o),
(63,538,cs),
(63,414,o),
(169,380,o),
(277,351,c),
(276,65,l),
(188,75,o),
(128,120,o),
(123,237,c),
(45,237,l),
(51,142,o),
(82,7,o),
(276,-10,c),
(276,-133,l)
);
},
{
closed = 1;
nodes = (
(141,632,o),
(202,654,o),
(278,657,c),
(277,442,l),
(201,464,o),
(141,488,o),
(141,547,cs)
);
},
{
closed = 1;
nodes = (
(504,106,o),
(433,69,o),
(342,64,c),
(342,334,l),
(430,310,o),
(504,277,o),
(504,187,cs)
);
}
);
width = 624;
}
);
note = dollar;
unicode = 36;
},
{
glyphname = cent;
layers = (
{
hints = (
{
horizontal = 1;
place = (354,297);
type = Stem;
},
{
horizontal = 1;
place = (-131,317);
type = Stem;
},
{
place = (399,94);
type = Stem;
},
{
place = (245,66);
type = Stem;
},
{
place = (45,93);
type = Stem;
}
);
layerId = m01;
shapes = (
{
closed = 1;
nodes = (
(311,-131,l),
(311,-10,l),
(418,2,o),
(482,67,o),
(493,186,c),
(399,186,l),
(394,127,o),
(376,68,o),
(311,52,c),
(311,470,l),
(381,454,o),
(389,390,o),
(394,354,c),
(488,354,l),
(474,445,o),
(422,519,o),
(311,532,c),
(311,651,l),
(245,651,l),
(245,532,l),
(116,517,o),
(45,398,o),
(45,261,cs),
(45,124,o),
(116,5,o),
(245,-10,c),
(245,-131,l)
);
},
{
closed = 1;
nodes = (
(138,344,o),
(146,454,o),
(245,472,c),
(245,51,l),
(154,70,o),
(138,179,o),
(138,261,cs)
);
}
);
width = 532;
}
);
note = cent;
unicode = 162;
},
{
glyphname = sterling;
layers = (
{
hints = (
{
horizontal = 1;
place = (657,73);
type = Stem;
},
{
horizontal = 1;
place = (314,66);
type = Stem;
},
{
place = (158,82);
type = Stem;
},
{
place = (58,78);
type = Stem;
},
{
place = (46,324);
type = Stem;
}
);
layerId = m01;
shapes = (
{
closed = 1;
nodes = (
(107,-12,l),
(265,108,o),
(441,-119,o),
(573,59,c),
(522,122,l),
(430,-20,o),
(278,152,o),
(131,64,c),
(180,105,o),
(239,161,o),
(240,236,cs),
(240,267,o),
(237,292,o),
(232,314,c),
(370,314,l),
(370,380,l),
(206,380,l),
(176,433,o),
(136,464,o),
(136,547,cs),
(136,622,o),
(202,657,o),
(287,657,cs),
(445,657,o),
(442,585,o),
(445,524,c),
(532,524,l),
(526,584,o),
(507,730,o),
(293,730,cs),
(93,730,o),
(58,621,o),
(58,538,cs),
(58,460,o),
(85,421,o),
(111,380,c),
(46,380,l),
(46,314,l),
(145,314,l),
(153,291,o),
(158,265,o),
(158,231,cs),
(158,164,o),
(96,99,o),
(45,48,c)
);
}
);
width = 618;
}
);
note = sterling;
unicode = 163;
},
{
glyphname = currency;
layers = (
{
hints = (
{
horizontal = 1;
place = (483,51);
type = Stem;
},
{
horizontal = 1;
place = (189,51);
type = Stem;
},
{
place = (353,63);
type = Stem;
},
{
place = (96,63);
type = Stem;
}
);
layerId = m01;
shapes = (
{
closed = 1;
nodes = (
(434,159,l),
(461,185,l),
(386,257,l),
(406,286,o),
(416,323,o),
(416,363,cs),
(416,402,o),
(406,437,o),
(388,466,c),
(461,536,l),
(435,563,l),
(364,495,l),
(337,519,o),
(301,534,o),
(256,534,cs),
(211,534,o),
(175,519,o),
(148,495,c),
(77,563,l),
(51,536,l),
(124,466,l),
(106,437,o),
(96,402,o),
(96,363,cs),
(96,323,o),
(106,286,o),
(126,257,c),
(51,185,l),
(78,159,l),
(150,228,l),
(177,204,o),
(212,189,o),
(256,189,cs),
(300,189,o),
(335,204,o),
(362,228,c)
);
},
{
closed = 1;
nodes = (
(353,305,o),
(334,240,o),
(256,240,cs),
(178,240,o),
(159,305,o),
(159,363,cs),
(159,421,o),
(178,483,o),
(256,483,cs),
(334,483,o),
(353,421,o),
(353,363,cs)
);
}
);
width = 512;
}
);
note = currency;
unicode = 164;
},
{
glyphname = yen;
layers = (
{
hints = (
{
horizontal = 1;
place = (288,66);
type = Stem;
},
{
horizontal = 1;
place = (114,66);
type = Stem;
},
{
horizontal = 1;
place = (0,180);
type = Stem;
},
{
place = (305,80);
type = Stem;
}
);
layerId = m01;
shapes = (
{
closed = 1;
nodes = (
(385,0,l),
(385,114,l),
(612,114,l),
(612,180,l),
(385,180,l),
(385,288,l),
(612,288,l),
(612,354,l),
(421,354,l),
(672,715,l),
(564,715,l),
(345,377,l),
(123,715,l),
(18,715,l),
(269,354,l),
(78,354,l),
(78,288,l),
(305,288,l),
(305,180,l),
(78,180,l),
(78,114,l),
(305,114,l),
(305,0,l)
);
}
);
width = 690;
}
);
note = yen;
unicode = 165;
},
{
glyphname = Euro;
layers = (
{
hints = (
{
horizontal = 1;
place = (652,74);
type = Stem;
},
{
horizontal = 1;
place = (403,72);
type = Stem;
},
{
horizontal = 1;
place = (258,72);
type = Stem;
},
{
horizontal = 1;
place = (-12,74);
type = Stem;
},
{
place = (87,97);
type = Stem;
}
);
layerId = m01;
shapes = (
{
closed = 1;
nodes = (
(10,258,l),
(94,258,l),
(113,122,o),
(181,-12,o),
(382,-12,cs),
(604,-12,o),
(636,125,o),
(653,259,c),
(554,259,l),
(549,135,o),
(512,62,o),
(382,62,cs),
(262,62,o),
(208,139,o),
(191,258,c),
(386,258,l),
(401,330,l),
(184,330,l),
(184,339,o),
(184,349,o),
(184,359,cs),
(184,374,o),
(184,389,o),
(185,403,c),
(413,403,l),
(428,475,l),
(193,475,l),
(213,584,o),
(268,652,o),
(382,652,cs),
(464,652,o),
(531,624,o),
(547,504,c),
(644,504,l),
(612,651,o),
(545,726,o),
(382,726,cs),
(183,726,o),
(116,604,o),
(95,475,c),
(25,475,l),
(10,403,l),
(88,403,l),
(87,388,o),
(87,373,o),
(87,359,cs),
(87,349,o),
(87,340,o),
(87,330,c),
(25,330,l)
);
}
);
width = 710;
}
);
note = Euro;
unicode = 8364;
},
{
glyphname = asciicircum;
layers = (
{
hints = (
{
horizontal = 1;
place = (705,48);
type = Stem;
},
{
horizontal = 1;
place = (443,310);
type = Stem;
},
{
place = (45,449);
type = Stem;
}
);
layerId = m01;
shapes = (
{
closed = 1;
nodes = (
(327,753,l),
(212,753,l),
(45,443,l),
(135,443,l),
(270,705,l),
(404,443,l),
(494,443,l)
);
}
);
width = 539;
}
);
note = asciicircum;
unicode = 94;
},
{
glyphname = grave;
layers = (
{
hints = (
{
horizontal = 1;
place = (612,153);
type = Stem;
},
{
place = (60,153);
type = Stem;
}
);
layerId = m01;
shapes = (
{
closed = 1;
nodes = (
(213,612,l),
(164,765,l),
(60,765,l),
(147,612,l)
);
}
);
width = 273;
}
);
note = grave;
unicode = 96;
},
{
glyphname = dieresis;
layers = (
{
hints = (
{
horizontal = 1;
place = (651,117);
type = Stem;
},
{
place = (237,99);
type = Stem;
},
{
place = (39,99);
type = Stem;
}
);
layerId = m01;
shapes = (
{
closed = 1;
nodes = (
(39,651,l),
(138,651,l),
(138,768,l),
(39,768,l)
);
},
{
closed = 1;
nodes = (
(237,651,l),
(336,651,l),
(336,768,l),
(237,768,l)
);
}
);
width = 375;
}
);
note = dieresis;
unicode = 168;
},
{
glyphname = macron;
layers = (
{
hints = (
{
horizontal = 1;
place = (687,66);
type = Stem;
},
{
place = (60,294);
type = Stem;
}
);
layerId = m01;
shapes = (
{
closed = 1;
nodes = (
(354,687,l),
(354,753,l),
(60,753,l),
(60,687,l)
);
}
);
width = 414;
}
);
note = macron;
unicode = 175;
},
{
glyphname = acute;
layers = (
{
hints = (
{
horizontal = 1;
place = (612,153);
type = Stem;
},
{
place = (60,153);
type = Stem;
}
);
layerId = m01;
shapes = (
{
closed = 1;
nodes = (
(60,612,l),
(126,612,l),
(213,765,l),
(109,765,l)
);
}
);
width = 273;
}
);
note = acute;
unicode = 180;
},
{
glyphname = cedilla;
layers = (
{
hints = (
{
horizontal = 1;
place = (-109,36);
type = Stem;
},
{
horizontal = 1;
place = (-244,46);
type = Stem;
},
{
place = (222,58);
type = Stem;
}
);
layerId = m01;
shapes = (
{
closed = 1;
nodes = (
(256,-244,o),
(280,-196,o),
(280,-149,cs),
(280,-102,o),
(247,-53,o),
(145,-80,c),
(207,12,l),
(177,32,l),
(94,-93,l),
(115,-114,l),
(157,-107,o),
(222,-99,o),
(222,-150,cs),
(222,-189,o),
(181,-198,o),
(159,-198,cs),
(125,-198,o),
(97,-190,o),
(78,-180,c),
(60,-212,l),
(60,-212,o),
(90,-244,o),
(174,-244,cs)
);
}
);
width = 340;
}
);
note = cedilla;
unicode = 184;
},
{
glyphname = breve;
layers = (
{
hints = (
{
horizontal = 1;
place = (588,66);
type = Stem;
},
{
place = (304,60);
type = Stem;
},
{
place = (60,60);
type = Stem;
}
);
layerId = m01;
shapes = (
{
closed = 1;
nodes = (
(60,753,l),
(60,663,o),
(111,588,o),
(213,588,cs),
(316,588,o),
(364,666,o),
(364,753,c),
(304,753,l),
(304,708,o),
(281,654,o),
(213,654,cs),
(143,654,o),
(120,706,o),
(120,753,c)
);
}
);
width = 424;
}
);
note = breve;
unicode = 728;
},
{
glyphname = dotaccent;
layers = (
{
hints = (
{
horizontal = 1;
place = (615,126);
type = Stem;
},
{
place = (60,105);
type = Stem;
}
);
layerId = m01;
shapes = (
{
closed = 1;
nodes = (
(60,615,l),
(165,615,l),
(165,741,l),
(60,741,l)
);
}
);
width = 225;
}
);
note = dotaccent;
unicode = 729;
},
{
glyphname = ring;
layers = (
{
hints = (
{
horizontal = 1;
place = (741,33);
type = Stem;
},
{
horizontal = 1;
place = (589,33);
type = Stem;
},
{
place = (203,33);
type = Stem;
},
{
place = (54,33);
type = Stem;
}
);
layerId = m01;
shapes = (
{
closed = 1;
nodes = (
(88,774,o),
(54,728,o),
(54,681,cs),
(54,634,o),
(88,589,o),
(146,589,cs),
(204,589,o),
(236,635,o),
(236,681,cs),
(236,728,o),
(204,774,o),
(146,774,cs)
);
},
{
closed = 1;
nodes = (
(184,741,o),
(203,710,o),
(203,681,cs),
(203,653,o),
(184,622,o),
(146,622,cs),
(106,622,o),
(87,652,o),
(87,681,cs),
(87,710,o),
(106,741,o),
(146,741,cs)
);
}
);
width = 290;
}
);
note = ring;
unicode = 730;
},
{
glyphname = ogonek;
layers = (
{
hints = (
{
horizontal = 1;
place = (-241,75);
type = Stem;
},
{
place = (54,84);
type = Stem;
}
);
layerId = m01;
shapes = (
{
closed = 1;
nodes = (
(141,-12,l),
(-35,-145,o),
(85,-281,o),
(238,-230,c),
(238,-156,l),
(156,-192,o),
(68,-125,o),
(222,-12,c)
);
}
);
width = 292;
}
);
note = ogonek;
unicode = 731;
},
{
glyphname = tilde;
layers = (
{
hints = (
{
horizontal = 1;
place = (633,89);
type = Stem;
},
{
place = (60,269);
type = Stem;
}
);
layerId = m01;
shapes = (
{
closed = 1;
nodes = (
(269,722,l),
(269,601,o),
(95,863,o),
(60,633,c),
(120,633,l),
(120,753,o),
(296,493,o),
(329,722,c)
);
}
);
width = 389;
}
);
note = tilde;
unicode = 732;
},
{
glyphname = hungarumlaut;
layers = (
{
hints = (
{
horizontal = 1;
place = (612,153);
type = Stem;
},
{
place = (60,314);
type = Stem;
}
);
layerId = m01;
shapes = (
{
closed = 1;
nodes = (
(60,612,l),
(126,612,l),
(213,765,l),
(109,765,l)
);
},
{
closed = 1;
nodes = (
(221,612,l),
(287,612,l),
(374,765,l),
(270,765,l)
);
}
);
width = 434;
}
);
note = hungarumlaut;
unicode = 733;
},
{
glyphname = brokenbar;
layers = (
{
hints = (
{
horizontal = 1;
place = (338,415);
type = Stem;
},
{
horizontal = 1;
place = (-232,415);
type = Stem;
},
{
place = (90,90);
type = Stem;
}
);
layerId = m01;
shapes = (
{
closed = 1;
nodes = (
(180,753,l),
(90,753,l),
(90,338,l),
(180,338,l)
);
},
{
closed = 1;
nodes = (
(180,183,l),
(90,183,l),
(90,-232,l),
(180,-232,l)
);
}
);
width = 270;
}
);
note = brokenbar;
unicode = 166;
},
{
glyphname = copyright;
layers = (
{
hints = (
{
horizontal = 1;
place = (714,51);
type = Stem;
},
{
horizontal = 1;
place = (525,50);
type = Stem;
},
{
horizontal = 1;
place = (185,50);
type = Stem;
},
{
horizontal = 1;
place = (-12,51);
type = Stem;
},
{
place = (729,60);
type = Stem;
},
{
place = (506,67);
type = Stem;
},
{
place = (253,67);
type = Stem;
},
{
place = (45,60);
type = Stem;
}
);
layerId = m01;
shapes = (
{
closed = 1;
nodes = (
(701,-12,o),
(789,219,o),
(789,378,cs),
(789,537,o),
(699,765,o),
(417,765,cs),
(135,765,o),
(45,537,o),
(45,378,cs),
(45,219,o),
(133,-12,o),
(417,-12,cs)
);
},
{
closed = 1;
nodes = (
(219,39,o),
(105,194,o),
(105,378,cs),
(105,562,o),
(219,714,o),
(417,714,cs),
(615,714,o),
(729,562,o),
(729,378,cs),
(729,194,o),
(615,39,o),
(417,39,cs)
);
},
{
closed = 1;
nodes = (
(506,327,l),
(501,277,o),
(485,235,o),
(417,235,cs),
(333,235,o),
(320,316,o),
(320,380,cs),
(320,445,o),
(327,525,o),
(417,525,cs),
(492,525,o),
(498,476,o),
(502,447,c),
(569,447,l),
(558,519,o),
(515,575,o),
(417,575,cs),
(312,575,o),
(253,485,o),
(253,380,cs),
(253,276,o),
(312,185,o),
(417,185,cs),
(509,185,o),
(564,233,o),
(573,327,c)
);
}
);
width = 834;
}
);
note = copyright;
unicode = 169;
},
{
glyphname = registered;
layers = (
{
hints = (
{
horizontal = 1;
place = (714,51);
type = Stem;
},
{
horizontal = 1;
place = (515,51);
type = Stem;
},
{
horizontal = 1;
place = (348,51);
type = Stem;
},
{
horizontal = 1;
place = (-12,51);
type = Stem;
},
{
place = (729,60);
type = Stem;
},
{
place = (521,55);
type = Stem;
},
{
place = (276,55);
type = Stem;
},
{
place = (45,60);
type = Stem;
}
);
layerId = m01;
shapes = (
{
closed = 1;
nodes = (
(701,-12,o),
(789,219,o),
(789,378,cs),
(789,537,o),
(699,765,o),
(417,765,cs),
(135,765,o),
(45,537,o),
(45,378,cs),
(45,219,o),
(133,-12,o),
(417,-12,cs)
);
},
{
closed = 1;
nodes = (
(219,39,o),
(105,194,o),
(105,378,cs),
(105,562,o),
(219,714,o),
(417,714,cs),
(615,714,o),
(729,562,o),
(729,378,cs),
(729,194,o),
(615,39,o),
(417,39,cs)
);
},
{
closed = 1;
nodes = (
(331,348,l),
(414,348,l),
(516,208,l),
(580,208,l),
(476,351,l),
(554,362,o),
(576,403,o),
(576,457,cs),
(576,521,o),
(547,566,o),
(429,566,cs),
(276,566,l),
(276,208,l),
(331,208,l)
);
},
{
closed = 1;
nodes = (
(331,399,l),
(331,515,l),
(427,515,ls),
(505,515,o),
(521,493,o),
(521,457,cs),
(521,421,o),
(505,399,o),
(427,399,cs)
);
}
);
width = 834;
}
);
note = registered;
unicode = 174;
},
{
glyphname = degree;
layers = (
{
hints = (
{
horizontal = 1;
place = (699,66);
type = Stem;
},
{
horizontal = 1;
place = (435,66);
type = Stem;
},
{
place = (266,69);
type = Stem;
},
{
place = (13,69);
type = Stem;
}
);
layerId = m01;
shapes = (
{
closed = 1;
nodes = (
(73,765,o),
(13,688,o),
(13,600,cs),
(13,510,o),
(73,435,o),
(175,435,cs),
(278,435,o),
(335,513,o),
(335,600,cs),
(335,688,o),
(278,765,o),
(175,765,cs)
);
},
{
closed = 1;
nodes = (
(243,699,o),
(266,645,o),
(266,600,cs),
(266,555,o),
(243,501,o),
(175,501,cs),
(105,501,o),
(82,553,o),
(82,600,cs),
(82,645,o),
(105,699,o),
(175,699,cs)
);
}
);
width = 348;
}
);
note = degree;
unicode = 176;
},
{
glyphname = trademark;
layers = (
{
hints = (
{
horizontal = 1;
place = (702,51);
type = Stem;
},
{
horizontal = 1;
place = (690,63);
type = Stem;
},
{
horizontal = 1;
place = (395,358);
type = Stem;
},
{
place = (684,54);
type = Stem;
},
{
place = (390,54);
type = Stem;
},
{
place = (172,55);
type = Stem;
}
);
layerId = m01;
shapes = (
{
closed = 1;
nodes = (
(227,395,l),
(227,702,l),
(348,702,l),
(348,753,l),
(51,753,l),
(51,702,l),
(172,702,l),
(172,395,l)
);
},
{
closed = 1;
nodes = (
(564,480,l),
(478,753,l),
(390,753,l),
(390,395,l),
(444,395,l),
(444,690,l),
(538,395,l),
(590,395,l),
(684,690,l),
(684,395,l),
(738,395,l),
(738,753,l),
(650,753,l)
);
}
);
width = 798;
}
);
note = trademark;
unicode = 8482;
},
{
glyphname = onesuperior;
layers = (
{
hints = (
{
horizontal = 1;
place = (626,54);
type = Stem;
},
{
place = (152,75);
type = Stem;
}
);
layerId = m01;
shapes = (
{
closed = 1;
nodes = (
(227,348,l),
(227,753,l),
(170,753,l),
(163,691,o),
(116,680,o),
(60,680,c),
(60,626,l),
(106,626,o),
(136,631,o),
(152,639,c),
(152,348,l)
);
}
);
width = 287;
}
);
note = onesuperior;
unicode = 185;
},
{
glyphname = threesuperior;
layers = (
{
hints = (
{
horizontal = 1;
place = (720,45);
type = Stem;
},
{
horizontal = 1;
place = (571,21);
type = Stem;
},
{
horizontal = 1;
place = (540,52);
type = Stem;
},
{
horizontal = 1;
place = (342,49);
type = Stem;
},
{
place = (289,66);
type = Stem;
},
{
place = (280,63);
type = Stem;
},
{
place = (67,57);
type = Stem;
},
{
place = (54,61);
type = Stem;
}
);
layerId = m01;
shapes = (
{
closed = 1;
nodes = (
(54,490,l),
(58,427,o),
(83,342,o),
(208,342,cs),
(298,342,o),
(355,398,o),
(355,468,cs),
(355,517,o),
(333,556,o),
(261,571,c),
(322,583,o),
(343,602,o),
(343,657,cs),
(343,719,o),
(292,765,o),
(201,765,cs),
(99,765,o),
(70,701,o),
(67,638,c),
(124,638,l),
(124,687,o),
(141,720,o),
(201,720,cs),
(265,720,o),
(280,685,o),
(280,648,cs),
(280,617,o),
(259,594,o),
(208,592,cs),
(134,592,l),
(134,540,l),
(192,540,ls),
(255,540,o),
(289,512,o),
(289,471,cs),
(289,432,o),
(264,391,o),
(208,391,cs),
(142,391,o),
(116,418,o),
(115,490,c)
);
}
);
width = 409;
}
);
note = threesuperior;
unicode = 179;
},
{
glyphname = twosuperior;
layers = (
{
layerId = m01;
shapes = (
{
closed = 1;
nodes = (
(324,403,l),
(127,403,l),
(214,447,o),
(324,478,o),
(324,609,cs),
(324,663,o),
(295,753,o),
(180,753,cs),
(69,753,o),
(51,658,o),
(54,603,c),
(115,603,l),
(112,671,o),
(135,697,o),
(185,697,cs),
(244,697,o),
(253,636,o),
(253,608,cs),
(253,515,o),
(207,500,o),
(61,422,c),
(61,340,l),
(324,340,l)
);
}
